<?xml version="1.0" encoding="UTF-8"?>
<svg xmlns="http://www.w3.org/2000/svg" width="175" height="45" viewBox="0 0 175 45" fill="none">
  <g clip-path="url(#clip0_9814_5921)">
    <path fill-rule="evenodd" clip-rule="evenodd" d="M25.7782 33.0264C25.9033 32.9014 25.9033 33.0264 25.7782 33.0264L23.6501 38.9014H23.5249H15.0127H14.8875L17.0156 33.7764H17.1408C17.7666 33.7764 21.7724 33.7764 25.7782 33.0264ZM144.574 18.5264C144.574 25.2764 139.316 29.5264 130.554 29.5264H125.296V38.9014H101.512L91.8731 26.2764V38.9014H68.84L66.3364 31.9014C66.2113 31.9014 63.5825 31.4014 60.5782 31.4014C57.5738 31.4014 54.9451 31.9014 54.6947 31.9014L52.1911 38.9014H40.4242L38.5465 33.6514C41.4256 34.4014 43.5537 35.5264 44.6803 36.1514L45.181 34.9014C43.4285 33.9014 38.4213 31.4014 31.4113 31.4014C25.9033 31.4014 22.3983 32.7764 16.7652 32.7764C7.5019 32.7764 1.11773 28.2764 0.742188 28.0264L3.24578 22.0264C3.87168 22.4014 10.0055 26.4014 17.1408 26.4014C18.3925 26.4014 19.394 26.2764 20.3954 26.2764L28.0314 7.52637H29.158H35.417H40.7997L48.3105 27.1514L56.322 7.40137H69.0904L80.2314 36.4014V7.52637H95.5033C105.893 7.52637 111.026 12.2764 111.026 18.5264C111.026 24.7764 106.018 27.2764 104.641 27.9014L113.654 37.6514V7.52637H130.303C139.692 7.52637 144.574 12.1514 144.574 18.5264ZM35.6674 25.7764L32.1623 16.1514L28.7825 25.4014C29.4084 25.4014 30.0343 25.4014 30.6602 25.4014C33.4141 25.2764 35.417 25.6514 35.6674 25.7764ZM64.0832 25.5264L60.5782 16.1514L57.0731 25.5264C57.1983 25.5264 59.2012 25.2764 60.5782 25.2764C62.2055 25.2764 63.958 25.5264 64.0832 25.5264ZM99.3839 18.5264C99.3839 15.4014 97.7566 12.6514 93.5005 12.6514H91.8731V24.4014H93.5005C97.381 24.4014 99.3839 22.1514 99.3839 18.5264ZM132.807 18.5264C132.807 15.1514 131.054 12.6514 127.549 12.6514H125.171V24.4014H127.549C130.804 24.4014 132.807 22.1514 132.807 18.5264Z" fill="#F40000"></path>
    <path fill-rule="evenodd" clip-rule="evenodd" d="M147.825 7.52539C149.577 7.52539 150.954 8.90039 150.954 10.6504C150.954 12.5254 149.577 13.9004 147.825 13.9004C146.072 13.9004 144.695 12.5254 144.695 10.6504C144.695 8.90039 146.072 7.52539 147.825 7.52539ZM147.825 8.02539C146.448 8.02539 145.321 9.27539 145.321 10.6504C145.321 12.1504 146.448 13.4004 147.825 13.4004C149.202 13.4004 150.328 12.1504 150.328 10.7754C150.328 9.15039 149.202 8.02539 147.825 8.02539ZM147.199 12.5254H146.698V9.02539C146.949 8.90039 147.199 8.90039 147.7 8.90039C148.2 8.90039 148.576 9.02539 148.826 9.15039C149.077 9.27539 149.202 9.52539 149.202 9.90039C149.202 10.4004 148.951 10.6504 148.451 10.7754C148.701 10.7754 148.951 11.1504 149.077 11.6504C149.202 12.1504 149.202 12.4004 149.327 12.5254H148.576C148.576 12.4004 148.451 12.1504 148.326 11.6504C148.326 11.1504 148.075 11.0254 147.574 11.0254H147.199V12.5254ZM147.199 10.5254H147.574C148.075 10.5254 148.451 10.4004 148.451 9.90039C148.451 9.65039 148.2 9.27539 147.574 9.27539C147.449 9.27539 147.324 9.27539 147.199 9.27539V10.5254Z" fill="#F40000"></path>
  </g>
  <defs>
    <clipPath id="clip0_9814_5921">
      <rect width="174" height="45" fill="white" transform="translate(0.742188)"></rect>
    </clipPath>
  </defs>
</svg>
