<?xml version="1.0" encoding="UTF-8"?>
<svg xmlns="http://www.w3.org/2000/svg" width="48" height="49" viewBox="0 0 48 49" fill="none">
  <path d="M20.8876 15.7684C18.8446 17.3075 16.7669 19.1095 14.7412 21.1352C5.68905 30.1874 1.10267 40.2774 4.49723 43.6721C7.89176 47.0664 17.9818 42.4801 27.0339 33.428C29.0596 31.4023 30.8617 29.3246 32.4007 27.2816" stroke="#D4FF27" stroke-width="2" stroke-linecap="round" stroke-linejoin="round"></path>
  <path d="M32.4007 27.2817C37.7392 34.3681 39.913 41.037 37.2779 43.6721C33.8833 47.0667 23.7933 42.4801 14.7412 33.428C5.68905 24.3759 1.10267 14.2859 4.49723 10.8913C7.13213 8.2564 13.8012 10.4301 20.8876 15.7685" stroke="#D4FF27" stroke-width="2" stroke-linecap="round" stroke-linejoin="round"></path>
  <path d="M27.2842 13.4209C26.2842 13.2469 26.2842 11.8112 27.2842 11.6373C30.9073 11.0069 33.7888 8.24736 34.5752 4.65494L34.6357 4.37957C34.8518 3.39118 36.2593 3.38503 36.4844 4.37149L36.5576 4.6924C37.3729 8.26786 40.2553 11.0041 43.8683 11.6327C44.8737 11.8076 44.8737 13.2505 43.8683 13.4254C40.2553 14.054 37.3729 16.7903 36.5576 20.3658L36.4844 20.6867C36.2593 21.6731 34.8518 21.667 34.6357 20.6786L34.5752 20.4032C33.7888 16.8108 30.9073 14.0512 27.2842 13.4209Z" stroke="#D4FF27" stroke-width="2" stroke-linecap="round" stroke-linejoin="round"></path>
</svg>
