<?xml version="1.0" encoding="UTF-8"?>
<svg xmlns="http://www.w3.org/2000/svg" width="11" height="12" viewBox="0 0 11 12" fill="none">
  <path d="M5.75 0.375C5.95833 0.375 6.13542 0.447917 6.28125 0.59375C6.42708 0.739583 6.5 0.916667 6.5 1.125V9.0625L9.71875 5.84375C9.86458 5.69792 10.0417 5.625 10.25 5.625C10.4583 5.625 10.6354 5.69792 10.7812 5.84375C10.9271 5.98958 11 6.16667 11 6.375C11 6.58333 10.9271 6.76042 10.7812 6.90625L6.28125 11.4062C6.13542 11.5521 5.95833 11.625 5.75 11.625C5.54167 11.625 5.36458 11.5521 5.21875 11.4062L0.71875 6.90625C0.572917 6.76042 0.5 6.58333 0.5 6.375C0.5 6.16667 0.572917 5.98958 0.71875 5.84375C0.864583 5.69792 1.04167 5.625 1.25 5.625C1.45833 5.625 1.63542 5.69792 1.78125 5.84375L5 9.0625V1.125C5 0.916667 5.07292 0.739583 5.21875 0.59375C5.36458 0.447917 5.54167 0.375 5.75 0.375Z" fill="black"></path>
</svg>
