<?xml version="1.0" encoding="UTF-8"?>
<svg xmlns="http://www.w3.org/2000/svg" width="147" height="42" viewBox="0 0 147 42" fill="none">
  <g clip-path="url(#clip0_9814_11864)">
    <path d="M32.0685 40.7409C31.4611 41.0767 30.786 41.2096 30.1276 41.3761C28.3551 41.8239 26.548 41.9456 24.7369 41.7805C21.1159 41.4517 17.8981 40.0972 15.1165 37.7157C12.7683 35.7079 11.1145 33.213 10.0612 30.2901C7.06288 21.9745 4.05348 13.6617 1.04822 5.34614C0.894531 4.91985 1.01831 4.63161 1.41956 4.48142C4.5463 3.31867 7.67442 2.15452 10.8039 0.99736C11.3271 0.804268 11.3423 0.696528 11.588 1.38075C12.68 4.42825 13.7857 7.47156 14.8873 10.5163C14.9632 10.7248 15.0488 10.929 15.1303 11.1361C15.3912 11.1039 15.532 10.9178 15.7018 10.7863C17.0753 9.71311 18.5773 8.87218 20.1979 8.24953C20.2587 8.22574 20.3263 8.22434 20.3912 8.21175C20.3884 8.43702 20.4423 8.64691 20.521 8.85959C21.0966 10.4197 21.6612 11.984 22.2286 13.5484C22.6607 14.7363 23.0941 15.9243 23.5193 17.1136C23.7278 17.6971 23.9196 18.2875 24.1184 18.8738C24.019 19.0081 23.8575 19.0333 23.7209 19.0963C20.8343 20.4298 19.3324 24.1125 20.9958 27.2552C22.0712 29.2882 23.7926 30.3418 26.0773 30.4356C26.8131 30.465 27.5199 30.3097 28.2239 30.125C28.4296 30.7126 28.6311 31.3031 28.8437 31.8894C29.4332 33.5237 30.0254 35.158 30.6204 36.7909C31.1008 38.1089 31.5867 39.4256 32.0699 40.7423L32.0685 40.7409Z" fill="#05A8E6"></path>
    <path d="M24.1102 18.8736C23.9114 18.286 23.7195 17.6969 23.511 17.1134C23.0859 15.9227 22.651 14.7361 22.2203 13.5482C21.6529 11.9853 21.0869 10.4209 20.5127 8.85941C20.434 8.64673 20.3802 8.43685 20.3829 8.21157C21.4887 7.73864 22.6524 7.47978 23.8327 7.31747C27.201 6.85293 30.4492 7.32027 33.5042 8.83283C38.5884 11.35 41.7607 15.4428 42.941 21.0536C44.6031 28.9564 40.4354 37.3266 32.6869 40.5364C32.4854 40.6203 32.2935 40.7421 32.063 40.7421C31.5798 39.4254 31.0939 38.1087 30.6135 36.7907C30.0185 35.1578 29.4263 33.5249 28.8368 31.8892C28.6256 31.3029 28.4241 30.7125 28.217 30.1248C28.413 30.0254 28.6077 29.9261 28.8037 29.8282C31.4556 28.4919 32.7118 25.3255 31.7123 22.5004C30.6825 19.59 27.6552 17.9683 24.6886 18.7393C24.4981 18.7883 24.3048 18.8303 24.1129 18.8764L24.1102 18.8736Z" fill="#004B90"></path>
    <path d="M67.7793 24.4314C68.1368 24.6077 68.4171 24.7351 68.6876 24.8806C69.8362 25.5018 70.7252 26.3833 71.2097 27.6203C71.802 29.1328 71.8392 30.6762 71.2829 32.2111C70.826 33.469 69.9356 34.3435 68.7967 34.9788C67.9767 35.4363 67.0905 35.7092 66.1766 35.8897C65.2655 36.0688 64.3433 36.1695 63.4129 36.1695C59.7699 36.1695 56.1255 36.1695 52.4824 36.1709C52.3941 36.1709 52.3057 36.1723 52.2174 36.1667C51.9675 36.1513 51.9234 36.1065 51.9109 35.8365C51.904 35.6798 51.9068 35.5231 51.9068 35.3663C51.9068 28.3828 51.9068 21.3993 51.9068 14.4158C51.9068 14.2143 51.9123 14.0142 51.9275 13.8127C51.9344 13.7162 52.002 13.649 52.0987 13.642C52.2519 13.6294 52.4065 13.6238 52.5611 13.6238C55.917 13.6238 59.2743 13.6154 62.6302 13.628C63.983 13.6336 65.3166 13.8071 66.6004 14.2675C67.292 14.5151 67.9381 14.8468 68.522 15.3001C69.509 16.0655 70.1634 17.0477 70.3856 18.293C70.641 19.7202 70.5112 21.1013 69.7879 22.3872C69.422 23.0378 68.9485 23.5919 68.3425 24.0243C68.1824 24.139 68.0209 24.2537 67.7765 24.43L67.7793 24.4314ZM60.0681 32.8575C60.0681 32.8505 60.0681 32.8435 60.0681 32.8352C61.1945 32.8352 62.3196 32.8338 63.446 32.8352C63.9126 32.8352 64.3696 32.7526 64.8224 32.6533C65.387 32.5287 65.9198 32.3188 66.3933 31.9704C67.0201 31.5073 67.3583 30.8776 67.4383 30.1053C67.4659 29.8394 67.4659 29.568 67.4494 29.3007C67.3886 28.3381 66.9483 27.6021 66.1269 27.1081C65.7638 26.8899 65.3732 26.7373 64.9632 26.638C64.1653 26.4463 63.3522 26.3777 62.5336 26.3777C60.5899 26.3777 58.6476 26.3777 56.7039 26.3777C56.5935 26.3777 56.483 26.3749 56.3726 26.3805C56.1006 26.3945 56.0578 26.4351 56.0413 26.687C56.0371 26.7541 56.0371 26.8213 56.0371 26.8885C56.0371 28.7019 56.0371 30.5138 56.0371 32.3272C56.0371 32.4392 56.0426 32.5511 56.0551 32.6616C56.0675 32.7582 56.131 32.8254 56.2262 32.8338C56.4016 32.8477 56.5783 32.8547 56.7536 32.8561C57.8579 32.8575 58.9623 32.8561 60.0653 32.8561L60.0681 32.8575ZM59.607 16.9512V16.9442C58.6586 16.9442 57.7089 16.9442 56.7605 16.9442C56.5838 16.9442 56.4085 16.9498 56.2318 16.9624C56.1365 16.9694 56.0661 17.0281 56.0565 17.1275C56.0426 17.2604 56.0371 17.3947 56.0371 17.5291C56.0371 19.2067 56.0371 20.8844 56.0371 22.5607C56.0371 22.6502 56.0371 22.7398 56.0413 22.8293C56.0551 23.0532 56.1089 23.1162 56.3077 23.1301C56.4181 23.1385 56.5286 23.1357 56.639 23.1357C58.3825 23.1357 60.1247 23.1315 61.8682 23.1385C62.401 23.1413 62.9256 23.0756 63.4474 22.993C63.9499 22.9147 64.4303 22.7482 64.8845 22.5089C65.8674 21.994 66.3284 21.1475 66.3395 20.0589C66.3505 18.9717 65.9005 18.1139 64.9356 17.5752C64.665 17.4241 64.3834 17.2996 64.0824 17.217C63.5054 17.0589 62.9215 16.9512 62.321 16.9512C61.4168 16.9512 60.5112 16.9512 59.607 16.9512Z" fill="#05A8E6"></path>
    <path d="M73.8364 24.9028C73.8364 21.3908 73.8364 17.8787 73.8364 14.3667C73.8364 13.5733 73.7936 13.6237 74.5377 13.6237C75.4198 13.6237 76.3033 13.6237 77.1854 13.6237C77.3179 13.6237 77.4504 13.6279 77.5816 13.6349C77.7086 13.6419 77.7886 13.716 77.7983 13.8406C77.8121 14.0183 77.8107 14.1974 77.8107 14.3765C77.8107 16.3452 77.8107 18.3139 77.8107 20.2812C77.8107 20.4379 77.8135 20.5946 77.8342 20.7485C77.8425 20.8087 77.9101 20.8647 77.9819 20.8241C78.0578 20.7821 78.1282 20.7261 78.1917 20.6674C79.39 19.5494 80.8077 18.9645 82.4242 18.8176C84.1346 18.6623 85.776 18.9071 87.3152 19.6781C89.7144 20.8801 91.1404 22.8725 91.6636 25.5031C92.017 27.2815 91.9646 29.0711 91.3516 30.7977C90.2031 34.0341 87.8881 35.8167 84.5612 36.3107C83.4554 36.4744 82.3621 36.424 81.2743 36.1791C80.0388 35.9021 78.9538 35.3396 78.0496 34.4343C77.9722 34.356 77.8894 34.279 77.7969 34.2216C77.7403 34.1853 77.6616 34.216 77.6603 34.2972C77.6506 34.7435 77.6492 35.1913 77.6423 35.6376C77.6354 36.1582 77.634 36.1652 77.1302 36.1666C76.2039 36.1707 75.2762 36.1679 74.3499 36.1666C74.2395 36.1666 74.129 36.161 74.0214 36.147C73.9247 36.1344 73.8599 36.0714 73.8543 35.9707C73.8433 35.7706 73.8378 35.5691 73.8378 35.3676C73.8378 31.8779 73.8378 28.3883 73.8378 24.8986L73.8364 24.9028ZM82.848 22.2065C80.6103 22.1925 78.7922 23.4672 78.0758 25.5604C77.8121 26.3314 77.7514 27.1304 77.7804 27.9419C77.8632 30.308 79.3707 32.4796 81.9921 32.877C84.5943 33.2716 86.9052 31.8374 87.5913 29.295C87.8149 28.468 87.8301 27.6257 87.7611 26.7694C87.5733 24.4271 85.7428 22.2065 82.8466 22.2065H82.848Z" fill="#05A8E6"></path>
    <path d="M111.628 27.4282C111.609 29.1437 111.301 30.6366 110.529 32.0149C109.603 33.6702 108.278 34.8903 106.548 35.6011C103.729 36.761 100.898 36.7498 98.1507 35.3786C95.6217 34.1165 94.1515 32.0051 93.6697 29.1968C93.424 27.7668 93.482 26.3424 93.8879 24.9474C94.6361 22.384 96.2595 20.5944 98.667 19.5436C100.195 18.8762 101.801 18.6775 103.459 18.816C105.05 18.9489 106.537 19.3911 107.871 20.2894C110.13 21.8145 111.345 23.9707 111.576 26.7048C111.601 26.9945 111.617 27.2841 111.627 27.4268L111.628 27.4282ZM107.601 27.4338C107.618 27.1176 107.564 26.6293 107.458 26.1465C107.182 24.8942 106.552 23.8742 105.52 23.1228C104.484 22.3686 103.311 22.1252 102.066 22.2273C99.516 22.4386 98.1328 24.3178 97.7573 25.9101C97.5171 26.9301 97.4729 27.9473 97.6938 28.9688C98.0693 30.7108 99.0604 31.9589 100.709 32.6109C101.81 33.0475 102.951 33.0531 104.089 32.7257C105.103 32.4346 105.919 31.8526 106.555 31.0088C107.31 30.007 107.597 28.8554 107.603 27.4352L107.601 27.4338Z" fill="#05A8E6"></path>
    <path d="M146.689 18.9759C146.532 19.3523 146.33 19.5607 146.159 19.786C144.403 22.1157 142.641 24.4412 140.88 26.7667C140.376 27.4328 140.391 27.3418 140.891 28.005C142.715 30.4229 144.541 32.8407 146.365 35.2572C146.512 35.4531 146.661 35.6476 146.806 35.8449C146.857 35.9134 146.924 35.9834 146.895 36.0813C146.859 36.2003 146.75 36.1667 146.672 36.1667C145.767 36.1709 144.861 36.1709 143.956 36.1709C143.624 36.1709 143.293 36.1583 142.962 36.1751C142.67 36.1905 142.474 36.0953 142.296 35.8449C141.587 34.8458 140.855 33.8636 140.132 32.8743C139.592 32.1369 139.054 31.3996 138.513 30.6636C138.448 30.574 138.376 30.4873 138.297 30.4117C138.249 30.3655 138.17 30.3529 138.119 30.4061C138.013 30.518 137.909 30.6356 137.818 30.7601C136.656 32.3384 135.499 33.9209 134.334 35.4965C133.722 36.3234 133.971 36.1569 133.047 36.1667C131.965 36.1779 130.883 36.1695 129.8 36.1667C129.722 36.1667 129.614 36.2017 129.578 36.0855C129.548 35.989 129.611 35.9162 129.664 35.8463C130.133 35.2236 130.603 34.6024 131.073 33.9811C132.607 31.9578 134.141 29.936 135.674 27.9127C135.754 27.8063 135.834 27.6986 135.908 27.5867C135.977 27.4831 135.97 27.3768 135.895 27.276C135.644 26.936 135.394 26.5932 135.141 26.2546C133.529 24.0956 131.914 21.938 130.302 19.779C130.208 19.6545 130.11 19.5328 130.024 19.4026C129.955 19.2977 129.82 19.1997 129.904 19.0514C129.967 18.9395 130.1 18.9885 130.204 18.9759C130.226 18.9731 130.248 18.9759 130.27 18.9759C131.418 18.9759 132.567 18.9843 133.715 18.9689C134.036 18.9647 134.236 19.0766 134.428 19.3383C135.582 20.9222 136.754 22.4935 137.92 24.069C138.025 24.2117 138.111 24.3713 138.283 24.4762C138.503 24.3992 138.597 24.1838 138.724 24.0117C139.812 22.5453 140.887 21.0677 141.98 19.6055C142.557 18.8331 142.306 18.9857 143.221 18.9759C144.149 18.9661 145.077 18.9731 146.004 18.9731H146.688L146.689 18.9759Z" fill="#05A8E6"></path>
    <path d="M119.947 24.478C120.159 24.4193 120.227 24.2416 120.329 24.1044C121.469 22.5653 122.605 21.0248 123.742 19.4842C123.808 19.3947 123.875 19.3051 123.938 19.2142C124.045 19.056 124.182 18.9651 124.381 18.9777C124.513 18.9861 124.646 18.9777 124.778 18.9777C125.794 18.9777 126.809 18.9777 127.825 18.9777C127.935 18.9777 128.044 18.9847 128.155 18.9945C128.242 19.0015 128.3 19.1162 128.252 19.1932C128.169 19.3247 128.082 19.4534 127.988 19.5766C126.163 21.993 124.337 24.4067 122.512 26.8231C122.035 27.4528 122.037 27.3073 122.512 27.9369C124.428 30.4793 126.346 33.0203 128.264 35.5613C128.383 35.7194 128.528 35.8607 128.586 36.0482C128.532 36.2105 128.406 36.1699 128.307 36.1699C127.114 36.1727 125.923 36.1587 124.73 36.1797C124.36 36.1867 124.125 36.0664 123.906 35.7614C122.764 34.169 121.602 32.5907 120.442 31.011C120.274 30.7815 120.136 30.5213 119.891 30.3562C119.647 30.4807 119.535 30.7074 119.393 30.8991C118.214 32.4928 117.039 34.0879 115.865 35.683C115.798 35.7726 115.732 35.8621 115.67 35.9545C115.56 36.1168 115.409 36.1839 115.217 36.1713C115.085 36.1629 114.952 36.1713 114.82 36.1713C113.848 36.1713 112.877 36.1713 111.906 36.1713C111.729 36.1713 111.552 36.1713 111.375 36.1643C111.243 36.1587 111.203 36.051 111.284 35.9293C111.346 35.8369 111.415 35.7502 111.483 35.6606C113.337 33.2106 115.191 30.7605 117.045 28.3105C117.206 28.0978 117.371 27.8879 117.528 27.6711C117.69 27.4486 117.692 27.4346 117.523 27.2037C116.952 26.4341 116.377 25.6702 115.804 24.902C114.446 23.0816 113.087 21.2626 111.73 19.4422C111.64 19.3219 111.533 19.21 111.505 19.0742C111.62 18.9441 111.734 18.9763 111.838 18.9763C113.031 18.9735 114.222 18.9833 115.415 18.9679C115.711 18.9637 115.902 19.0644 116.077 19.3037C117.208 20.8499 118.349 22.3862 119.488 23.9253C119.632 24.1198 119.755 24.3353 119.947 24.4752V24.478Z" fill="#05A8E6"></path>
  </g>
  <defs>
    <clipPath id="clip0_9814_11864">
      <rect width="146" height="41" fill="white" transform="translate(0.898438 0.851562)"></rect>
    </clipPath>
  </defs>
</svg>
