<?xml version="1.0" encoding="UTF-8"?>
<svg xmlns="http://www.w3.org/2000/svg" width="131" height="41" viewBox="0 0 131 41" fill="none">
  <g clip-path="url(#clip0_9814_5792)">
    <path fill-rule="evenodd" clip-rule="evenodd" d="M24.2014 0.116211H0.328125V18.8872H24.2014C26.7626 18.8872 29.2189 17.8983 31.0299 16.1382C32.841 14.3781 33.8584 11.9909 33.8584 9.50171C33.8581 7.01259 32.8406 4.62553 31.0296 2.86546C29.2187 1.1054 26.7626 0.116489 24.2014 0.116211Z" fill="#FF0000"></path>
    <path fill-rule="evenodd" clip-rule="evenodd" d="M0.328126 32.1137C0.327559 33.2588 0.559121 34.3928 1.00959 35.451C1.46006 36.5091 2.1206 37.4706 2.95349 38.2806C3.78638 39.0905 4.77529 39.733 5.86375 40.1716C6.9522 40.61 8.11889 40.8357 9.29713 40.8359H12.9689V22.0596H0.328126V32.1137Z" fill="#FF0000"></path>
    <path d="M24.378 40.8306C29.6177 40.8306 33.8653 36.6286 33.8653 31.4451C33.8653 26.2617 29.6177 22.0596 24.378 22.0596C19.1383 22.0596 14.8906 26.2617 14.8906 31.4451C14.8906 36.6286 19.1383 40.8306 24.378 40.8306Z" fill="#FF0000"></path>
    <path d="M47.3828 7.94336H56.84C61.5151 7.94336 64.7517 10.4949 64.7517 14.6188C64.7517 17.4149 63.0238 19.4763 61.2959 20.1408C63.3099 20.7002 65.6156 22.5873 65.6156 25.9776C65.6156 30.136 62.0917 32.7569 57.1294 32.7569H47.3828V7.94336ZM52.1293 11.9969V18.2882H56.4803C58.7105 18.2882 59.9362 16.7851 59.9362 15.0029C59.9362 13.3604 58.6403 11.9969 56.3723 11.9969H52.1293ZM57.0916 28.7033C59.2137 28.7033 60.6879 27.2003 60.6879 25.3131C60.6879 23.4952 58.9599 22.0278 56.692 22.0278H52.126V28.7033H57.0916Z" fill="#202020"></path>
    <path d="M77.3837 14.5137C82.5979 14.5137 86.0133 18.0434 86.0133 22.7613C85.9978 23.5038 85.9015 24.2427 85.7265 24.9655H72.8535C73.1403 27.7616 75.5531 29.229 78.2462 29.229C79.1477 29.2376 80.0414 29.0647 80.8707 28.7215C81.6999 28.3783 82.447 27.8721 83.0653 27.2347L85.6571 30.2408C83.4271 32.3032 81.013 33.1797 78.033 33.1797C71.9917 33.1797 68 29.1251 68 23.8834C68 18.6417 71.9181 14.5137 77.3837 14.5137ZM72.8535 21.8881H81.4478V21.8524C81.2672 19.686 79.5414 18.3236 77.344 18.3236C75.0467 18.3236 73.2126 19.6514 72.8535 21.8881Z" fill="#202020"></path>
    <path d="M90.024 14.9345V10.0801H94.5541V14.9387H98.9051V18.5723H94.5541V26.5063C94.5541 28.2906 95.4535 29.0924 97.107 29.0924C97.6474 29.0924 98.546 29.0232 99.3753 28.4983V32.4869C98.5475 32.9067 97.3974 33.1859 95.8869 33.1859C92.1471 33.1859 89.8809 31.0196 89.8809 27.1749V18.5682H87.2891V14.9345H90.024Z" fill="#202020"></path>
    <path d="M103.554 14.9345V10.0801H108.09V14.9387H112.441V18.5723H108.085V26.5063C108.085 28.2906 108.983 29.0924 110.638 29.0924C111.179 29.0924 112.076 29.0232 112.906 28.4983V32.4869C112.079 32.9067 110.927 33.1859 109.417 33.1859C105.678 33.1859 103.412 31.0196 103.412 27.1749V18.5682H100.82V14.9345H103.554Z" fill="#202020"></path>
    <path d="M117.874 26.8861C118.881 28.4238 120.319 29.51 122.26 29.51C123.988 29.51 125.03 28.8803 125.03 27.9724C125.03 26.8535 124.057 26.398 121.074 25.4208C117.335 24.2327 115.321 22.7296 115.321 19.8286C115.321 16.7532 118.413 14.5166 122.368 14.5166C125.392 14.5166 127.87 15.9146 129.058 18.0463L125.925 20.2505C125.169 19.0266 124.02 18.1513 122.293 18.1513C120.82 18.1513 119.702 18.8157 119.702 19.7939C119.702 20.7029 120.71 21.2266 123.514 22.208C127.002 23.4676 129.412 24.6221 129.412 27.8695C129.412 30.8745 126.495 33.1815 122.255 33.1815C118.983 33.1815 116.07 31.6785 114.703 29.1627L117.874 26.8861Z" fill="#202020"></path>
  </g>
  <defs>
    <clipPath id="clip0_9814_5792">
      <rect width="130.302" height="40.8574" fill="white" transform="translate(0.1875 0.109375)"></rect>
    </clipPath>
  </defs>
</svg>
