<?xml version="1.0" encoding="UTF-8"?>
<svg xmlns="http://www.w3.org/2000/svg" width="49" height="37" viewBox="0 0 49 37" fill="none">
  <g clip-path="url(#clip0_9814_5280)">
    <path d="M7.39062 12.3035V4.52734L15.0826 10.4059C17.7465 12.4684 18.2517 15.4705 18.1894 15.3954C16.4551 13.2675 14.1389 12.3337 12.5445 12.3087L7.39062 12.3035Z" fill="#FF9C6C"></path>
    <path d="M28.1149 13.9814H22.3594V34.5485H28.1149V13.9814Z" fill="#FF5A0A"></path>
    <path d="M38.2008 4.27246H32.4453V34.5494H38.2008V4.27246Z" fill="#FF5A0A"></path>
    <path d="M48.2946 4.27246H42.5391V34.5494H48.2946V4.27246Z" fill="#FF5A0A"></path>
    <path d="M12.4245 27.4435C12.4245 28.3596 11.6198 29.1116 10.7101 29.1116H5.79753V19.3222H10.7101C11.6255 19.3222 12.4245 20.0655 12.4245 20.9903V27.4435ZM5.83584 13.9882V4.28418H0.109375V34.5457H12.0931C15.4644 34.5457 18.1957 31.7135 18.1957 28.2176V20.3163C18.1957 16.8204 15.4644 13.9882 12.0931 13.9882H5.83584Z" fill="#FF5A0A"></path>
    <path d="M25.1975 11.0564C27.274 11.0564 28.9574 9.3939 28.9574 7.34313C28.9574 5.29236 27.274 3.62988 25.1975 3.62988C23.1209 3.62988 21.4375 5.29236 21.4375 7.34313C21.4375 9.3939 23.1209 11.0564 25.1975 11.0564Z" fill="#FF5A0A"></path>
  </g>
  <defs>
    <clipPath id="clip0_9814_5280">
      <rect width="48.5872" height="36.4404" fill="white" transform="translate(0.109375 0.317383)"></rect>
    </clipPath>
  </defs>
</svg>
