<svg xmlns="http://www.w3.org/2000/svg" xmlns:xlink="http://www.w3.org/1999/xlink" id="Layer_1" x="0px" y="0px" viewBox="0 0 479.83 549.49" style="enable-background:new 0 0 479.83 549.49;" xml:space="preserve"><style type="text/css">	.st0{fill:#0C003F;}</style><path class="st0" d="M479.83,549.49c-159.94,0-319.89,0-479.83,0C0,366.33,0,183.16,0,0c159.94,0,319.89,0,479.83,0  C479.83,183.16,479.83,366.33,479.83,549.49z M13.35,145.98c0,130.15,0,260.16,0,390.16c151.11,0,302.13,0,453.13,0  c0-130.11,0-260.12,0-390.16C315.4,145.98,164.42,145.98,13.35,145.98z M340.69,34.93c0,26.89,0,53.71,0,80.49  c-27.03,0-53.96,0-81.03,0c0-3.58,0-7.07,0-10.54c-2.05,0-3.95,0-5.83,0c0,5.54,0,10.96,0,16.44c30.96,0,61.85,0,92.81,0  c0-30.78,0-61.47,0-92.19c-31,0-61.91,0-92.81,0c0,5.49,0,10.87,0,16.29c1.97,0,3.87,0,5.91,0c0-3.55,0-6.98,0-10.49  C286.78,34.93,313.66,34.93,340.69,34.93z M141.46,57.88c0-4.17,0-8.19,0-12.2c-3.03,0-5.86,0-8.73,0c0,15.4,0,30.72,0,46.07  c0.24,0.04,0.41,0.1,0.58,0.1c7.51,0,15.02,0.07,22.52-0.03c4.1-0.06,7.39-3.35,7.48-7.55c0.14-6.21,0.16-12.44-0.01-18.65  c-0.13-4.75-3.43-7.71-8.16-7.74c-2.81-0.02-5.62,0-8.43,0C145.03,57.88,143.34,57.88,141.46,57.88z M294.84,91.79  c0-8.96,0.19-17.75-0.07-26.53c-0.15-4.98-2.98-7.28-8.01-7.37c-2.72-0.05-5.43-0.03-8.15,0c-2.67,0.02-5.35-0.06-8,0.18  c-3.04,0.27-5.1,1.98-5.88,5c-0.27,1.06-0.46,2.17-0.46,3.26c-0.04,8.01-0.02,16.02-0.02,24.03c0,0.45,0.04,0.9,0.06,1.4  c2.95,0,5.81,0,8.77,0c0-0.61,0-1.11,0-1.61c0-6.91,0-13.81,0-20.72c0-2.44,0.44-2.86,2.91-2.87c2.3,0,4.6,0,6.91,0  c2.71,0,3.17,0.47,3.17,3.25c0,6.81,0,13.63,0,20.44c0,0.49,0,0.99,0,1.56C289.04,91.79,291.87,91.79,294.84,91.79z M167.21,57.98  c0,0.95,0,1.78,0,2.6c0,7.74-0.03,15.48,0.01,23.22c0.03,5.12,2.71,7.93,7.81,8.03c5.29,0.1,10.59,0.08,15.89-0.06  c3.49-0.09,5.73-2.07,6.55-5.47c0.25-1.02,0.35-2.09,0.36-3.14c0.03-7.88,0.02-15.75,0.02-23.63c0-0.49,0-0.98,0-1.55  c-3.02,0-5.85,0-8.81,0c0,0.58,0,1.08,0,1.58c0,6.96,0.01,13.91,0,20.87c0,2.26-0.54,2.79-2.75,2.79c-2.4,0-4.79,0-7.19,0  c-2.58,0-3.04-0.46-3.05-3.06c-0.01-6.86,0-13.73,0-20.59c0-0.49,0-0.99,0-1.58C173.06,57.98,170.23,57.98,167.21,57.98z   M235.55,91.78c0-8.4,0-16.75,0-25.24c2.88,0,5.58,0,8.36,0c0-2.91,0-5.69,0-8.68c-2.8,0-5.54,0-8.4,0c0-4.18,0-8.17,0-12.19  c-2.97,0-5.8,0-8.71,0c0,15.39,0,30.7,0,46.11C229.71,91.78,232.54,91.78,235.55,91.78z M214.25,45.64c0,15.45,0,30.76,0,46.15  c2.9,0,5.73,0,8.63,0c0-15.42,0-30.77,0-46.15C219.98,45.64,217.18,45.64,214.25,45.64z M201.73,58.02c0,11.32,0,22.56,0,33.79  c2.95,0,5.77,0,8.62,0c0-11.32,0-22.52,0-33.79C207.43,58.02,204.6,58.02,201.73,58.02z M260.3,91.79c0-11.31,0-22.55,0-33.8  c-2.93,0-5.76,0-8.62,0c0,11.31,0,22.52,0,33.8C254.6,91.79,257.43,91.79,260.3,91.79z"></path><path class="st0" d="M187.59,454.86c0.4-3.26,0.8-6.52,1.19-9.78c1.35-11.1,2.7-22.2,4.04-33.3c0.14-1.19,0.23-2.39,0.45-3.56  c0.06-0.32,0.51-0.82,0.78-0.82c4.28-0.05,8.55-0.04,13.1-0.04c-4.01,26.58-8,53.02-12,79.49c-0.36,0.05-0.62,0.11-0.89,0.11  c-4.15,0.01-8.29-0.01-12.44,0.02c-0.8,0.01-1.22-0.12-1.35-1.07c-2-14.63-4.05-29.26-6.1-43.89c-0.06-0.45-0.2-0.88-0.46-1.31  c-2.15,15.37-4.3,30.75-6.46,46.18c-4.86,0-9.63,0-14.51,0c-4-26.47-7.99-52.88-11.99-79.42c4.69,0,9.31,0,14.14,0  c1.88,15.78,3.76,31.59,5.65,47.4c0.11,0,0.21,0,0.32-0.01c2.24-15.77,4.49-31.54,6.76-47.51c0.5,0,0.99,0,1.48,0  c3.36,0,6.73,0.04,10.09-0.02c1-0.02,1.29,0.3,1.43,1.3c2.08,15.18,4.22,30.35,6.34,45.52c0.03,0.25,0.14,0.48,0.22,0.73  C187.45,454.87,187.52,454.87,187.59,454.86z"></path><path class="st0" d="M342.1,486.73c-4.76,0-9.31-0.03-13.87,0.02c-0.95,0.01-1.01-0.61-1.19-1.19c-2.65-8.18-5.3-16.36-7.95-24.54  c-0.7-2.17-0.72-2.17-3.26-1.8c0,9.11,0,18.25,0,27.44c-4.67,0-9.16,0-13.74,0c0-26.43,0-52.79,0-79.22  c0.34-0.03,0.61-0.08,0.88-0.08c5.3,0.02,10.6-0.12,15.89,0.11c5.96,0.26,11.38,2.13,15.66,6.54c3.01,3.1,4.71,6.88,5.52,11.08  c1.08,5.58,1.11,11.16-0.26,16.71c-1.18,4.8-3.67,8.81-7.43,12c-0.68,0.58-0.8,1.03-0.52,1.85c3.24,9.68,6.44,19.37,9.65,29.06  C341.67,485.32,341.85,485.93,342.1,486.73z M315.92,420.34c0,8.75,0,17.43,0,26.08c4.05,0.72,8.17-1.55,9.75-5.43  c1.76-4.33,1.69-8.82,0.73-13.29C325.3,422.6,321.33,419.87,315.92,420.34z"></path><path class="st0" d="M194.96,195.12c7.24,0.24,14.41-0.58,21.45,1.14c5.84,1.43,10.82,4.11,13.88,9.58  c5.25,9.38,1.73,21.92-7.61,27.14c-0.43,0.24-0.86,0.5-1.46,0.86c0.81,0.42,1.47,0.77,2.13,1.12c8.65,4.58,10.91,11.19,10.04,19.85  c-1.04,10.36-7.92,17.38-18.8,19c-4.61,0.69-9.36,0.53-14.04,0.71c-1.83,0.07-3.67,0.01-5.59,0.01  C194.96,248.05,194.96,221.68,194.96,195.12z M208.52,261.78c4.18-0.07,7.81-1.14,9.82-4.92c2.14-4.01,2.08-8.22-0.41-12.08  c-2.14-3.32-5.57-4.23-9.42-4.25C208.52,247.64,208.52,254.61,208.52,261.78z M208.51,228.43c4.97,0.45,9.14-2.51,10.06-7.2  c0.31-1.56,0.39-3.21,0.28-4.79c-0.39-5.4-4.13-8.83-10.34-8.31C208.51,214.86,208.51,221.6,208.51,228.43z"></path><path class="st0" d="M409.69,486.68c-5.02,0-9.89,0-14.92,0c-2.87-9.97-5.75-19.97-8.62-29.98c-1.33,3.86-3.54,7.35-3.37,11.65  c0.21,5.56,0.05,11.14,0.05,16.72c0,0.5,0,1,0,1.58c-4.6,0-9.09,0-13.7,0c0-26.35,0-52.75,0-79.22c4.52,0,9.02,0,13.66,0  c0,11.09,0,22.16,0,33.22c0.08,0.01,0.17,0.03,0.25,0.04c0.16-0.41,0.34-0.81,0.48-1.22c3.45-10.24,6.91-20.47,10.31-30.72  c0.34-1.02,0.73-1.45,1.89-1.43c4.51,0.08,9.01,0.03,13.74,0.03c-0.75,1.95-1.43,3.74-2.13,5.51c-3.52,8.89-7.06,17.77-10.52,26.68  c-0.32,0.82-0.37,1.91-0.12,2.75c4.12,14.17,8.3,28.32,12.47,42.48C409.32,485.38,409.49,485.99,409.69,486.68z"></path><path class="st0" d="M273.35,447.04c0.07,7.8-0.36,15.55-2.5,23.11c-1.26,4.47-3.03,8.72-6.24,12.16c-7.65,8.21-19.88,7.25-26.32-2  c-3.47-5-5.18-10.67-6.02-16.58c-1.64-11.55-1.67-23.13,0.22-34.66c0.86-5.25,2.45-10.28,5.44-14.77  c7.41-11.11,21.99-10.85,29.03,0.52c2.91,4.7,4.53,9.88,5.23,15.3c0.71,5.6,1.03,11.26,1.52,16.89  C273.59,447.02,273.47,447.03,273.35,447.04z M259.69,447.05c-0.09-0.01-0.18-0.02-0.27-0.03c-0.14-4.23-0.2-8.46-0.46-12.69  c-0.24-3.95-0.64-7.89-2.17-11.61c-0.84-2.04-2.02-3.83-4.53-3.83c-2.45,0-3.59,1.75-4.49,3.71c-0.13,0.29-0.29,0.59-0.35,0.9  c-0.58,2.97-1.39,5.92-1.66,8.92c-0.87,9.78-0.9,19.59,0.03,29.36c0.32,3.39,1.24,6.76,2.21,10.05c0.56,1.9,1.99,3.33,4.27,3.33  c2.21,0,3.48-1.4,4.21-3.22s1.46-3.73,1.65-5.66C258.78,459.88,259.19,453.46,259.69,447.05z"></path><path class="st0" d="M219.32,380.26c-0.88-5.27-1.75-10.43-2.61-15.62c-4.24,0-8.37,0-12.61,0c-0.83,5.2-1.65,10.36-2.49,15.6  c-4.47,0-8.87,0-13.34,0c5.01-26.47,10.02-52.89,15.04-79.41c4.89,0,9.75,0,14.76,0c5,26.41,10.02,52.87,15.05,79.43  C228.46,380.26,223.96,380.26,219.32,380.26z M214.66,352.09c-1.37-8.53-2.72-16.97-4.07-25.42c-0.09,0-0.18,0-0.27,0  c-1.39,8.45-2.78,16.89-4.18,25.42C209.04,352.09,211.78,352.09,214.66,352.09z"></path><path class="st0" d="M85.27,355.5c0,8.24,0,16.43,0,24.73c-4.6,0-9.08,0-13.68,0c0-26.35,0-52.71,0-79.08  c0.15-0.05,0.28-0.13,0.41-0.13c5.48,0.08,10.98-0.17,16.42,0.31c11.18,0.97,18.73,8.33,20.46,19.47c1.01,6.5,0.88,12.96-1.37,19.22  c-3.09,8.56-9.46,13.19-18.19,14.87C88.01,355.13,86.68,355.28,85.27,355.5z M85.37,313.78c0,9.62,0,19.15,0,28.8  c3.82-0.26,6.6-1.91,8.34-5.18c2-3.77,2.12-7.85,1.8-11.97c-0.2-2.68-0.7-5.3-2.16-7.62C91.53,314.89,88.82,313.68,85.37,313.78z"></path><path class="st0" d="M261.23,195.21c10.12,0,20.11,0,30.27,0c0,0.96,0,1.87,0,2.78c0,2.81,0,5.62,0,8.43c0,1.89,0,1.89-1.83,1.89  c-4.33,0-8.66,0-12.99,0c-0.5,0-1,0-1.62,0c0,6.6,0,13.1,0,19.75c4.8,0,9.57,0,14.4,0c0,4.45,0,8.75,0,13.16c-4.83,0-9.56,0-14.4,0  c0,6.76,0,13.4,0,20.18c5.54,0,11.05,0,16.67,0c0,4.38,0,8.63,0,13.01c-10.12,0-20.26,0-30.5,0  C261.23,248.04,261.23,221.68,261.23,195.21z"></path><path class="st0" d="M318.19,301.05c10.1,0,20.08,0,30.16,0c0,4.31,0,8.57,0,13c-5.46,0-10.87,0-16.37,0c0,6.68,0,13.19,0,19.85  c4.85,0,9.61,0,14.44,0c0,4.41,0,8.67,0,13.1c-4.85,0-9.62,0-14.46,0c0,6.79,0,13.41,0,20.22c5.59,0,11.13,0,16.75,0  c0,4.45,0,8.71,0,13.04c-10.18,0-20.29,0-30.52,0C318.19,353.89,318.19,327.53,318.19,301.05z"></path><path class="st0" d="M406,316.9c-1.75-0.84-3.32-1.68-4.96-2.37c-2.33-0.98-4.77-1.45-7.29-0.91c-4.52,0.96-6.82,5.56-4.81,10.18  c0.97,2.24,2.49,4.29,4,6.23c3.08,3.95,6.42,7.71,9.49,11.67c3.09,3.99,5.67,8.29,6.47,13.41c0.95,6.14,0.44,12.08-3.15,17.36  c-4.66,6.84-11.39,9.09-19.35,8.29c-3.41-0.34-6.69-1.24-9.79-2.71c-0.43-0.2-0.93-0.8-0.94-1.22c-0.07-4.24-0.04-8.47-0.03-12.71  c0-0.12,0.07-0.24,0.13-0.45c1.75,0.89,3.39,1.95,5.18,2.58c2.1,0.74,4.31,1.46,6.5,1.58c5.5,0.3,8.75-3.55,7.97-9.03  c-0.37-2.58-1.47-4.88-3.07-6.85c-3.19-3.93-6.56-7.71-9.79-11.6c-3.19-3.84-6.13-7.87-7.29-12.85c-1.48-6.36-1.12-12.56,2.31-18.28  c3.22-5.36,8.18-8.1,14.3-8.7c4.5-0.44,8.91,0.19,13.11,1.97c0.4,0.17,0.95,0.61,0.96,0.94C406.02,307.87,406,312.32,406,316.9z"></path><path class="st0" d="M349.06,211.12c-1.71-0.84-3.21-1.64-4.76-2.3c-2.27-0.97-4.65-1.5-7.14-1.07c-4.72,0.82-7.18,5.4-5.21,10.17  c0.88,2.13,2.3,4.09,3.73,5.92c3.42,4.39,7.1,8.59,10.48,13.01c2.85,3.71,5.09,7.79,5.8,12.52c1.06,7.12,0.16,13.81-4.79,19.43  c-3.78,4.28-8.66,6.26-14.33,6.31c-4.63,0.04-9.05-0.9-13.24-2.87c-0.39-0.19-0.88-0.73-0.88-1.11c-0.06-4.37-0.04-8.74-0.04-13.35  c1.22,0.65,2.3,1.22,3.37,1.79c2.75,1.45,5.6,2.55,8.79,2.53c4.82-0.04,7.73-2.95,7.72-7.79c-0.01-3.09-1.28-5.77-3.12-8.1  c-2.77-3.5-5.84-6.76-8.61-10.25c-2.25-2.84-4.62-5.68-6.31-8.86c-4.12-7.75-4.25-15.76,0.05-23.49c3.15-5.66,8.38-8.38,14.72-8.93  c4.42-0.38,8.73,0.28,12.82,2.05c0.4,0.17,0.9,0.72,0.91,1.1C349.09,202.2,349.06,206.57,349.06,211.12z"></path><path class="st0" d="M289.33,365.26c0,4.25,0.02,8.48-0.04,12.71c-0.01,0.35-0.5,0.83-0.89,1.02c-6.28,3.11-17.26,3.36-23.74-5.03  c-3.4-4.41-5.33-9.47-6.3-14.85c-2.31-12.77-2.42-25.56,0.41-38.27c1.29-5.78,3.67-11.07,8.02-15.31c6.13-5.99,15.71-6.1,21.54-3.63  c0.31,0.13,0.73,0.53,0.73,0.81c0.05,4.5,0.03,8.99,0.03,13.66c-1.1-0.54-2.03-1.02-2.98-1.44c-2.2-0.99-4.51-1.36-6.87-0.78  c-3.31,0.82-4.9,3.4-6.03,6.32c-1.55,4-2.05,8.22-2.21,12.46c-0.29,7.55-0.53,15.11,0.75,22.6c0.38,2.25,1,4.51,1.89,6.6  c1.85,4.37,5.48,6.16,10.1,5.08C285.57,366.76,287.34,365.96,289.33,365.26z"></path><path class="st0" d="M408.36,195.25c0,2.06,0,4.07,0,6.08c0,1.93-0.04,3.87,0.01,5.8c0.02,0.9-0.28,1.21-1.19,1.19  c-2.3-0.05-4.6-0.02-6.91-0.02c-0.5,0-1,0-1.66,0c0,22.11,0,44.09,0,66.15c-4.66,0-9.15,0-13.81,0c0-22.02,0-43.99,0-66.14  c-3.31,0-6.46,0-9.67,0c0-4.43,0-8.7,0-13.06C386.17,195.25,397.18,195.25,408.36,195.25z"></path><path class="st0" d="M137.03,301.05c4.56,0,9.02,0,13.65,0c0,22.03,0,44.01,0,66.15c4.94,0,9.71,0,14.57,0c0,4.42,0,8.68,0,13.04  c-9.37,0-18.74,0-28.22,0C137.03,353.89,137.03,327.54,137.03,301.05z"></path><path class="st0" d="M104.88,231.1c1.6,0,2.96,0,4.47,0c0-4.47,0-8.88,0-13.4c2.46,0,4.78,0,7.23,0c0,11.37,0,22.76,0,34.26  c-2.31,0-4.67,0-7.17,0c0-4.53,0-9.02,0-13.62c-1.52,0-2.91,0-4.48,0c0,4.55,0,9.08,0,13.67c-2.51,0-4.84,0-7.27,0  c0-11.42,0-22.81,0-34.31c2.35,0,4.72,0,7.22,0C104.88,222.13,104.88,226.54,104.88,231.1z"></path><path class="st0" d="M115.52,446.56c0.16,3.75-0.06,7.46-1.4,11.01c-2.06,5.48-6.98,7.85-11.85,5.72c-2.55-1.11-4.02-3.22-4.87-5.72  c-0.63-1.86-1.14-3.81-1.3-5.76c-0.4-4.82-0.61-9.67,0.71-14.4c0.44-1.57,1.1-3.15,2-4.5c3.37-5.07,10.58-4.99,13.95,0.08  c1.9,2.85,2.5,6.1,2.74,9.43C115.61,443.79,115.52,445.18,115.52,446.56z M102.95,447.39c0.26,2.6,0.46,5.17,0.82,7.71  c0.15,1.09,0.61,2.27,2.01,2.26c1.4-0.02,1.66-1.24,2-2.3c0.03-0.09,0.03-0.18,0.05-0.27c0.76-5.41,0.79-10.83,0-16.23  c-0.18-1.2-0.36-2.58-2.02-2.71c-1.11-0.09-1.92,0.82-2.14,2.76C103.32,441.52,103.18,444.46,102.95,447.39z"></path><path class="st0" d="M129.14,217.66c4.9,0,9.72,0,14.66,0c0,2.26,0,4.48,0,6.89c-2.46,0-4.88,0-7.37,0c0,2.32,0,4.46,0,6.75  c2.21,0,4.35,0,6.57,0c0,2.34,0,4.53,0,6.88c-2.21,0-4.35,0-6.57,0c0,2.31,0,4.46,0,6.79c2.46,0,4.92,0,7.49,0c0,2.41,0,4.64,0,6.99  c-4.85,0-9.75,0-14.77,0C129.14,240.6,129.14,229.21,129.14,217.66z"></path><path class="st0" d="M144.22,194.68c0,1.43,0,2.75,0,4.17c-24.66,0-49.26,0-73.97,0c0-1.38,0-2.73,0-4.17  C94.87,194.68,119.48,194.68,144.22,194.68z"></path><path class="st0" d="M74.25,224.68c-1.62,0-2.99,0-4.47,0c0-2.37,0-4.64,0-7c5.39,0,10.78,0,16.27,0c0,2.3,0,4.53,0,6.95  c-1.49,0-2.93,0-4.5,0c0,9.23,0,18.27,0,27.37c-2.48,0-4.81,0-7.29,0C74.25,242.96,74.25,233.92,74.25,224.68z"></path><path class="st0" d="M70.22,274.7c0-1.39,0-2.7,0-4.09c24.68,0,49.28,0,73.97,0c0,1.36,0,2.67,0,4.09  C119.58,274.7,94.98,274.7,70.22,274.7z"></path><path class="st0" d="M74.6,463.3c0-8.89,0-17.67,0-26.58c-1.46,0-2.82,0-4.29,0c0-2.31,0-4.49,0-6.8c5.2,0,10.46,0,15.81,0  c0,2.18,0,4.37,0,6.68c-1.38,0-2.74,0-4.24,0c0,8.94,0,17.76,0,26.69C79.42,463.3,77.11,463.3,74.6,463.3z"></path><path class="st0" d="M115.4,482.16c0,1.4,0,2.72,0,4.16c-15.16,0-30.33,0-45.61,0c0-1.32,0-2.71,0-4.16  C84.98,482.16,100.15,482.16,115.4,482.16z"></path><path class="st0" d="M115.4,406.32c0,1.41,0,2.72,0,4.12c-15.24,0-30.41,0-45.66,0c0-1.36,0-2.68,0-4.12  C84.91,406.32,100.07,406.32,115.4,406.32z"></path><path class="st0" d="M141.49,83.2c0-1.1,0-2.05,0-3.01c0-3.73-0.01-7.45,0.01-11.18c0.01-1.77,0.64-2.43,2.41-2.45  c2.81-0.04,5.61-0.04,8.42,0c1.54,0.02,2.19,0.68,2.21,2.21c0.03,4.05,0.03,8.1,0,12.14c-0.01,1.49-0.73,2.26-2.18,2.27  C148.81,83.23,145.27,83.2,141.49,83.2z"></path></svg>