<?xml version="1.0" encoding="UTF-8"?>
<svg xmlns="http://www.w3.org/2000/svg" width="41" height="41" viewBox="0 0 41 41" fill="none">
  <path d="M8.25059 31.7903C8.60038 30.7412 9.58234 30.0334 10.6884 30.0334H30.1115C31.2174 30.0334 32.1994 30.7412 32.5493 31.7903L34.5332 37.7424H6.2666L8.25059 31.7903Z" stroke="#D4FF27" stroke-width="2" stroke-linecap="round" stroke-linejoin="round"></path>
  <path d="M11.3055 30.0334C11.7268 27.8331 14.7697 25.3051 16.9233 23.6197C22.0826 19.5822 21.6046 16.1293 20.7619 15.193L15.6056 18.1394C14.3801 18.8396 12.8438 18.6749 11.7947 17.7307C10.6384 16.69 10.3752 14.9788 11.1651 13.6386L15.0505 7.04724L13.5524 3.67659C16.018 2.80272 22.8407 3.26481 25.5372 5.3621C28.9079 7.98372 33.2148 11.9631 29.6568 30.0334" stroke="#D4FF27" stroke-width="2" stroke-linecap="round" stroke-linejoin="round"></path>
  <path d="M22.451 12.4663C22.1523 13.7606 21.4235 14.6579 20.7759 15.1966" stroke="#D4FF27" stroke-width="2" stroke-linecap="round" stroke-linejoin="round"></path>
</svg>
