<?xml version="1.0" encoding="UTF-8"?>
<svg xmlns="http://www.w3.org/2000/svg" width="200" height="49" viewBox="0 0 200 49" fill="none">
  <path d="M60.631 46.1796L60.0656 44.6009H57.0348L56.4663 46.1796H55.9375L58.3283 39.6818H58.7712L61.1584 46.1796H60.631ZM57.1911 44.1639H59.9094L58.5487 40.3384L57.1911 44.1639ZM64.9519 46.1796V43.4502C64.9519 42.6014 64.5325 42.1362 63.7396 42.1362C62.9453 42.1362 62.4961 42.6113 62.4961 43.4502V46.1796H62.0297V41.7802H62.4961V42.3011C62.8226 41.9163 63.2517 41.7267 63.7929 41.7267C64.2765 41.7267 64.6674 41.8628 64.96 42.1441C65.2598 42.4355 65.4175 42.8483 65.4175 43.3696V46.1796H64.9519ZM69.6625 46.1796V39.6838H73.6048V40.1213H70.1554V42.6865H73.0933V43.1235H70.1554V45.7414H73.6048V46.1796H69.6625ZM77.2631 46.1796L76.1048 44.3287L74.9275 46.1796H74.3611L75.8484 43.9364L74.4263 41.7818H74.9921L76.105 43.5531L77.2005 41.7818H77.7665L76.3426 43.9364L77.8305 46.1796H77.2631ZM78.7304 44.0817C78.7304 45.2034 79.2233 45.8165 80.163 45.8165C80.6827 45.8165 81.0021 45.6605 81.3753 45.2861L81.7229 45.5603C81.2761 46.0077 80.866 46.2351 80.1361 46.2351C78.9211 46.2351 78.2641 45.4511 78.2641 43.9808C78.2641 42.5585 78.9213 41.7277 80.0247 41.7277C81.1295 41.7277 81.7867 42.5212 81.7867 43.8716V44.0817H78.7304ZM81.1661 42.8776C80.9752 42.4116 80.5365 42.1392 80.0249 42.1392C79.5145 42.1392 79.0945 42.422 78.8849 42.8776C78.7664 43.1419 78.7579 43.2873 78.7306 43.708H81.3219C81.2945 43.2873 81.285 43.1417 81.1661 42.8776ZM83.8729 46.1796C83.1525 46.1796 82.8137 45.7331 82.8137 45.0396V39.6838H83.2803V45.0309C83.2803 45.5321 83.4342 45.7693 83.9545 45.7693H84.2741V46.1794H83.8729V46.1796ZM87.7468 45.7521C87.4274 46.0713 87.0171 46.2351 86.5233 46.2351C86.0314 46.2351 85.6211 46.0713 85.3011 45.7521C84.8361 45.2861 84.7531 44.6129 84.7531 43.9808C84.7531 43.3522 84.8361 42.6767 85.3011 42.2111C85.6211 41.8936 86.0312 41.7277 86.5233 41.7277C87.0171 41.7277 87.4274 41.8934 87.7468 42.2111C88.2118 42.6767 88.2942 43.3524 88.2942 43.9808C88.2942 44.6129 88.2118 45.2861 87.7468 45.7521ZM87.4369 42.5141C87.1897 42.2668 86.8802 42.139 86.5233 42.139C86.1673 42.139 85.8572 42.2668 85.6112 42.5141C85.246 42.8776 85.2199 43.4714 85.2199 43.9808C85.2199 44.4922 85.246 45.0848 85.6112 45.4511C85.8574 45.6972 86.1673 45.8246 86.5233 45.8246C86.8802 45.8246 87.1897 45.6972 87.4369 45.4511C87.8009 45.0848 87.8286 44.4924 87.8286 43.9808C87.8286 43.4712 87.8009 42.8776 87.4369 42.5141ZM92.3113 46.1796V43.4526C92.3113 42.6038 91.8923 42.139 91.0976 42.139C90.3039 42.139 89.8565 42.6129 89.8565 43.4526V46.1796H89.3909V41.7818H89.8565V42.3027C90.1844 41.9193 90.6142 41.7275 91.1527 41.7275C91.6361 41.7275 92.0286 41.8648 92.32 42.1471C92.6214 42.4386 92.7751 42.8501 92.7751 43.371V46.1794H92.3113V46.1796ZM99.0208 46.2588C98.3735 46.2588 97.8229 46.0235 97.4429 45.6362C96.8404 45.0362 96.793 44.5343 96.793 42.9564C96.793 41.3765 96.8406 40.8747 97.4429 40.273C97.8229 39.8908 98.3735 39.6504 99.0208 39.6504C100.189 39.6504 101.01 40.3805 101.228 41.5515H100.727C100.536 40.6456 99.8949 40.0903 99.0208 40.0903C98.5455 40.0903 98.1242 40.2533 97.7874 40.5929C97.3202 41.0565 97.2854 41.5857 97.2854 42.9564C97.2854 44.3243 97.3202 44.8523 97.7874 45.3199C98.1242 45.6577 98.5455 45.8211 99.0208 45.8211C99.8947 45.8211 100.554 45.2662 100.747 44.3611H101.227C101.01 45.5255 100.171 46.2588 99.0208 46.2588ZM105.348 45.7505C105.026 46.0713 104.616 46.2335 104.124 46.2335C103.631 46.2335 103.222 46.0713 102.9 45.7505C102.437 45.2889 102.352 44.61 102.352 43.98C102.352 43.3491 102.437 42.6747 102.9 42.2075C103.222 41.8895 103.631 41.7269 104.124 41.7269C104.616 41.7269 105.026 41.8895 105.348 42.2075C105.811 42.6747 105.897 43.3491 105.897 43.98C105.897 44.61 105.811 45.2889 105.348 45.7505ZM105.04 42.5097C104.791 42.2668 104.479 42.1362 104.124 42.1362C103.767 42.1362 103.46 42.2668 103.213 42.5097C102.847 42.8752 102.819 43.4712 102.819 43.98C102.819 44.4922 102.847 45.0836 103.213 45.4495C103.46 45.6956 103.767 45.8226 104.124 45.8226C104.479 45.8226 104.791 45.6956 105.04 45.4495C105.4 45.0836 105.429 44.4922 105.429 43.98C105.429 43.4712 105.4 42.8752 105.04 42.5097ZM112.924 46.1796V43.4502C112.924 42.6014 112.506 42.1362 111.709 42.1362C110.943 42.1362 110.469 42.6113 110.469 43.3696V46.1796H110.005V43.4502C110.005 42.6014 109.586 42.1362 108.789 42.1362C107.995 42.1362 107.55 42.6113 107.55 43.4502V46.1796H107.082V41.7802H107.55V42.3011C107.878 41.9163 108.314 41.7267 108.854 41.7267C109.512 41.7267 110.005 42.0084 110.271 42.5293C110.598 42.0084 111.109 41.7267 111.767 41.7267C112.25 41.7267 112.641 41.8794 112.924 42.1441C113.223 42.4355 113.391 42.8483 113.391 43.3696V46.1796H112.924ZM117.571 45.8517C117.342 46.08 116.961 46.2335 116.496 46.2335C115.995 46.2335 115.582 46.1255 115.189 45.6121V48.2786H114.724V41.7804H115.189V42.3484C115.582 41.8363 115.995 41.7271 116.496 41.7271C116.961 41.7271 117.342 41.8798 117.571 42.1093C118.019 42.5558 118.138 43.288 118.138 43.9802C118.138 44.6718 118.019 45.4027 117.571 45.8517ZM116.431 42.1362C115.353 42.1362 115.189 43.067 115.189 43.98C115.189 44.8918 115.353 45.8226 116.431 45.8226C117.51 45.8226 117.673 44.8918 117.673 43.98C117.673 43.067 117.51 42.1362 116.431 42.1362ZM122.01 46.1788V45.7397C121.637 46.1132 121.288 46.2335 120.671 46.2335C120.013 46.2335 119.656 46.1231 119.374 45.8321C119.164 45.6225 119.056 45.2245 119.056 44.897C119.056 44.0936 119.629 43.5105 120.587 43.5105H122.01V43.2118C122.01 42.5097 121.674 42.1374 120.769 42.1374C120.148 42.1374 119.84 42.2913 119.556 42.6935L119.218 42.4013C119.593 41.882 120.048 41.7269 120.769 41.7269C121.938 41.7269 122.477 42.246 122.477 43.1666V46.1788H122.01ZM122.01 43.8826H120.643C119.894 43.8826 119.52 44.2917 119.52 44.8861C119.52 45.47 119.865 45.8224 120.671 45.8224C121.07 45.8224 121.444 45.7867 121.763 45.4846C121.928 45.3298 122.01 45.0475 122.01 44.6445V43.8826ZM126.741 46.1796V43.4502C126.741 42.6014 126.324 42.1362 125.527 42.1362C124.734 42.1362 124.287 42.6113 124.287 43.4502V46.1796H123.822V41.7802H124.287V42.3011C124.615 41.9163 125.042 41.7267 125.583 41.7267C126.066 41.7267 126.458 41.8628 126.748 42.1441C127.052 42.4355 127.208 42.8483 127.208 43.3696V46.1796H126.741ZM129.581 47.3766C129.5 47.6135 129.397 47.7857 129.282 47.8853C129.062 48.0957 128.741 48.1684 128.449 48.1684H128.233V47.7579H128.403C128.908 47.7579 129.052 47.5953 129.208 47.1536L129.566 46.1796L127.955 41.7802H128.47L129.792 45.6322L131.114 41.7802H131.628L129.581 47.3766Z" fill="#848483"></path>
  <path d="M62.4815 33.3091C60.4925 33.3091 58.9559 32.6454 57.7785 31.4689C56.0161 29.6786 55.9375 27.8613 55.9375 24.0476C55.9375 20.2409 56.0163 18.4236 57.7785 16.6307C58.9559 15.4577 60.4923 14.793 62.4815 14.793C65.838 14.793 68.3436 16.7856 68.9836 20.3936H66.1683C65.7588 18.5257 64.5041 17.2476 62.4815 17.2476C61.3844 17.2476 60.4658 17.6536 59.8023 18.3736C58.88 19.3447 58.6993 20.4447 58.6993 24.0478C58.6993 27.6572 58.88 28.7567 59.8023 29.729C60.4658 30.4458 61.3844 30.8545 62.4815 30.8545C64.5039 30.8545 65.7869 29.5741 66.2207 27.707H68.9836C68.3436 31.3142 65.8123 33.3091 62.4815 33.3091ZM80.1825 31.7741C79.3369 32.6452 78.0594 33.3089 76.2932 33.3089C74.5292 33.3089 73.2761 32.6452 72.4322 31.7741C71.2051 30.4938 70.8975 28.857 70.8975 26.6596C70.8975 24.4838 71.2051 22.8482 72.4322 21.5683C73.2761 20.7019 74.5292 20.0335 76.2932 20.0335C78.0594 20.0335 79.3369 20.7019 80.1825 21.5683C81.4082 22.8482 81.7158 24.4838 81.7158 26.6596C81.7158 28.857 81.4082 30.4938 80.1825 31.7741ZM73.502 26.6598C73.502 28.0651 73.6083 29.4224 74.4014 30.2098C74.8889 30.7012 75.5262 30.9809 76.2932 30.9809C77.0601 30.9809 77.7258 30.7012 78.2115 30.2098C79.0046 29.4222 79.105 28.0651 79.105 26.6598C79.105 25.2524 79.0046 23.8967 78.2115 23.1016C77.7258 22.6165 77.0599 22.3638 76.2932 22.3638C75.5264 22.3638 74.8889 22.6165 74.4014 23.1016C73.6083 23.8965 73.502 25.2522 73.502 26.6598ZM91.6604 33.1552V25.2524C91.6604 23.2322 90.5083 22.364 89.0499 22.364C87.5892 22.364 86.3652 23.2565 86.3652 25.2524V33.1552H83.7573V20.1866H86.3133V21.4931C87.2107 20.5188 88.4627 20.0335 89.77 20.0335C91.099 20.0335 92.1987 20.4671 92.9649 21.2114C93.9595 22.1817 94.2683 23.4102 94.2683 24.8688V33.155L91.6604 33.1552ZM101.503 33.3091C99.3819 33.3091 97.5922 32.951 96.0562 31.4398L97.7726 29.729C98.8193 30.8018 100.223 31.0845 101.503 31.0845C103.116 31.0845 104.346 30.5213 104.346 29.2942C104.346 28.397 103.857 27.8881 102.603 27.7575L100.531 27.577C98.0781 27.3492 96.6966 26.2764 96.6966 23.999C96.6966 21.4431 98.8709 20.0337 101.585 20.0337C103.555 20.0337 105.188 20.4444 106.391 21.4933L104.755 23.1534C103.936 22.4653 102.784 22.2084 101.556 22.2084C99.9715 22.2084 99.2013 22.8733 99.2013 23.87C99.2013 24.7653 99.7147 25.2275 100.99 25.3549L102.81 25.5072C105.497 25.7391 106.9 26.9145 106.9 29.1921C106.9 31.9032 104.6 33.3091 101.503 33.3091ZM113.103 33.1552C110.675 33.1552 109.548 31.4151 109.548 29.5484V22.1817H108.064V20.1864H109.548V16.478H112.159V20.1864H114.663V22.1817H112.159V29.422C112.159 30.3662 112.617 30.9306 113.593 30.9306H114.663V33.1548H113.103V33.1552ZM118.526 27.4259C118.526 29.6786 119.679 31.0568 121.829 31.0568C123.285 31.0568 124.052 30.6513 124.973 29.7288L126.635 31.285C125.304 32.6173 124.052 33.3091 121.776 33.3091C118.526 33.3091 115.945 31.5939 115.945 26.6598C115.945 22.4391 118.118 20.0337 121.443 20.0337C124.922 20.0337 126.942 22.5424 126.942 26.328V27.4261H118.526V27.4259ZM124.001 23.8445C123.565 22.8733 122.67 22.2084 121.443 22.2084C120.189 22.2084 119.292 22.8733 118.862 23.8445C118.603 24.4081 118.555 24.818 118.526 25.6107H124.358C124.308 24.818 124.256 24.4081 124.001 23.8445ZM132.663 33.1552C130.185 33.1552 129.11 31.4894 129.11 29.5737V14.9459H131.72V29.4222C131.72 30.4182 132.076 30.9308 133.127 30.9308H134.277V33.155L132.663 33.1552ZM139.538 33.1552C137.054 33.1552 135.979 31.4894 135.979 29.5737V14.9459H138.588V29.4222C138.588 30.4182 138.948 30.9308 139.994 30.9308H141.146V33.155L139.538 33.1552ZM150.374 33.1552V31.9769C149.429 32.9243 148.533 33.3091 146.92 33.3091C145.309 33.3091 144.233 32.9243 143.44 32.1338C142.781 31.4396 142.423 30.4456 142.423 29.3444C142.423 27.1705 143.932 25.6107 146.92 25.6107H150.325V24.6898C150.325 23.0291 149.531 22.2603 147.485 22.2603C146.106 22.2603 145.388 22.6167 144.643 23.5395L142.956 21.9263C144.16 20.4931 145.412 20.0335 147.584 20.0335C151.167 20.0335 152.937 21.5683 152.937 24.484V33.1552H150.374ZM150.325 27.4259H147.335C145.744 27.4259 144.953 28.09 144.953 29.2942C144.953 30.494 145.694 31.1372 147.41 31.1372C148.327 31.1372 149.071 31.0331 149.761 30.3907C150.17 30.0073 150.325 29.3979 150.325 28.4738L150.325 27.4259ZM159.602 33.1552C157.169 33.1552 156.043 31.4151 156.043 29.5484V22.1817H154.558V20.1864H156.043V16.478H158.655V20.1864H161.16V22.1817H158.655V29.422C158.655 30.3662 159.118 30.9306 160.085 30.9306H161.16V33.1548H159.602V33.1552ZM163.113 14.8681H165.878V17.6314H163.113V14.8681ZM163.187 20.1866H165.797V33.1552H163.187V20.1866ZM177.426 31.7741C176.581 32.6452 175.302 33.3089 173.537 33.3089C171.776 33.3089 170.519 32.6452 169.676 31.7741C168.447 30.4938 168.139 28.857 168.139 26.6596C168.139 24.4838 168.447 22.8482 169.676 21.5683C170.519 20.7019 171.776 20.0335 173.537 20.0335C175.302 20.0335 176.581 20.7019 177.426 21.5683C178.652 22.8482 178.959 24.4838 178.959 26.6596C178.959 28.857 178.652 30.4938 177.426 31.7741ZM175.455 23.1016C174.968 22.6165 174.306 22.3638 173.537 22.3638C172.767 22.3638 172.131 22.6165 171.642 23.1016C170.852 23.8967 170.75 25.2524 170.75 26.6598C170.75 28.0651 170.852 29.4224 171.642 30.2098C172.131 30.7012 172.767 30.9809 173.537 30.9809C174.306 30.9809 174.968 30.7012 175.455 30.2098C176.247 29.4222 176.354 28.0651 176.354 26.6598C176.354 25.2522 176.247 23.8965 175.455 23.1016ZM189.267 33.1552V25.2524C189.267 23.2322 188.119 22.364 186.662 22.364C185.202 22.364 183.974 23.2565 183.974 25.2524V33.1552H181.366V20.1866H183.924V21.4931C184.817 20.5188 186.069 20.0335 187.374 20.0335C188.704 20.0335 189.806 20.4671 190.573 21.2114C191.57 22.1817 191.878 23.4102 191.878 24.8688V33.155L189.267 33.1552ZM195.975 33.1552C195.594 33.1552 195.345 33.0598 195.107 32.8218L195.293 32.6363C195.504 32.8459 195.698 32.9127 195.983 32.9127C196.353 32.9127 196.58 32.7388 196.58 32.4441C196.58 32.3121 196.541 32.1984 196.459 32.1274C196.378 32.0573 196.313 32.0352 196.128 32.0058L195.833 31.9603C195.634 31.9283 195.477 31.8645 195.368 31.7681C195.239 31.6545 195.175 31.4971 195.175 31.2946C195.175 30.8646 195.485 30.5799 195.987 30.5799C196.31 30.5799 196.524 30.6617 196.739 30.8583L196.566 31.0327C196.41 30.8899 196.242 30.8156 195.975 30.8156C195.638 30.8156 195.443 31.0031 195.443 31.2842C195.443 31.4096 195.477 31.5084 195.555 31.5769C195.634 31.6437 195.766 31.6931 195.897 31.7142L196.175 31.7573C196.413 31.793 196.531 31.8428 196.637 31.935C196.776 32.0524 196.851 32.2268 196.851 32.4372C196.851 32.881 196.503 33.1552 195.975 33.1552ZM199.174 33.1337V31.2101L198.48 32.7353H198.248L197.544 31.2101V33.1337H197.274V30.6005H197.544L198.37 32.3967L199.174 30.6005H199.444V33.1337H199.174Z" fill="#256DB4"></path>
  <mask id="mask0_9814_5289" style="mask-type:luminance" maskUnits="userSpaceOnUse" x="0" y="19" width="38" height="8">
    <path d="M5.12409 20.3146C4.96146 20.3936 4.84075 20.4622 4.65706 20.5655C4.65706 20.5655 3.95956 21.5504 3.18855 22.7777C2.47485 23.91 1.70323 25.2487 1.21169 26.2083C1.14486 26.3365 0.976562 26.6636 0.976562 26.6636C2.26766 25.7309 3.84291 25.2086 5.9508 24.9555C8.53381 24.6454 11.5458 24.6966 14.6306 24.8301C17.34 24.9455 20.2232 25.1248 23.1177 25.27C28.0168 25.5161 34.3577 23.024 37.7844 19.6284C37.7844 19.6284 37.6378 19.7145 37.5902 19.742C31.2126 23.4294 25.4407 22.627 20.2684 21.6863C16.371 20.9758 12.4438 19.5049 8.96843 19.5049C7.60888 19.5047 6.31798 19.7297 5.12409 20.3146Z" fill="white"></path>
  </mask>
  <g mask="url(#mask0_9814_5289)">
    <path d="M19.3748 45.0669L-2.60938 23.0842L19.3748 1.10059L41.3582 23.0842L19.3748 45.0669Z" fill="url(#paint0_linear_9814_5289)"></path>
  </g>
  <mask id="mask1_9814_5289" style="mask-type:luminance" maskUnits="userSpaceOnUse" x="5" y="18" width="33" height="5">
    <path d="M5.11719 20.3134C5.14169 20.3025 5.16498 20.2899 5.18868 20.2788C5.16498 20.2899 5.14169 20.3017 5.11719 20.3134ZM5.18848 20.2788C9.42086 18.263 14.8686 20.7023 20.2617 21.6849C25.434 22.6258 31.2059 23.4281 37.5835 19.7407C37.6311 19.7131 37.7777 19.627 37.7777 19.627C37.7777 19.627 36.4591 19.749 34.5108 19.7747C32.5594 19.8006 28.5375 19.636 26.0962 19.4296C20.9632 18.9956 17.0895 18.7031 13.9892 18.7031C10.2018 18.7035 7.56734 19.1384 5.18848 20.2788Z" fill="white"></path>
  </mask>
  <g mask="url(#mask1_9814_5289)">
    <path d="M37.7777 18.2627H5.11719V23.4279H37.7777V18.2627Z" fill="url(#paint1_linear_9814_5289)"></path>
  </g>
  <mask id="mask2_9814_5289" style="mask-type:luminance" maskUnits="userSpaceOnUse" x="15" y="0" width="38" height="8">
    <path d="M47.7154 2.50478C45.1342 2.81606 42.1214 2.763 39.0356 2.63034C36.3282 2.51551 33.4432 2.33546 30.5495 2.18985C25.6508 1.94418 19.3093 4.43545 15.8828 7.83222C15.8828 7.83222 16.0294 7.74655 16.078 7.71738C22.4536 4.0304 28.2266 4.83342 33.3987 5.77435C38.8219 6.76247 44.3 9.22539 48.5433 7.14565C48.7052 7.06707 48.8265 6.99882 49.0114 6.89553C49.0114 6.89553 49.7068 5.90984 50.4789 4.68294C51.1924 3.55062 51.9644 2.21172 52.4559 1.25276C52.5213 1.12416 52.6907 0.796875 52.6907 0.796875C51.3989 1.73052 49.8239 2.25121 47.7154 2.50478Z" fill="white"></path>
  </mask>
  <g mask="url(#mask2_9814_5289)">
    <path d="M34.2825 -17.6074L56.901 5.01086L34.2825 27.6291L11.6641 5.01086L34.2825 -17.6074Z" fill="url(#paint2_linear_9814_5289)"></path>
  </g>
  <mask id="mask3_9814_5289" style="mask-type:luminance" maskUnits="userSpaceOnUse" x="15" y="4" width="34" height="5">
    <path d="M48.4718 7.17808C48.4961 7.16714 48.5196 7.15458 48.5435 7.14344C48.5196 7.15479 48.4959 7.16714 48.4718 7.17808ZM16.078 7.71538C16.0294 7.74474 15.8828 7.83021 15.8828 7.83021C15.8828 7.83021 17.2013 7.70809 19.1508 7.68135C21.1001 7.65604 25.1228 7.81988 27.5641 8.02666C38.9661 8.9919 44.1453 9.25336 48.4716 7.17828C44.2401 9.19503 38.7917 6.7548 33.3987 5.77234C31.152 5.36324 28.7922 4.98047 26.3177 4.98047C23.0978 4.98027 19.6838 5.62977 16.078 7.71538Z" fill="white"></path>
  </mask>
  <g mask="url(#mask3_9814_5289)">
    <path d="M48.5433 4.98047H15.8828V9.25336H48.5433V4.98047Z" fill="url(#paint3_linear_9814_5289)"></path>
  </g>
  <mask id="mask4_9814_5289" style="mask-type:luminance" maskUnits="userSpaceOnUse" x="7" y="10" width="40" height="8">
    <path d="M28.3527 10.9762C23.0785 10.5673 17.6712 10.1574 12.7869 10.8636C10.7596 12.9156 8.86947 15.0376 7.13281 17.2375C12.0694 15.4437 18.5834 15.9652 25.3105 16.4877C30.5912 16.8974 36.0037 17.3073 40.8931 16.5963C42.104 15.4629 45.6668 11.4159 46.5389 10.2246C41.5984 12.021 35.0836 11.4985 28.3527 10.9762Z" fill="white"></path>
  </mask>
  <g mask="url(#mask4_9814_5289)">
    <path d="M26.8324 -9.5459L50.1099 13.7318L26.8324 37.0095L3.55469 13.7318L26.8324 -9.5459Z" fill="url(#paint4_linear_9814_5289)"></path>
  </g>
  <defs>
    <linearGradient id="paint0_linear_9814_5289" x1="26.8476" y1="30.5602" x2="10.7506" y2="14.4632" gradientUnits="userSpaceOnUse">
      <stop stop-color="#C1C51C"></stop>
      <stop offset="1" stop-color="#00853A"></stop>
    </linearGradient>
    <linearGradient id="paint1_linear_9814_5289" x1="37.7752" y1="20.8505" x2="5.11376" y2="20.8505" gradientUnits="userSpaceOnUse">
      <stop stop-color="#C1C51C"></stop>
      <stop offset="0.2083" stop-color="#80B026"></stop>
      <stop offset="0.409" stop-color="#499D2F"></stop>
      <stop offset="0.5807" stop-color="#219035"></stop>
      <stop offset="0.7167" stop-color="#098839"></stop>
      <stop offset="0.8" stop-color="#00853A"></stop>
      <stop offset="1" stop-color="#00853A"></stop>
    </linearGradient>
    <linearGradient id="paint2_linear_9814_5289" x1="28.374" y1="-0.895378" x2="40.3337" y2="11.0644" gradientUnits="userSpaceOnUse">
      <stop stop-color="#008FD0"></stop>
      <stop offset="1" stop-color="#1F3C8B"></stop>
    </linearGradient>
    <linearGradient id="paint3_linear_9814_5289" x1="15.8792" y1="7.12219" x2="48.5368" y2="7.12219" gradientUnits="userSpaceOnUse">
      <stop stop-color="#008FD0"></stop>
      <stop offset="0.0811" stop-color="#0484C7"></stop>
      <stop offset="0.3948" stop-color="#135DA6"></stop>
      <stop offset="0.6454" stop-color="#1C4592"></stop>
      <stop offset="0.8" stop-color="#1F3C8B"></stop>
      <stop offset="1" stop-color="#1F3C8B"></stop>
    </linearGradient>
    <linearGradient id="paint4_linear_9814_5289" x1="22.0568" y1="8.94411" x2="33.6617" y2="20.5491" gradientUnits="userSpaceOnUse">
      <stop stop-color="#E74910"></stop>
      <stop offset="0.1776" stop-color="#E85211"></stop>
      <stop offset="0.467" stop-color="#EC6A15"></stop>
      <stop offset="0.8302" stop-color="#F3921C"></stop>
      <stop offset="0.9" stop-color="#F49A1D"></stop>
      <stop offset="1" stop-color="#F49A1D"></stop>
    </linearGradient>
  </defs>
</svg>
