<?xml version="1.0" encoding="UTF-8"?>
<svg xmlns="http://www.w3.org/2000/svg" width="143" height="81" viewBox="0 0 143 81" fill="none">
  <path d="M70.0911 27.1006C70.1052 27.1006 70.1052 27.1006 70.0911 27.1006C70.4843 27.1006 70.7932 26.7816 70.7932 26.4072C70.7932 26.227 70.723 26.0467 70.5826 25.9219C70.4562 25.7971 70.2737 25.7139 70.0911 25.7139C69.9086 25.7139 69.726 25.7832 69.5856 25.9219C69.4592 26.0605 69.375 26.227 69.375 26.4211C69.389 26.7955 69.712 27.1006 70.0911 27.1006Z" fill="#BABCBC"></path>
  <path d="M70.0755 21.0147C70.4687 21.0147 70.7776 20.6957 70.7776 20.3213C70.7776 20.141 70.7074 19.9607 70.5669 19.8359C70.4406 19.7111 70.258 19.6279 70.0755 19.6279C69.8929 19.6279 69.7104 19.6973 69.57 19.8359C69.4436 19.9746 69.3594 20.141 69.3594 20.3352C69.3734 20.6957 69.6964 21.0147 70.0755 21.0147Z" fill="#BABCBC"></path>
  <path d="M75.6096 22.6774C75.4271 22.6358 75.2305 22.6497 75.076 22.7467C74.739 22.9409 74.6267 23.3707 74.8233 23.7036C74.9216 23.87 75.076 23.9809 75.2586 24.0225C75.3148 24.0364 75.385 24.0502 75.4411 24.0502C75.5675 24.0502 75.6798 24.0225 75.7922 23.9532C75.9607 23.8561 76.073 23.7036 76.1151 23.5233C76.1572 23.343 76.1432 23.1489 76.0449 22.9963C75.9466 22.8299 75.7922 22.719 75.6096 22.6774Z" fill="#BABCBC"></path>
  <path d="M75.813 28.8336C75.6445 28.7366 75.462 28.7227 75.2795 28.7643C75.0969 28.8198 74.9425 28.9307 74.8582 29.0832C74.7599 29.2497 74.7459 29.4299 74.788 29.6102C74.8301 29.7905 74.9565 29.943 75.125 30.0401C75.2373 30.1094 75.3497 30.1372 75.4761 30.1372C75.7148 30.1372 75.9535 30.0123 76.0939 29.7905C76.1922 29.6241 76.2062 29.4438 76.1641 29.2635C76.0939 29.0832 75.9675 28.9307 75.813 28.8336Z" fill="#BABCBC"></path>
  <path d="M70.1083 31.8027C69.7152 31.8027 69.4062 32.1217 69.4062 32.4961C69.4062 32.8844 69.7292 33.1895 70.1083 33.1895C70.5015 33.1895 70.8104 32.8705 70.8104 32.4961C70.8104 32.3158 70.7402 32.1355 70.5998 31.9969C70.4734 31.8859 70.3049 31.8027 70.1083 31.8027Z" fill="#BABCBC"></path>
  <path d="M65.373 29.1243C65.2747 28.9579 65.1203 28.8469 64.9377 28.8053C64.7552 28.7637 64.5586 28.7776 64.4042 28.8747C64.0672 29.0688 63.9548 29.4987 64.1514 29.8315C64.2778 30.0534 64.5165 30.1782 64.7692 30.1782C64.8956 30.1782 65.008 30.1504 65.1203 30.0811C65.4573 29.8731 65.5696 29.4571 65.373 29.1243Z" fill="#BABCBC"></path>
  <path d="M64.3928 23.9793C64.5051 24.0348 64.6175 24.0764 64.7438 24.0764C64.8 24.0764 64.8702 24.0625 64.9264 24.0487C65.1089 23.9932 65.2634 23.8823 65.3617 23.7159C65.5583 23.3831 65.4319 22.9532 65.0949 22.759C64.7579 22.5649 64.3226 22.6897 64.126 23.0225C63.9435 23.3553 64.0558 23.7852 64.3928 23.9793Z" fill="#BABCBC"></path>
  <path d="M82.2672 24.2172C82.0847 24.2449 81.9162 24.3281 81.8038 24.4807C81.6915 24.6332 81.6353 24.8135 81.6634 24.9938C81.7055 25.3404 82.0144 25.6039 82.3655 25.6039C82.3936 25.6039 82.4217 25.6039 82.4497 25.6039C82.8429 25.5623 83.1097 25.2018 83.0676 24.8274C82.9974 24.4391 82.6463 24.1756 82.2672 24.2172Z" fill="#BABCBC"></path>
  <path d="M82.3048 30.9432C82.4452 30.5827 82.2626 30.1805 81.8975 30.0419C81.5325 29.9032 81.1253 30.0835 80.9848 30.444C80.8444 30.8046 81.027 31.2067 81.3921 31.3454C81.4763 31.3731 81.5605 31.387 81.6448 31.387C81.9397 31.4009 82.2065 31.2345 82.3048 30.9432Z" fill="#BABCBC"></path>
  <path d="M88.2133 22.5534C88.3958 22.5118 88.5503 22.387 88.6486 22.2345C88.7469 22.0681 88.7749 21.8878 88.7188 21.7075C88.6205 21.3331 88.2414 21.1113 87.8623 21.2083C87.6797 21.2499 87.5252 21.3747 87.427 21.5273C87.3287 21.6937 87.3006 21.874 87.3568 22.0542C87.441 22.3732 87.7218 22.5812 88.0448 22.5812C88.101 22.5673 88.1571 22.5673 88.2133 22.5534Z" fill="#BABCBC"></path>
  <path d="M88.5074 28.5697C88.5214 28.5697 88.5495 28.5697 88.5636 28.5697C88.7321 28.5697 88.8865 28.5142 89.0269 28.4033C89.1673 28.2784 89.2516 28.112 89.2797 27.9318C89.2937 27.7515 89.2375 27.5712 89.1112 27.4187C88.9848 27.28 88.8163 27.1968 88.6338 27.1691C88.4512 27.1552 88.2687 27.2107 88.1142 27.3355C87.9738 27.4603 87.8896 27.6267 87.8615 27.807C87.8474 27.9872 87.9036 28.1675 88.03 28.3201C88.1423 28.4726 88.3248 28.5558 88.5074 28.5697Z" fill="#BABCBC"></path>
  <path d="M87.7321 33.9923C87.8866 33.6456 87.7181 33.2296 87.367 33.077C87.1986 33.0077 87.002 32.9938 86.8335 33.0632C86.6509 33.1325 86.5246 33.2573 86.4403 33.4376C86.2858 33.7843 86.4543 34.2003 86.8054 34.3528C86.9037 34.3944 86.9879 34.4083 87.0862 34.4083C87.353 34.4083 87.6058 34.2557 87.7321 33.9923Z" fill="#BABCBC"></path>
  <path d="M93.7808 19.4737C93.9634 19.4182 94.1038 19.2934 94.188 19.127C94.2723 18.9606 94.2863 18.7665 94.2302 18.6001C94.174 18.4198 94.0476 18.2811 93.8791 18.1979C93.7106 18.1147 93.5141 18.1009 93.3456 18.1563C92.9805 18.2811 92.7698 18.6694 92.8962 19.03C92.9945 19.3212 93.2753 19.5153 93.5702 19.5153C93.6404 19.5153 93.7106 19.5014 93.7808 19.4737Z" fill="#BABCBC"></path>
  <path d="M95.1985 24.2857C95.0581 24.1609 94.8756 24.1054 94.693 24.1193C94.2999 24.147 94.005 24.4798 94.0331 24.8681C94.0612 25.2425 94.3701 25.5199 94.7352 25.5199C94.7492 25.5199 94.7633 25.5199 94.7773 25.5199C94.9598 25.506 95.1424 25.4228 95.2688 25.2841C95.3951 25.1454 95.4513 24.9652 95.4373 24.7849C95.4232 24.5908 95.339 24.4105 95.1985 24.2857Z" fill="#BABCBC"></path>
  <path d="M94.5026 30.2342C94.1235 30.1649 93.7444 30.4145 93.6742 30.7889C93.6461 30.9692 93.6742 31.1633 93.7865 31.3159C93.8989 31.4684 94.0533 31.5793 94.2359 31.6071C94.278 31.6209 94.3201 31.6209 94.3622 31.6209C94.6992 31.6209 94.9941 31.3852 95.0503 31.0524C95.0783 30.8721 95.0503 30.678 94.9379 30.5254C94.8396 30.3729 94.6852 30.262 94.5026 30.2342Z" fill="#BABCBC"></path>
  <path d="M92.767 36.1007C92.4159 35.9343 91.9947 36.0869 91.8262 36.4335C91.6577 36.7802 91.8121 37.1962 92.1632 37.3626C92.2615 37.4042 92.3598 37.432 92.4581 37.432C92.5423 37.432 92.6266 37.4181 92.6968 37.3904C92.8793 37.321 93.0197 37.1962 93.0899 37.0298C93.1742 36.8634 93.1742 36.6693 93.118 36.5029C93.0618 36.3226 92.9355 36.1839 92.767 36.1007Z" fill="#BABCBC"></path>
  <path d="M70.0642 12.248C69.5306 12.248 69.0251 12.4561 68.646 12.8305C68.2669 13.2049 68.0703 13.6902 68.0703 14.2311C68.0703 15.3127 68.969 16.1863 70.0642 16.1863C71.1595 16.1863 72.0581 15.2988 72.0441 14.2172C72.0441 13.6902 71.8334 13.191 71.4543 12.8305C71.1033 12.4561 70.5978 12.248 70.0642 12.248Z" fill="url(#paint0_linear_9814_11646)"></path>
  <path d="M74.8794 17.3385C75.1742 17.491 75.4831 17.5604 75.8061 17.5604C76.0027 17.5604 76.2133 17.5326 76.4099 17.4633C76.9154 17.3108 77.3366 16.9641 77.5753 16.4926C77.8281 16.0211 77.8702 15.4941 77.7158 14.9949C77.5613 14.4957 77.2103 14.0797 76.7329 13.8439C76.2554 13.5943 75.7219 13.5527 75.2164 13.7053C74.7109 13.8578 74.2896 14.2045 74.0509 14.676C73.7982 15.1475 73.756 15.6744 73.9105 16.1736C74.065 16.6867 74.416 17.1027 74.8794 17.3385Z" fill="url(#paint1_linear_9814_11646)"></path>
  <path d="M80.2431 21.4289C80.6362 21.4289 81.0294 21.318 81.3804 21.0822C82.2791 20.4582 82.5037 19.2379 81.8859 18.3504C81.577 17.9205 81.1277 17.6293 80.6081 17.5322C80.0886 17.4351 79.555 17.5461 79.1197 17.8511C78.2211 18.4752 77.9964 19.6955 78.6142 20.583C78.9933 21.1238 79.6112 21.4289 80.2431 21.4289Z" fill="url(#paint2_linear_9814_11646)"></path>
  <path d="M78.306 37.4874C78.7974 37.4874 79.2608 37.3071 79.6259 36.9882C80.019 36.6415 80.2577 36.1561 80.2858 35.6292C80.3139 35.1022 80.1314 34.603 79.7803 34.2147C79.0502 33.4104 77.7864 33.3272 76.972 34.0483C76.1576 34.7694 76.0734 36.0175 76.8035 36.8218C77.1546 37.21 77.646 37.4458 78.1796 37.4735C78.2358 37.4735 78.2638 37.4874 78.306 37.4874Z" fill="url(#paint3_linear_9814_11646)"></path>
  <path d="M72.0682 39.9297C72.3771 40.1099 72.7281 40.207 73.0932 40.207C73.2617 40.207 73.4161 40.1931 73.5846 40.1515C74.6518 39.888 75.2977 38.8203 75.0309 37.7664C74.9045 37.2533 74.5816 36.8234 74.1182 36.5599C73.6689 36.2826 73.1213 36.2132 72.6158 36.338C71.5486 36.6015 70.9027 37.6693 71.1695 38.7232C71.2818 39.2224 71.6048 39.6523 72.0682 39.9297Z" fill="url(#paint4_linear_9814_11646)"></path>
  <path d="M67.6537 36.3368C67.1341 36.212 66.6006 36.2952 66.1512 36.5726C65.7019 36.8499 65.3789 37.2798 65.2526 37.7929C65.1262 38.306 65.2104 38.8329 65.4913 39.2767C65.7721 39.7204 66.2074 40.0394 66.7269 40.1642C66.8814 40.2058 67.0499 40.2196 67.2043 40.2196C68.103 40.2196 68.9174 39.6095 69.1421 38.722C69.2684 38.2089 69.1842 37.6819 68.9034 37.2382C68.6085 36.7806 68.1732 36.4616 67.6537 36.3368Z" fill="url(#paint5_linear_9814_11646)"></path>
  <path d="M63.2589 34.0763C62.4304 33.3552 61.1667 33.4384 60.4505 34.2565C60.0995 34.6448 59.917 35.1579 59.9591 35.6849C59.9872 36.2118 60.2259 36.6972 60.6331 37.03C61.0122 37.3628 61.4756 37.5153 61.953 37.5153C62.5006 37.5153 63.0482 37.2935 63.4414 36.8497C64.1575 36.0454 64.0873 34.7974 63.2589 34.0763Z" fill="url(#paint6_linear_9814_11646)"></path>
  <path d="M60.4305 30.0569C60.0374 29.0446 58.886 28.5315 57.8609 28.9198C56.8359 29.3081 56.3164 30.4452 56.7095 31.4575C57.0185 32.2341 57.7767 32.7194 58.5771 32.7194C58.8158 32.7194 59.0545 32.6778 59.2932 32.5946C60.3042 32.2064 60.8237 31.0692 60.4305 30.0569Z" fill="url(#paint7_linear_9814_11646)"></path>
  <path d="M58.0744 23.0102C56.9791 22.8854 55.9962 23.662 55.8558 24.7298C55.7997 25.2567 55.9401 25.7698 56.263 26.1858C56.586 26.6018 57.0634 26.8653 57.597 26.9208C57.6812 26.9347 57.7514 26.9347 57.8357 26.9347C58.8326 26.9347 59.6892 26.1997 59.8155 25.2013C59.8717 24.6743 59.7313 24.1612 59.4083 23.7452C59.0713 23.3431 58.608 23.0796 58.0744 23.0102Z" fill="url(#paint8_linear_9814_11646)"></path>
  <path d="M58.2853 18.3929C57.6675 19.2804 57.8922 20.5146 58.8049 21.1248C59.1419 21.3605 59.535 21.4715 59.9282 21.4715C60.5601 21.4715 61.1919 21.1664 61.5711 20.6117C62.1889 19.7242 61.9642 18.49 61.0515 17.8798C60.1388 17.2697 58.9032 17.5054 58.2853 18.3929Z" fill="url(#paint9_linear_9814_11646)"></path>
  <path d="M63.4134 13.886C62.4445 14.3991 62.0654 15.5917 62.5849 16.5485C62.9359 17.2142 63.638 17.6025 64.3541 17.6025C64.6631 17.6025 64.986 17.5331 65.2809 17.3806C66.2498 16.8675 66.6289 15.6888 66.1093 14.7181C65.5898 13.7474 64.3822 13.3868 63.4134 13.886Z" fill="url(#paint10_linear_9814_11646)"></path>
  <path d="M70.0564 6.14648C69.5228 6.14648 69.0173 6.35449 68.6382 6.72891C68.2591 7.10332 68.0625 7.58868 68.0625 8.1295C68.0625 9.21114 68.9612 10.0848 70.0564 10.0848C71.1516 10.0848 72.0503 9.19727 72.0363 8.11563C72.0363 7.58867 71.8256 7.08945 71.4465 6.72891C71.0814 6.35449 70.59 6.14648 70.0564 6.14648Z" fill="url(#paint11_linear_9814_11646)"></path>
  <path d="M75.4324 10.961C75.643 11.0303 75.8537 11.0719 76.0783 11.0719C76.9068 11.0719 77.6791 10.5588 77.9599 9.74068C78.1284 9.24146 78.1003 8.71451 77.8616 8.24302C77.6229 7.77153 77.2157 7.42485 76.7102 7.24458C76.2047 7.07817 75.6711 7.10591 75.1937 7.34165C74.7163 7.57739 74.3512 7.97954 74.1827 8.47876C73.8317 9.49107 74.3933 10.6143 75.4324 10.961Z" fill="url(#paint12_linear_9814_11646)"></path>
  <path d="M80.2233 13.5104C80.5743 13.7739 80.9956 13.9264 81.4449 13.9264C81.5292 13.9264 81.6134 13.9264 81.6977 13.9126C82.2312 13.8432 82.6946 13.5798 83.0176 13.1638C83.3405 12.7477 83.4809 12.2346 83.4248 11.7077C83.3546 11.1807 83.0878 10.7231 82.6665 10.4042C81.796 9.73855 80.5463 9.89109 79.8723 10.7509C79.1983 11.5968 79.3527 12.8448 80.2233 13.5104Z" fill="url(#paint13_linear_9814_11646)"></path>
  <path d="M83.912 17.4499C84.2068 17.8937 84.6562 18.1849 85.1757 18.2958C85.3161 18.3236 85.4425 18.3374 85.5829 18.3374C85.962 18.3374 86.3412 18.2265 86.6782 18.0185C87.5909 17.4222 87.8576 16.2019 87.2539 15.3005C86.959 14.8568 86.5097 14.5656 85.9901 14.4546C85.4706 14.3437 84.937 14.4546 84.4877 14.732C84.0383 15.0232 83.7435 15.4669 83.6311 15.98C83.5188 16.4792 83.6171 17.0062 83.912 17.4499Z" fill="url(#paint14_linear_9814_11646)"></path>
  <path d="M83.8397 40.7329C84.3733 40.7051 84.8647 40.4833 85.2158 40.095C85.5809 39.7067 85.7634 39.2075 85.7353 38.6805C85.7072 38.1536 85.4826 37.6682 85.0894 37.3215C84.6963 36.961 84.1908 36.7807 83.6572 36.8084C83.1236 36.8362 82.6321 37.0581 82.2811 37.4463C81.5369 38.2506 81.5931 39.4987 82.4075 40.2198C82.7726 40.5526 83.25 40.7329 83.7555 40.7329C83.7836 40.7329 83.8116 40.7329 83.8397 40.7329Z" fill="url(#paint15_linear_9814_11646)"></path>
  <path d="M78.3958 44.3524C78.5783 44.4078 78.7749 44.4356 78.9574 44.4356C79.2804 44.4356 79.6174 44.3524 79.9123 44.1998C80.8811 43.6867 81.2322 42.4803 80.7126 41.5373C80.4599 41.0797 80.0386 40.7469 79.5331 40.5944C79.0276 40.4418 78.48 40.4973 78.0167 40.7469C77.0478 41.26 76.6968 42.4664 77.2163 43.4094C77.455 43.867 77.8762 44.2137 78.3958 44.3524Z" fill="url(#paint16_linear_9814_11646)"></path>
  <path d="M72.0346 46.0432C72.3716 46.279 72.7788 46.4038 73.186 46.4038C73.2984 46.4038 73.4107 46.3899 73.523 46.3761C74.0426 46.2929 74.5059 46.0016 74.8148 45.5718C75.1238 45.1419 75.2501 44.6149 75.1518 44.1018C75.0676 43.5887 74.7727 43.1311 74.3374 42.8261C73.9021 42.521 73.3686 42.3962 72.849 42.4932C72.3295 42.5764 71.8661 42.8677 71.5572 43.2975C71.2483 43.7274 71.1219 44.2405 71.2202 44.7675C71.3185 45.2805 71.6134 45.7382 72.0346 46.0432Z" fill="url(#paint17_linear_9814_11646)"></path>
  <path d="M65.5189 45.5725C65.8137 45.9885 66.2631 46.2659 66.7826 46.3491C66.8949 46.3629 66.9932 46.3768 67.1056 46.3768C67.5128 46.3768 67.9059 46.252 68.2289 46.0163C68.6501 45.7112 68.931 45.2674 69.0152 44.7682C69.1837 43.7282 68.4676 42.7436 67.4145 42.5633C66.3614 42.3969 65.3644 43.1041 65.1819 44.1442C65.0976 44.6434 65.224 45.1565 65.5189 45.5725Z" fill="url(#paint18_linear_9814_11646)"></path>
  <path d="M62.272 40.7756C61.3032 40.2625 60.0956 40.623 59.5761 41.5799C59.3233 42.0375 59.2671 42.5783 59.4216 43.0775C59.5761 43.5767 59.913 43.9928 60.3905 44.2424C60.6853 44.3949 61.0083 44.4781 61.3312 44.4781C61.5278 44.4781 61.7244 44.4504 61.9069 44.3949C62.4124 44.2424 62.8337 43.9095 63.0864 43.4381C63.3392 42.9804 63.3953 42.4396 63.2409 41.9404C63.0864 41.4412 62.7354 41.0252 62.272 40.7756Z" fill="url(#paint19_linear_9814_11646)"></path>
  <path d="M55.1605 37.3762C54.3602 38.1111 54.304 39.3592 55.0482 40.1635C55.4414 40.5795 55.9749 40.7875 56.5085 40.7875C57 40.7875 57.4774 40.6211 57.8565 40.2606C58.6569 39.5256 58.713 38.2775 57.9688 37.4732C57.2246 36.6967 55.9609 36.6412 55.1605 37.3762Z" fill="url(#paint20_linear_9814_11646)"></path>
  <path d="M55.0149 34.507C55.2114 34.0217 55.1974 33.4808 54.9727 32.9955C54.5234 32.0109 53.358 31.5533 52.347 31.9971C51.8555 32.2051 51.4904 32.5933 51.2939 33.0926C51.0973 33.5779 51.1113 34.1187 51.336 34.6041C51.5466 35.0894 51.9398 35.45 52.4453 35.6441C52.684 35.7273 52.9227 35.7828 53.1614 35.7828C53.4282 35.7828 53.709 35.7273 53.9617 35.6164C54.4532 35.3807 54.8323 34.9924 55.0149 34.507Z" fill="url(#paint21_linear_9814_11646)"></path>
  <path d="M52.9359 26.4619C52.5287 26.1291 52.0091 25.9627 51.4896 26.0043C50.956 26.0459 50.4786 26.2955 50.1416 26.6977C49.8046 27.0998 49.6361 27.6129 49.6782 28.1399C49.7204 28.6668 49.9731 29.1383 50.3803 29.4711C50.7454 29.7762 51.1947 29.9288 51.6581 29.9288C51.7143 29.9288 51.7704 29.9288 51.8266 29.9149C52.3602 29.8733 52.8376 29.6237 53.1746 29.2215C53.5116 28.8194 53.6801 28.3063 53.638 27.7793C53.5958 27.2524 53.3431 26.7948 52.9359 26.4619Z" fill="url(#paint22_linear_9814_11646)"></path>
  <path d="M53.8453 20.9572C53.5785 20.5134 53.1432 20.1945 52.6237 20.0558C52.1042 19.931 51.5706 20.0003 51.1213 20.2777C50.6579 20.5412 50.349 20.9711 50.2086 21.4841C49.9418 22.538 50.5877 23.6058 51.6548 23.8693C51.8233 23.9109 51.9778 23.9248 52.1463 23.9248C53.045 23.9248 53.8453 23.3285 54.084 22.441C54.1964 21.9279 54.1121 21.4009 53.8453 20.9572Z" fill="url(#paint23_linear_9814_11646)"></path>
  <path d="M52.9094 15.3691C52.3056 16.2844 52.5724 17.5047 53.4991 18.0871C53.8221 18.2951 54.2012 18.406 54.5803 18.406C54.7207 18.406 54.8612 18.3922 55.0016 18.3644C55.5211 18.2535 55.9704 17.9484 56.2653 17.5185C56.8691 16.6033 56.6023 15.383 55.6756 14.8006C54.7348 14.2043 53.4991 14.4678 52.9094 15.3691Z" fill="url(#paint24_linear_9814_11646)"></path>
  <path d="M58.9312 10.0575C58.3976 9.98815 57.8781 10.1407 57.4568 10.4596C56.5862 11.1253 56.4458 12.3733 57.1198 13.2192C57.4428 13.6352 57.9202 13.8987 58.4538 13.9542C58.538 13.968 58.6223 13.968 58.6925 13.968C59.1418 13.968 59.563 13.8294 59.9141 13.552C60.7847 12.8864 60.9251 11.6383 60.2511 10.7924C59.9281 10.3764 59.4648 10.113 58.9312 10.0575Z" fill="url(#paint25_linear_9814_11646)"></path>
  <path d="M64.9114 7.35565C64.434 7.11991 63.8864 7.09218 63.395 7.27245C62.8895 7.43886 62.4823 7.79941 62.2576 8.27089C62.0189 8.74238 61.9908 9.2832 62.1733 9.76855C62.4542 10.5867 63.2265 11.0998 64.0549 11.0998C64.2655 11.0998 64.4902 11.0582 64.7008 10.9889C65.7399 10.6283 66.2875 9.50507 65.9365 8.49277C65.7539 7.99355 65.3888 7.5914 64.9114 7.35565Z" fill="url(#paint26_linear_9814_11646)"></path>
  <path d="M70.0425 3.99864C70.5761 3.99864 71.0816 3.79063 71.4607 3.41622C71.8398 3.0418 72.0364 2.55645 72.0364 2.0295C72.0364 1.50254 71.8258 1.00332 71.4467 0.642775C71.0676 0.26836 70.5761 0.0742188 70.0425 0.0742188C68.9473 0.0742188 68.0486 0.961721 68.0627 2.04336C68.0486 3.11114 68.9473 3.99864 70.0425 3.99864Z" fill="url(#paint27_linear_9814_11646)"></path>
  <path d="M75.6864 4.67755C75.8549 4.71915 76.0094 4.73302 76.1779 4.73302C76.5289 4.73302 76.88 4.63595 77.1889 4.45567C77.6523 4.1922 77.9752 3.76231 78.1016 3.24922C78.228 2.73614 78.1577 2.20918 77.8769 1.76543C77.6101 1.30781 77.1748 0.988867 76.6553 0.864062C75.5881 0.600585 74.5069 1.23848 74.2402 2.29239C74.1138 2.80547 74.184 3.33243 74.4648 3.77618C74.7457 4.2338 75.1809 4.55274 75.6864 4.67755Z" fill="url(#paint28_linear_9814_11646)"></path>
  <path d="M80.9932 6.74457C81.3021 6.91098 81.6251 6.98031 81.948 6.98031C82.6501 6.98031 83.3382 6.6059 83.7032 5.95414C84.2228 4.9973 83.8717 3.80472 82.9029 3.27777C81.934 2.76468 80.7264 3.11136 80.1929 4.0682C79.6733 5.02504 80.0244 6.21762 80.9932 6.74457Z" fill="url(#paint29_linear_9814_11646)"></path>
  <path d="M86.9634 10.5572C86.9915 10.5572 87.0055 10.5572 87.0336 10.5572C87.5672 10.5433 88.0586 10.3215 88.4237 9.93317C88.7888 9.54489 88.9713 9.04567 88.9573 8.51872C88.9433 7.99176 88.7186 7.50641 88.3254 7.14586C87.9323 6.78531 87.4268 6.60504 86.8932 6.61891C86.3596 6.63277 85.8682 6.85465 85.5031 7.24293C85.138 7.63121 84.9555 8.13043 84.9695 8.65739C84.9835 9.18434 85.2082 9.6697 85.6014 10.0302C85.9665 10.3769 86.4579 10.5572 86.9634 10.5572Z" fill="url(#paint30_linear_9814_11646)"></path>
  <path d="M89.242 14.3418C89.5228 14.7855 89.9721 15.0906 90.4917 15.2016C90.6321 15.2293 90.7865 15.2432 90.9269 15.2432C91.3061 15.2432 91.6711 15.1322 91.9941 14.9381C92.4434 14.6607 92.7523 14.217 92.8647 13.7039C92.977 13.1908 92.8787 12.6639 92.5979 12.2201C92.317 11.7764 91.8677 11.4713 91.3482 11.3603C90.8287 11.2494 90.2951 11.3465 89.8457 11.6238C89.3964 11.9012 89.0875 12.3449 88.9752 12.858C88.8628 13.385 88.9611 13.9119 89.242 14.3418Z" fill="url(#paint31_linear_9814_11646)"></path>
  <path d="M90.4285 40.387C90.0213 40.0542 89.5017 39.9016 88.9682 39.9432C88.4346 39.9987 87.9572 40.2483 87.6202 40.6505C87.2832 41.0526 87.1287 41.5657 87.1708 42.0926C87.227 42.6196 87.4798 43.0911 87.887 43.4239C88.252 43.7151 88.6873 43.8676 89.1507 43.8676C89.2209 43.8676 89.2771 43.8676 89.3473 43.8538C89.8809 43.7983 90.3583 43.5487 90.6953 43.1466C91.0323 42.7444 91.1867 42.2313 91.1446 41.7044C91.1025 41.1774 90.8357 40.7198 90.4285 40.387Z" fill="url(#paint32_linear_9814_11646)"></path>
  <path d="M84.9642 44.1589C84.4306 44.0757 83.9111 44.2005 83.4898 44.5194C83.0545 44.8245 82.7737 45.2821 82.6895 45.8091C82.6052 46.3221 82.7316 46.8491 83.0545 47.2651C83.4477 47.7921 84.0515 48.0694 84.6693 48.0694C85.0765 48.0694 85.4837 47.9446 85.8488 47.695C86.7334 47.0571 86.93 45.8229 86.2841 44.9493C85.9611 44.5194 85.4978 44.2421 84.9642 44.1589Z" fill="url(#paint33_linear_9814_11646)"></path>
  <path d="M78.5022 47.2369C77.4772 47.639 76.9858 48.79 77.393 49.7885C77.7019 50.5511 78.4601 51.0226 79.2464 51.0226C79.4851 51.0226 79.7379 50.981 79.9766 50.884C80.468 50.6898 80.8612 50.3154 81.0718 49.8301C81.2825 49.3447 81.2825 48.8177 81.0859 48.3324C80.6927 47.3201 79.5273 46.8347 78.5022 47.2369Z" fill="url(#paint34_linear_9814_11646)"></path>
  <path d="M74.4836 49.0395C74.0623 48.7206 73.5428 48.5819 73.0092 48.6513C71.914 48.7899 71.1417 49.7745 71.2821 50.8561C71.3523 51.3831 71.6191 51.8407 72.0404 52.1597C72.3914 52.4231 72.8126 52.5757 73.2479 52.5757C73.3322 52.5757 73.4164 52.5757 73.5007 52.5618C74.0342 52.4925 74.4976 52.229 74.8206 51.813C75.1435 51.397 75.2839 50.8839 75.2137 50.3569C75.1716 49.8161 74.9048 49.3585 74.4836 49.0395Z" fill="url(#paint35_linear_9814_11646)"></path>
  <path d="M67.3129 48.6528C66.2177 48.5141 65.2207 49.2907 65.0944 50.3584C64.954 51.4401 65.7403 52.4246 66.8215 52.5494C66.9057 52.5633 66.99 52.5633 67.0742 52.5633C68.0571 52.5633 68.9277 51.8284 69.0541 50.8438C69.1805 49.776 68.4082 48.7914 67.3129 48.6528Z" fill="url(#paint36_linear_9814_11646)"></path>
  <path d="M61.8008 47.2653C60.7758 46.8771 59.6244 47.3624 59.2172 48.3747C59.0206 48.8601 59.0347 49.4009 59.2453 49.8862C59.4559 50.3716 59.8491 50.746 60.3405 50.9263C60.5792 51.0234 60.8179 51.065 61.0707 51.065C61.3375 51.065 61.6043 51.0095 61.871 50.8986C62.3625 50.6905 62.7416 50.3023 62.9242 49.8169C63.3314 48.8185 62.8259 47.6675 61.8008 47.2653Z" fill="url(#paint37_linear_9814_11646)"></path>
  <path d="M56.813 44.573C56.3777 44.268 55.8582 44.1432 55.3246 44.2264C54.8051 44.3096 54.3417 44.5869 54.0328 45.0168C53.7239 45.4467 53.5975 45.9598 53.6818 46.4867C53.766 46.9998 54.0468 47.4574 54.4821 47.7625C54.8191 48.0121 55.2263 48.1369 55.6476 48.1369C55.7599 48.1369 55.8582 48.123 55.9705 48.1092C56.4901 48.026 56.9534 47.7486 57.2623 47.3187C57.5713 46.8889 57.6976 46.3758 57.6134 45.8488C57.5151 45.3357 57.2343 44.8781 56.813 44.573Z" fill="url(#paint38_linear_9814_11646)"></path>
  <path d="M49.8465 40.4835C49.004 41.1769 48.8916 42.4249 49.5937 43.257C49.9869 43.7284 50.5485 43.9642 51.1242 43.9642C51.5736 43.9642 52.0229 43.8116 52.402 43.5066C52.8092 43.1738 53.062 42.7023 53.1181 42.1753C53.1603 41.6484 53.0058 41.1353 52.6688 40.7331C51.9387 39.9011 50.689 39.7902 49.8465 40.4835Z" fill="url(#paint39_linear_9814_11646)"></path>
  <path d="M49.6663 37.5023C49.8488 37.0031 49.8207 36.4761 49.5961 36.0047C49.3714 35.5332 48.9642 35.1726 48.4587 34.9924C47.9532 34.8121 47.4196 34.8398 46.9422 35.0617C45.9453 35.5193 45.524 36.698 46.0014 37.6826C46.3384 38.3898 47.0546 38.8058 47.7988 38.8058C48.0796 38.8058 48.3745 38.7504 48.6553 38.6117C49.1187 38.4037 49.4837 38.0015 49.6663 37.5023Z" fill="url(#paint40_linear_9814_11646)"></path>
  <path d="M46.2354 32.9658C47.3166 32.7578 48.0187 31.7316 47.8081 30.6638C47.7098 30.1507 47.4149 29.707 46.9656 29.4019C46.5303 29.1107 45.9967 28.9998 45.4772 29.0968C44.396 29.3048 43.6939 30.331 43.9045 31.3988C44.087 32.3418 44.9295 32.9935 45.8563 32.9935C45.9827 33.0074 46.109 32.9935 46.2354 32.9658Z" fill="url(#paint41_linear_9814_11646)"></path>
  <path d="M45.3409 26.906C45.383 26.906 45.4251 26.906 45.4672 26.906C46.5063 26.906 47.3909 26.1017 47.4611 25.0617C47.5314 23.98 46.6889 23.0509 45.5936 22.9816C44.4984 22.9122 43.5576 23.7443 43.4874 24.8259C43.4593 25.3529 43.6278 25.8521 43.9788 26.2542C44.3158 26.6287 44.8073 26.8644 45.3409 26.906Z" fill="url(#paint42_linear_9814_11646)"></path>
  <path d="M45.9889 20.805C46.1855 20.8744 46.3961 20.9021 46.6068 20.9021C46.9157 20.9021 47.2246 20.8328 47.5054 20.6802C47.9828 20.4445 48.3339 20.0285 48.4883 19.5292C48.6568 19.03 48.6007 18.5031 48.3619 18.0316C48.1232 17.5601 47.702 17.2134 47.1965 17.0609C46.1574 16.7281 45.0201 17.2966 44.6831 18.3367C44.5146 18.8359 44.5707 19.3628 44.8094 19.8343C45.0762 20.2919 45.4834 20.6386 45.9889 20.805Z" fill="url(#paint43_linear_9814_11646)"></path>
  <path d="M48.1655 15.0661C48.4884 15.2741 48.8535 15.3712 49.2186 15.3712C49.373 15.3712 49.5135 15.3573 49.6679 15.3157C50.1874 15.2048 50.6227 14.8858 50.9176 14.4421C51.1984 13.9983 51.2967 13.4714 51.1704 12.9583C51.058 12.4452 50.7351 12.0153 50.2857 11.7241C49.359 11.1417 48.1233 11.419 47.5336 12.3343C47.2528 12.778 47.1545 13.305 47.2809 13.818C47.3932 14.345 47.7161 14.7749 48.1655 15.0661Z" fill="url(#paint44_linear_9814_11646)"></path>
  <path d="M53.1599 10.6402C53.6513 10.6402 54.1428 10.4599 54.5219 10.0993C54.9151 9.73879 55.1257 9.25344 55.1397 8.72648C55.1538 8.19953 54.9572 7.70031 54.5921 7.31202C54.227 6.93761 53.7356 6.71573 53.202 6.70187C52.6684 6.688 52.1629 6.88214 51.7838 7.24269C50.9834 7.99152 50.9413 9.23957 51.6996 10.03C52.0927 10.4321 52.6263 10.6402 53.1599 10.6402Z" fill="url(#paint45_linear_9814_11646)"></path>
  <path d="M57.5997 6.96648C57.7823 7.02195 57.9648 7.04969 58.1473 7.04969C58.4843 7.04969 58.8073 6.96648 59.1162 6.80008C60.071 6.27312 60.4221 5.08054 59.8885 4.1237C59.6358 3.66609 59.2005 3.33327 58.695 3.18073C58.1895 3.04206 57.6419 3.09753 57.1785 3.34714C56.7151 3.59675 56.3781 4.02663 56.2237 4.52585C56.0832 5.02507 56.1394 5.5659 56.3922 6.02351C56.673 6.48113 57.0942 6.81395 57.5997 6.96648Z" fill="url(#paint46_linear_9814_11646)"></path>
  <path d="M62.8956 4.49679C63.2045 4.67706 63.5555 4.77413 63.9066 4.77413C64.0751 4.77413 64.2436 4.7464 64.4121 4.70479C65.4792 4.42745 66.1111 3.35967 65.8443 2.30577C65.5635 1.25186 64.4823 0.627832 63.4151 0.891309C62.348 1.16865 61.7161 2.23643 61.9829 3.29034C62.1093 3.80342 62.4322 4.23331 62.8956 4.49679Z" fill="url(#paint47_linear_9814_11646)"></path>
  <path d="M77.961 73.5014H77.9329H66.0959C66.5593 75.4012 67.9915 76.8573 70.6032 76.8573C72.1057 76.8573 73.1869 76.3719 73.7485 75.4428H77.7644C76.8798 78.2578 74.0434 80.0329 70.5049 80.0329C65.5623 80.0329 62.3047 76.5799 62.3047 72.0592C62.3047 67.5108 65.5764 64.0439 70.5049 64.0439C74.7876 64.0439 78.0312 67.2057 78.0593 71.7957C78.0593 72.3365 78.0593 72.919 77.961 73.5014ZM66.0678 70.7279H74.24C73.9451 68.5647 72.569 67.2057 70.3224 67.2057C67.8932 67.2057 66.4891 68.7588 66.0678 70.7279Z" fill="#002584"></path>
  <path d="M12.2836 73.9592H16.1731C15.6816 77.6063 12.4802 80.0746 8.52046 80.0746C3.84463 80.0746 0.25 76.594 0.25 72.0317C0.25 67.4416 3.84463 63.9609 8.52046 63.9609C12.4802 63.9609 15.6676 66.4709 16.1731 70.0764H12.2836C11.9185 68.4539 10.4722 67.3861 8.52046 67.3861C5.82449 67.3861 4.04121 69.4385 4.04121 72.0317C4.04121 74.6387 5.82449 76.691 8.52046 76.691C10.4722 76.691 11.9185 75.6233 12.2836 73.9592Z" fill="#002584"></path>
  <path d="M17.9141 72.1278C17.9141 67.7318 21.5368 64.2373 25.9879 64.2373C30.4391 64.2373 34.0618 67.7318 34.0618 72.1278C34.0618 76.6485 30.411 80.0182 25.9879 80.0182C21.5649 80.0182 17.9141 76.6485 17.9141 72.1278ZM30.1442 72.1278C30.1442 69.6039 28.2346 67.7873 26.002 67.7873C23.7273 67.7873 21.8597 69.6039 21.8597 72.1278C21.8597 74.6793 23.6992 76.4682 26.002 76.4682C28.3048 76.4682 30.1442 74.6793 30.1442 72.1278Z" fill="#002584"></path>
  <path d="M36.1953 69.5207C36.1953 66.359 38.4981 64.2373 41.6294 64.2373H43.7777V67.8012H42.2472C40.829 67.8012 40.0006 68.6748 40.0006 70.0477V79.727H36.1953V69.5207Z" fill="#002584"></path>
  <path d="M56.6117 73.9592H60.5012C60.0098 77.6063 56.8083 80.0746 52.8486 80.0746C48.1728 80.0746 44.5781 76.594 44.5781 72.0317C44.5781 67.4416 48.1728 63.9609 52.8486 63.9609C56.8083 63.9609 59.9957 66.4709 60.5012 70.0764H56.6117C56.2466 68.4539 54.8004 67.3723 52.8486 67.3723C50.1526 67.3723 48.3693 69.4246 48.3693 72.0317C48.3693 74.6387 50.1526 76.691 52.8486 76.691C54.8004 76.691 56.2466 75.6233 56.6117 73.9592Z" fill="#002584"></path>
  <path d="M80.1172 71.1985C80.1172 67.3156 83.2484 64.251 87.2082 64.251C90.9853 64.251 94.2149 67.2879 94.2149 71.1985V79.7268H90.4096V71.1153C90.4096 69.3264 89.0336 67.8149 87.2082 67.8149C85.3406 67.8149 83.9224 69.2986 83.9224 71.1153V79.7268H80.1172V71.1985Z" fill="#002584"></path>
  <path d="M104.293 76.1623V79.7123H102.145C99.0138 79.7123 96.7109 77.7432 96.7109 74.5815V60.8945H100.516V64.5416H104.265V67.8004H100.516V73.9297C100.516 75.2887 101.345 76.1762 102.763 76.1762H104.293V76.1623Z" fill="#002584"></path>
  <path d="M106.812 69.5207C106.812 66.359 109.115 64.2373 112.247 64.2373H114.395V67.8012H112.864C111.446 67.8012 110.618 68.6748 110.618 70.0477V79.727H106.812V69.5207Z" fill="#002584"></path>
  <path d="M116.336 60.5211C116.336 59.2453 117.417 58.1914 118.695 58.1914C119.987 58.1914 121.054 59.2592 121.054 60.5211C121.054 61.7969 119.973 62.8508 118.695 62.8508C117.417 62.8508 116.336 61.783 116.336 60.5211ZM116.799 64.5565H120.605V79.7272H116.799V64.5565Z" fill="#002584"></path>
  <path d="M134.768 73.9592H138.657C138.166 77.6063 134.965 80.0746 131.005 80.0746C126.329 80.0746 122.734 76.594 122.734 72.0317C122.734 67.4416 126.329 63.9609 131.005 63.9609C134.965 63.9609 138.152 66.4709 138.657 70.0764H134.768C134.403 68.4539 132.957 67.3723 131.005 67.3723C128.309 67.3723 126.526 69.4246 126.526 72.0317C126.526 74.6387 128.309 76.691 131.005 76.691C132.957 76.691 134.403 75.6233 134.768 73.9592Z" fill="#002584"></path>
  <path d="M140.626 64.9461H140.106V66.3328H139.699V64.9461H139.18V64.6133H140.626V64.9461Z" fill="#002584"></path>
  <path d="M142.515 66.3182L142.459 65.2781L141.995 66.3182H141.77L141.307 65.2781L141.251 66.3182H140.844L140.97 64.5986H141.433L141.897 65.6525L142.36 64.5986H142.824L142.95 66.3182H142.515Z" fill="#002584"></path>
  <defs>
    <linearGradient id="paint0_linear_9814_11646" x1="70.0672" y1="5.07298" x2="70.0672" y2="46.35" gradientUnits="userSpaceOnUse">
      <stop stop-color="#0036FF"></stop>
      <stop offset="0.9978" stop-color="#00FF6B"></stop>
    </linearGradient>
    <linearGradient id="paint1_linear_9814_11646" x1="75.8065" y1="5.07416" x2="75.8065" y2="46.3512" gradientUnits="userSpaceOnUse">
      <stop stop-color="#0036FF"></stop>
      <stop offset="0.9978" stop-color="#00FF6B"></stop>
    </linearGradient>
    <linearGradient id="paint2_linear_9814_11646" x1="80.2389" y1="5.07372" x2="80.2389" y2="46.3507" gradientUnits="userSpaceOnUse">
      <stop stop-color="#0036FF"></stop>
      <stop offset="0.9978" stop-color="#00FF6B"></stop>
    </linearGradient>
    <linearGradient id="paint3_linear_9814_11646" x1="78.3071" y1="5.07398" x2="78.3071" y2="46.351" gradientUnits="userSpaceOnUse">
      <stop stop-color="#0036FF"></stop>
      <stop offset="0.9978" stop-color="#00FF6B"></stop>
    </linearGradient>
    <linearGradient id="paint4_linear_9814_11646" x1="73.0922" y1="5.07562" x2="73.0922" y2="46.3526" gradientUnits="userSpaceOnUse">
      <stop stop-color="#0036FF"></stop>
      <stop offset="0.9978" stop-color="#00FF6B"></stop>
    </linearGradient>
    <linearGradient id="paint5_linear_9814_11646" x1="67.1782" y1="5.07439" x2="67.1782" y2="46.3514" gradientUnits="userSpaceOnUse">
      <stop stop-color="#0036FF"></stop>
      <stop offset="0.9978" stop-color="#00FF6B"></stop>
    </linearGradient>
    <linearGradient id="paint6_linear_9814_11646" x1="61.9392" y1="5.0742" x2="61.9392" y2="46.3512" gradientUnits="userSpaceOnUse">
      <stop stop-color="#0036FF"></stop>
      <stop offset="0.9978" stop-color="#00FF6B"></stop>
    </linearGradient>
    <linearGradient id="paint7_linear_9814_11646" x1="58.5653" y1="5.07636" x2="58.5653" y2="46.3534" gradientUnits="userSpaceOnUse">
      <stop stop-color="#0036FF"></stop>
      <stop offset="0.9978" stop-color="#00FF6B"></stop>
    </linearGradient>
    <linearGradient id="paint8_linear_9814_11646" x1="57.8411" y1="5.07421" x2="57.8411" y2="46.3512" gradientUnits="userSpaceOnUse">
      <stop stop-color="#0036FF"></stop>
      <stop offset="0.9978" stop-color="#00FF6B"></stop>
    </linearGradient>
    <linearGradient id="paint9_linear_9814_11646" x1="59.923" y1="5.0747" x2="59.923" y2="46.3517" gradientUnits="userSpaceOnUse">
      <stop stop-color="#0036FF"></stop>
      <stop offset="0.9978" stop-color="#00FF6B"></stop>
    </linearGradient>
    <linearGradient id="paint10_linear_9814_11646" x1="64.3385" y1="5.07464" x2="64.3385" y2="46.3517" gradientUnits="userSpaceOnUse">
      <stop stop-color="#0036FF"></stop>
      <stop offset="0.9978" stop-color="#00FF6B"></stop>
    </linearGradient>
    <linearGradient id="paint11_linear_9814_11646" x1="70.058" y1="5.073" x2="70.058" y2="46.35" gradientUnits="userSpaceOnUse">
      <stop stop-color="#0036FF"></stop>
      <stop offset="0.9978" stop-color="#00FF6B"></stop>
    </linearGradient>
    <linearGradient id="paint12_linear_9814_11646" x1="76.0716" y1="5.07558" x2="76.0716" y2="46.3526" gradientUnits="userSpaceOnUse">
      <stop stop-color="#0036FF"></stop>
      <stop offset="0.9978" stop-color="#00FF6B"></stop>
    </linearGradient>
    <linearGradient id="paint13_linear_9814_11646" x1="81.4429" y1="5.07345" x2="81.4429" y2="46.3505" gradientUnits="userSpaceOnUse">
      <stop stop-color="#0036FF"></stop>
      <stop offset="0.9978" stop-color="#00FF6B"></stop>
    </linearGradient>
    <linearGradient id="paint14_linear_9814_11646" x1="85.5769" y1="5.07467" x2="85.5769" y2="46.3517" gradientUnits="userSpaceOnUse">
      <stop stop-color="#0036FF"></stop>
      <stop offset="0.9978" stop-color="#00FF6B"></stop>
    </linearGradient>
    <linearGradient id="paint15_linear_9814_11646" x1="83.7543" y1="5.07455" x2="83.7543" y2="46.3515" gradientUnits="userSpaceOnUse">
      <stop stop-color="#0036FF"></stop>
      <stop offset="0.9978" stop-color="#00FF6B"></stop>
    </linearGradient>
    <linearGradient id="paint16_linear_9814_11646" x1="78.9567" y1="5.07469" x2="78.9567" y2="46.3517" gradientUnits="userSpaceOnUse">
      <stop stop-color="#0036FF"></stop>
      <stop offset="0.9978" stop-color="#00FF6B"></stop>
    </linearGradient>
    <linearGradient id="paint17_linear_9814_11646" x1="73.1962" y1="5.07375" x2="73.1962" y2="46.3508" gradientUnits="userSpaceOnUse">
      <stop stop-color="#0036FF"></stop>
      <stop offset="0.9978" stop-color="#00FF6B"></stop>
    </linearGradient>
    <linearGradient id="paint18_linear_9814_11646" x1="67.0998" y1="5.07452" x2="67.0998" y2="46.3515" gradientUnits="userSpaceOnUse">
      <stop stop-color="#0036FF"></stop>
      <stop offset="0.9978" stop-color="#00FF6B"></stop>
    </linearGradient>
    <linearGradient id="paint19_linear_9814_11646" x1="61.3263" y1="5.07564" x2="61.3263" y2="46.3526" gradientUnits="userSpaceOnUse">
      <stop stop-color="#0036FF"></stop>
      <stop offset="0.9978" stop-color="#00FF6B"></stop>
    </linearGradient>
    <linearGradient id="paint20_linear_9814_11646" x1="56.5141" y1="5.07369" x2="56.5141" y2="46.3507" gradientUnits="userSpaceOnUse">
      <stop stop-color="#0036FF"></stop>
      <stop offset="0.9978" stop-color="#00FF6B"></stop>
    </linearGradient>
    <linearGradient id="paint21_linear_9814_11646" x1="53.1622" y1="5.07507" x2="53.1622" y2="46.3521" gradientUnits="userSpaceOnUse">
      <stop stop-color="#0036FF"></stop>
      <stop offset="0.9978" stop-color="#00FF6B"></stop>
    </linearGradient>
    <linearGradient id="paint22_linear_9814_11646" x1="51.6501" y1="5.07299" x2="51.6501" y2="46.35" gradientUnits="userSpaceOnUse">
      <stop stop-color="#0036FF"></stop>
      <stop offset="0.9978" stop-color="#00FF6B"></stop>
    </linearGradient>
    <linearGradient id="paint23_linear_9814_11646" x1="52.1354" y1="5.0735" x2="52.1354" y2="46.3505" gradientUnits="userSpaceOnUse">
      <stop stop-color="#0036FF"></stop>
      <stop offset="0.9978" stop-color="#00FF6B"></stop>
    </linearGradient>
    <linearGradient id="paint24_linear_9814_11646" x1="54.5747" y1="5.07394" x2="54.5747" y2="46.3509" gradientUnits="userSpaceOnUse">
      <stop stop-color="#0036FF"></stop>
      <stop offset="0.9978" stop-color="#00FF6B"></stop>
    </linearGradient>
    <linearGradient id="paint25_linear_9814_11646" x1="58.6899" y1="5.07344" x2="58.6899" y2="46.3505" gradientUnits="userSpaceOnUse">
      <stop stop-color="#0036FF"></stop>
      <stop offset="0.9978" stop-color="#00FF6B"></stop>
    </linearGradient>
    <linearGradient id="paint26_linear_9814_11646" x1="64.0417" y1="5.07572" x2="64.0417" y2="46.3527" gradientUnits="userSpaceOnUse">
      <stop stop-color="#0036FF"></stop>
      <stop offset="0.9978" stop-color="#00FF6B"></stop>
    </linearGradient>
    <linearGradient id="paint27_linear_9814_11646" x1="70.0428" y1="5.07457" x2="70.0428" y2="46.3516" gradientUnits="userSpaceOnUse">
      <stop stop-color="#0036FF"></stop>
      <stop offset="0.9978" stop-color="#00FF6B"></stop>
    </linearGradient>
    <linearGradient id="paint28_linear_9814_11646" x1="76.184" y1="5.07398" x2="76.184" y2="46.351" gradientUnits="userSpaceOnUse">
      <stop stop-color="#0036FF"></stop>
      <stop offset="0.9978" stop-color="#00FF6B"></stop>
    </linearGradient>
    <linearGradient id="paint29_linear_9814_11646" x1="81.9431" y1="5.07479" x2="81.9431" y2="46.3518" gradientUnits="userSpaceOnUse">
      <stop stop-color="#0036FF"></stop>
      <stop offset="0.9978" stop-color="#00FF6B"></stop>
    </linearGradient>
    <linearGradient id="paint30_linear_9814_11646" x1="86.9616" y1="5.07393" x2="86.9616" y2="46.3509" gradientUnits="userSpaceOnUse">
      <stop stop-color="#0036FF"></stop>
      <stop offset="0.9978" stop-color="#00FF6B"></stop>
    </linearGradient>
    <linearGradient id="paint31_linear_9814_11646" x1="90.9223" y1="5.07278" x2="90.9223" y2="46.3498" gradientUnits="userSpaceOnUse">
      <stop stop-color="#0036FF"></stop>
      <stop offset="0.9978" stop-color="#00FF6B"></stop>
    </linearGradient>
    <linearGradient id="paint32_linear_9814_11646" x1="89.1651" y1="5.07534" x2="89.1651" y2="46.3523" gradientUnits="userSpaceOnUse">
      <stop stop-color="#0036FF"></stop>
      <stop offset="0.9978" stop-color="#00FF6B"></stop>
    </linearGradient>
    <linearGradient id="paint33_linear_9814_11646" x1="84.6614" y1="5.07531" x2="84.6614" y2="46.3523" gradientUnits="userSpaceOnUse">
      <stop stop-color="#0036FF"></stop>
      <stop offset="0.9978" stop-color="#00FF6B"></stop>
    </linearGradient>
    <linearGradient id="paint34_linear_9814_11646" x1="79.244" y1="5.07484" x2="79.244" y2="46.3518" gradientUnits="userSpaceOnUse">
      <stop stop-color="#0036FF"></stop>
      <stop offset="0.9978" stop-color="#00FF6B"></stop>
    </linearGradient>
    <linearGradient id="paint35_linear_9814_11646" x1="73.264" y1="5.07472" x2="73.264" y2="46.3517" gradientUnits="userSpaceOnUse">
      <stop stop-color="#0036FF"></stop>
      <stop offset="0.9978" stop-color="#00FF6B"></stop>
    </linearGradient>
    <linearGradient id="paint36_linear_9814_11646" x1="67.0656" y1="5.07622" x2="67.0656" y2="46.3533" gradientUnits="userSpaceOnUse">
      <stop stop-color="#0036FF"></stop>
      <stop offset="0.9978" stop-color="#00FF6B"></stop>
    </linearGradient>
    <linearGradient id="paint37_linear_9814_11646" x1="61.073" y1="5.07556" x2="61.073" y2="46.3526" gradientUnits="userSpaceOnUse">
      <stop stop-color="#0036FF"></stop>
      <stop offset="0.9978" stop-color="#00FF6B"></stop>
    </linearGradient>
    <linearGradient id="paint38_linear_9814_11646" x1="55.6397" y1="5.07347" x2="55.6397" y2="46.3505" gradientUnits="userSpaceOnUse">
      <stop stop-color="#0036FF"></stop>
      <stop offset="0.9978" stop-color="#00FF6B"></stop>
    </linearGradient>
    <linearGradient id="paint39_linear_9814_11646" x1="51.1165" y1="5.07477" x2="51.1165" y2="46.3518" gradientUnits="userSpaceOnUse">
      <stop stop-color="#0036FF"></stop>
      <stop offset="0.9978" stop-color="#00FF6B"></stop>
    </linearGradient>
    <linearGradient id="paint40_linear_9814_11646" x1="47.7895" y1="5.07505" x2="47.7895" y2="46.3521" gradientUnits="userSpaceOnUse">
      <stop stop-color="#0036FF"></stop>
      <stop offset="0.9978" stop-color="#00FF6B"></stop>
    </linearGradient>
    <linearGradient id="paint41_linear_9814_11646" x1="45.8571" y1="5.07309" x2="45.8571" y2="46.3501" gradientUnits="userSpaceOnUse">
      <stop stop-color="#0036FF"></stop>
      <stop offset="0.9978" stop-color="#00FF6B"></stop>
    </linearGradient>
    <linearGradient id="paint42_linear_9814_11646" x1="45.457" y1="5.07328" x2="45.457" y2="46.3503" gradientUnits="userSpaceOnUse">
      <stop stop-color="#0036FF"></stop>
      <stop offset="0.9978" stop-color="#00FF6B"></stop>
    </linearGradient>
    <linearGradient id="paint43_linear_9814_11646" x1="46.6036" y1="5.07389" x2="46.6036" y2="46.3509" gradientUnits="userSpaceOnUse">
      <stop stop-color="#0036FF"></stop>
      <stop offset="0.9978" stop-color="#00FF6B"></stop>
    </linearGradient>
    <linearGradient id="paint44_linear_9814_11646" x1="49.2248" y1="5.07598" x2="49.2248" y2="46.353" gradientUnits="userSpaceOnUse">
      <stop stop-color="#0036FF"></stop>
      <stop offset="0.9978" stop-color="#00FF6B"></stop>
    </linearGradient>
    <linearGradient id="paint45_linear_9814_11646" x1="53.1542" y1="5.07369" x2="53.1542" y2="46.3507" gradientUnits="userSpaceOnUse">
      <stop stop-color="#0036FF"></stop>
      <stop offset="0.9978" stop-color="#00FF6B"></stop>
    </linearGradient>
    <linearGradient id="paint46_linear_9814_11646" x1="58.1534" y1="5.07483" x2="58.1534" y2="46.3518" gradientUnits="userSpaceOnUse">
      <stop stop-color="#0036FF"></stop>
      <stop offset="0.9978" stop-color="#00FF6B"></stop>
    </linearGradient>
    <linearGradient id="paint47_linear_9814_11646" x1="63.9049" y1="5.0735" x2="63.9049" y2="46.3505" gradientUnits="userSpaceOnUse">
      <stop stop-color="#0036FF"></stop>
      <stop offset="0.9978" stop-color="#00FF6B"></stop>
    </linearGradient>
  </defs>
</svg>
