<?xml version="1.0" encoding="UTF-8"?>
<svg xmlns="http://www.w3.org/2000/svg" width="48" height="49" viewBox="0 0 48 49" fill="none">
  <path d="M19.893 15.649C13.7806 11.4785 8.082 14.6621 3.30664 19.5648L13.8761 25.9319" stroke="#D4FF27" stroke-width="2" stroke-linecap="round" stroke-linejoin="round"></path>
  <path d="M32.5637 28.3201C36.7341 34.4324 33.5505 40.131 28.6479 44.9063L22.2808 34.3369" stroke="#D4FF27" stroke-width="2" stroke-linecap="round" stroke-linejoin="round"></path>
  <path d="M13.876 25.9007L22.3124 34.3372C29.0616 30.294 36.734 26.3783 40.2359 22.749C47.8128 15.1721 43.4195 4.79365 43.4195 4.79365C43.4195 4.79365 33.0411 0.400325 25.4642 7.97721C21.8349 11.4791 17.8873 19.1834 13.876 25.9007Z" stroke="#D4FF27" stroke-width="2" stroke-linecap="round" stroke-linejoin="round"></path>
  <path d="M18.5244 17.9097L30.3036 29.6889" stroke="#D4FF27" stroke-width="2" stroke-linecap="round" stroke-linejoin="round"></path>
  <path d="M13.4304 41.5314C11.5839 43.3142 3.30664 44.906 3.30664 44.906C3.30664 44.906 4.89843 36.6287 6.68123 34.7823C7.11839 34.3133 7.64559 33.937 8.23137 33.6759C8.81715 33.4149 9.4495 33.2746 10.0907 33.2633C10.7319 33.252 11.3688 33.3699 11.9634 33.6101C12.558 33.8501 13.0982 34.2076 13.5516 34.6613C14.0051 35.1146 14.3625 35.6549 14.6027 36.2496C14.8429 36.8439 14.9609 37.481 14.9495 38.1221C14.9382 38.7633 14.7979 39.3956 14.5369 39.9814C14.2759 40.5671 13.8996 41.0943 13.4304 41.5314Z" stroke="#D4FF27" stroke-width="2" stroke-linecap="round" stroke-linejoin="round"></path>
</svg>
