<?xml version="1.0" encoding="UTF-8"?>
<svg xmlns="http://www.w3.org/2000/svg" width="140" height="58" viewBox="0 0 140 58" fill="none">
  <path d="M28.5123 12.715L21.143 5.47887L13.7736 12.7148L10.9844 9.97626L21.143 0.000976562L31.3017 9.97641L28.5123 12.715Z" fill="#44B8F3"></path>
  <path d="M0.734629 15.257L15.6269 15.2571L15.6269 19.3798L5.21998 19.3798L5.21992 24.3838L14.1916 24.3838L14.1916 28.5419L5.21988 28.5418L5.21982 33.6862L15.6267 33.6863L15.6267 37.8444L0.734375 37.8443L0.734629 15.257ZM18.9527 13.6006L23.3311 13.6006L23.3309 34.6281L23.3309 37.8444L18.9525 37.8444L18.9527 13.6006ZM26.0073 29.4223C26.0074 24.4899 29.7402 20.4722 34.6923 20.4723C39.6084 20.4723 43.3402 24.2074 43.3402 29.0702C43.3401 29.5991 43.3042 30.1978 43.2322 30.4803L30.4936 30.4802C30.9234 32.8405 32.7543 34.5324 35.4097 34.5324C37.1317 34.5324 38.6029 33.7924 39.6083 32.7708L41.8689 35.6954C40.5767 37.1753 38.1371 38.3382 35.2298 38.3381C29.8829 38.3381 26.0073 34.3204 26.0073 29.4223ZM30.5647 27.7668L38.8548 27.7668C38.3521 25.3703 36.809 24.1368 34.7633 24.1367C32.5745 24.1367 31.0674 25.6175 30.5647 27.7668ZM61.9748 20.9661L55.7662 37.8447L50.0965 37.8446L43.8524 20.9659L48.6616 20.966L53.0389 34.0036L57.4894 20.966L61.9748 20.9661ZM75.8021 36.0126C74.5458 37.4572 72.7878 38.3384 70.5631 38.3384C66.0058 38.3384 62.309 34.673 62.3091 29.4226C62.3091 24.3136 65.7901 20.4725 70.5633 20.4725C72.824 20.4726 74.582 21.2832 75.8022 22.6571L75.8023 20.9662L80.2157 20.9662L80.2155 37.8449L75.8021 37.8448L75.8021 36.0126ZM75.8022 29.3874C75.8022 26.6748 73.9003 24.5247 71.2809 24.5247C68.6254 24.5246 66.6875 26.6748 66.6875 29.3873C66.6875 32.1008 68.6253 34.2854 71.2807 34.2854C73.9002 34.2854 75.8021 32.1009 75.8022 29.3874ZM88.0452 37.8449L83.6668 37.8449L83.667 20.9662L88.0454 20.9663L88.0454 22.6219C89.1218 21.248 90.7728 20.4727 92.8896 20.4727C96.8733 20.4727 99.4208 23.2216 99.4207 27.626L99.4206 37.845L95.0431 37.845L95.0432 28.2609C95.0433 25.9703 93.6791 24.5248 91.5623 24.5248C89.3727 24.5248 88.0454 25.9703 88.0453 28.2608L88.0452 37.8449ZM110.998 24.525C108.128 24.5249 106.19 26.6751 106.19 29.3876C106.19 32.1011 108.164 34.2857 110.962 34.2857C112.721 34.2857 114.12 33.6871 115.197 32.6301L117.421 35.801C116.058 37.2818 113.583 38.3387 110.855 38.3387C105.759 38.3387 101.812 34.321 101.812 29.4229C101.812 24.4905 105.759 20.4728 110.783 20.4728C113.726 20.4729 116.058 21.4601 117.565 23.0098L115.054 26.0756C113.977 25.0539 112.685 24.525 110.998 24.525ZM118.608 29.4231C118.608 24.4906 122.34 20.4729 127.293 20.473C132.209 20.473 135.941 24.2082 135.94 29.0709C135.94 29.5998 135.904 30.1985 135.833 30.481L123.094 30.4809C123.524 32.8412 125.355 34.5331 128.01 34.5331C129.732 34.5331 131.203 33.7932 132.209 32.7715L134.469 35.6961C133.177 37.176 130.737 38.3389 127.83 38.3388C122.483 38.3388 118.608 34.3211 118.608 29.4231ZM123.165 27.7675L131.455 27.7675C130.952 25.371 129.409 24.1375 127.364 24.1374C125.175 24.1374 123.668 25.6182 123.165 27.7675ZM77.1907 51.3227L70.8472 51.3225L70.8471 57.6685L67.8442 57.6684L67.8446 42.5469L70.8474 42.547L70.8473 48.5625L77.1907 48.5626L77.1909 42.5471L80.2184 42.5472L80.2181 57.6687L77.1905 57.6686L77.1907 51.3227ZM82.1263 52.0304C82.1264 48.7282 84.6248 46.0386 87.9407 46.0386C91.2319 46.0387 93.7302 48.5393 93.7301 51.7947C93.7301 52.1488 93.706 52.5496 93.6578 52.7388L85.1297 52.7386C85.4174 54.3188 86.6431 55.4514 88.4209 55.4515C89.5737 55.4515 90.5586 54.9561 91.2317 54.2722L92.7451 56.2301C91.88 57.2208 90.2467 57.9993 88.3004 57.9993C84.7208 57.9992 82.1262 55.3095 82.1263 52.0304ZM85.1773 50.922L90.7273 50.9221C90.3908 49.3178 89.3577 48.4919 87.9882 48.4919C86.5229 48.4918 85.5139 49.4832 85.1773 50.922ZM104.246 56.4426C103.405 57.4096 102.228 57.9996 100.739 57.9996C97.688 57.9995 95.2132 55.5456 95.2133 52.0306C95.2134 48.6103 97.5438 46.0388 100.739 46.0389C102.253 46.0389 103.43 46.5816 104.247 47.5015L104.247 46.3694L107.201 46.3695L107.201 57.6692L104.246 57.6692L104.246 56.4426ZM104.247 52.0072C104.247 50.1912 102.973 48.7517 101.22 48.7517C99.4419 48.7516 98.1445 50.1911 98.1445 52.007C98.1445 53.8236 99.4418 55.2862 101.22 55.2862C102.973 55.2862 104.246 53.8238 104.247 52.0072ZM109.692 41.4388L112.623 41.4388L112.623 56.0585L112.623 57.6694L109.692 57.6693L109.692 41.4388ZM114.586 46.3696L116.628 46.3697L116.628 43.4447L119.559 43.4447L119.559 46.3697L122.682 46.3698L122.682 48.9176L119.583 48.9176L119.583 53.7065C119.583 54.7682 120.039 55.2866 120.904 55.2866C121.433 55.2866 121.961 55.0508 122.249 54.7209L123.571 56.8674C122.922 57.481 121.841 58 120.423 58C118.093 57.9999 116.604 56.5604 116.604 53.8004L116.604 48.9175L114.586 48.9175L114.586 46.3696ZM128.313 57.6697L125.381 57.6696L125.382 41.4391L128.313 41.4391L128.313 47.4783C129.033 46.5585 130.139 46.0395 131.556 46.0395C134.223 46.0396 135.928 47.8799 135.928 50.8285L135.928 57.6698L132.997 57.6698L132.998 51.2535C132.998 49.72 132.084 48.7523 130.667 48.7523C129.201 48.7522 128.313 49.7199 128.313 51.2534L128.313 57.6697ZM137.099 36.3136C137.007 36.1862 136.814 36.0768 136.595 36.0768C136.351 36.0768 136.199 36.1825 136.199 36.3448C136.199 36.7837 137.334 36.5845 137.334 37.2935C137.334 37.6455 137.042 37.8823 136.589 37.8823C136.209 37.8823 135.961 37.736 135.822 37.5427L136.028 37.3529C136.164 37.5275 136.361 37.6173 136.592 37.6173C136.871 37.6173 137.029 37.4992 137.029 37.3124C137.029 36.8271 135.895 37.0415 135.895 36.3542C135.895 36.0333 136.183 35.8125 136.605 35.8125C136.922 35.8125 137.178 35.9493 137.302 36.121L137.099 36.3136ZM137.937 36.2977V37.8447H137.652V35.8501H137.982L138.714 36.9922L139.443 35.8501H139.734V37.8447H139.449V36.2977L138.695 37.4529L137.937 36.2977Z" fill="#1A3673"></path>
</svg>
