<?xml version="1.0" encoding="UTF-8"?>
<svg xmlns="http://www.w3.org/2000/svg" width="41" height="41" viewBox="0 0 41 41" fill="none">
  <path d="M3.75537 32.9508V23.3502L12.1559 19.75L20.5566 23.3502V32.9508L12.1559 36.551L3.75537 32.9508Z" stroke="#D4FF27" stroke-width="2" stroke-linecap="round" stroke-linejoin="round"></path>
  <path d="M3.75537 23.3306L12.1559 26.9308L20.5566 23.3306" stroke="#D4FF27" stroke-width="2" stroke-linecap="round" stroke-linejoin="round"></path>
  <path d="M12.1553 10.2129L20.5559 13.8131L28.9565 10.2129" stroke="#D4FF27" stroke-width="2" stroke-linecap="round" stroke-linejoin="round"></path>
  <path d="M20.5562 23.3306L28.9567 26.9308L37.3574 23.3306" stroke="#D4FF27" stroke-width="2" stroke-linecap="round" stroke-linejoin="round"></path>
  <path d="M12.1611 19.7432V10.1425L20.5617 6.54224L28.9624 10.1425V19.7432L20.5617 23.3434L12.1611 19.7432Z" stroke="#D4FF27" stroke-width="2" stroke-linecap="round" stroke-linejoin="round"></path>
  <path d="M20.5562 32.9508V23.3502L28.9567 19.75L37.3574 23.3502V32.9508L28.9567 36.551L20.5562 32.9508Z" stroke="#D4FF27" stroke-width="2" stroke-linecap="round" stroke-linejoin="round"></path>
  <path d="M12.1553 26.9346V36.5506" stroke="#D4FF27" stroke-width="2" stroke-linecap="round" stroke-linejoin="round"></path>
  <path d="M28.9619 26.9346V36.5506" stroke="#D4FF27" stroke-width="2" stroke-linecap="round" stroke-linejoin="round"></path>
  <path d="M20.5562 13.8132V23.4292" stroke="#D4FF27" stroke-width="2" stroke-linecap="round" stroke-linejoin="round"></path>
</svg>
