<?xml version="1.0" encoding="UTF-8"?>
<svg xmlns="http://www.w3.org/2000/svg" width="180" height="45" viewBox="0 0 180 45" fill="none">
  <g clip-path="url(#clip0_9814_5481)">
    <path d="M172.125 13.6031C172.417 13.7166 172.824 13.8427 173.277 13.8427C173.831 13.8427 174.157 13.6283 174.157 13.1868C174.157 12.6908 173.787 12.5395 173.177 12.3377C172.462 12.0981 172.026 11.7786 172.026 11.0639C172.026 10.2904 172.557 9.85738 173.457 9.85738C173.853 9.85738 174.275 9.95407 174.547 10.0676L174.42 10.6141C174.128 10.5132 173.815 10.4375 173.495 10.4375C172.944 10.4375 172.68 10.6477 172.68 11.0429C172.68 11.4717 172.959 11.6188 173.495 11.7996C174.235 12.0518 174.814 12.3166 174.814 13.1827C174.814 14.0487 174.148 14.427 173.305 14.427C172.787 14.427 172.31 14.3177 172.001 14.1832L172.125 13.6072V13.6031ZM179.996 9.93304V14.3472H179.391V11.7954C179.391 11.5305 179.404 11.2867 179.42 11.0597C179.07 11.8795 178.627 12.716 178.051 13.6324H177.529C176.948 12.7203 176.505 11.8753 176.139 11.0555C176.164 11.2783 176.176 11.5263 176.176 11.7996V14.3513H175.576V9.93725H176.242C176.661 10.9882 177.154 11.9425 177.791 12.9767C178.421 11.9425 178.903 10.9924 179.322 9.93725H179.992L179.996 9.93304ZM75.6723 32.1129C73.7888 32.9243 71.6545 33.4413 69.5612 33.4413C65.457 33.4413 62.9033 31.3437 62.4879 26.7656H76.762C76.8443 25.9542 76.9307 25.0125 76.9307 23.8985C76.9307 18.4629 73.6655 14.3976 68.1384 14.3976C62.0273 14.3976 58.1328 19.0639 58.1328 25.7398C58.1328 32.9705 62.529 37.124 69.1871 37.124C71.9094 37.124 74.418 36.5691 76.3878 35.6274L75.6764 32.1171L75.6723 32.1129ZM68.1384 17.9457C71.3625 17.9457 72.8265 20.4303 72.8265 23.2932C72.8265 23.5495 72.8265 23.7219 72.7854 23.9784H62.5289C62.9073 20.2999 64.8731 17.9457 68.1384 17.9457ZM78.9334 36.607H83.0788C83.9588 33.1387 85.7149 30.528 87.808 27.7914C89.6504 30.0614 91.9945 33.4834 93.3351 36.607H97.941C95.8478 31.7724 93.7134 28.7751 90.8677 25.4791C94.1741 22.0992 96.1439 19.0598 97.2296 14.9104H92.9156C92.3728 17.6052 90.7402 20.2158 88.6018 22.8685C86.5908 20.3419 84.4976 17.1764 83.6627 14.9104H79.0979C80.5208 18.9756 82.7826 22.0152 85.5873 25.1807C82.0713 28.9474 80.1466 32.155 78.9293 36.607H78.9334ZM116.607 32.1129C114.724 32.9243 112.589 33.4413 110.496 33.4413C106.392 33.4413 103.838 31.3437 103.423 26.7656H117.697C117.78 25.9542 117.866 25.0125 117.866 23.8985C117.866 18.4629 114.6 14.3976 109.073 14.3976C102.962 14.3976 99.0678 19.0639 99.0678 25.7398C99.0678 32.9705 103.464 37.124 110.122 37.124C112.845 37.124 115.353 36.5691 117.323 35.6274L116.612 32.1171L116.607 32.1129ZM109.073 17.9457C112.297 17.9457 113.762 20.4303 113.762 23.2932C113.762 23.5495 113.762 23.7219 113.72 23.9784H103.464C103.842 20.2999 105.808 17.9457 109.073 17.9457ZM125.913 36.607V5.62402L121.686 5.88047V36.607H125.913ZM149.079 25.7356C149.079 18.9756 145.395 14.3934 139.115 14.3934C132.835 14.3934 129.191 18.9715 129.191 25.7356C129.191 32.4997 132.917 37.1199 139.115 37.1199C145.312 37.1199 149.079 32.5418 149.079 25.7356ZM133.505 25.7356C133.505 21.0693 135.43 18.034 139.115 18.034C142.799 18.034 144.724 21.0734 144.724 25.7356C144.724 30.3978 142.923 33.4834 139.115 33.4834C135.307 33.4834 133.505 30.444 133.505 25.7356ZM156.843 36.607V19.1481C158.266 18.4208 159.982 18.034 161.741 18.034C164.924 18.034 166.47 19.8333 166.47 22.9568V36.607H170.698V22.6542C170.698 17.4328 167.602 14.3934 161.741 14.3934C158.517 14.3934 155.211 15.1627 152.616 16.4029V36.6027H156.843V36.607Z" fill="#170D66"></path>
    <path d="M44.0573 27.0941C43.4166 25.2482 42.3775 23.3565 41.4452 21.7522C40.2542 19.698 39.9133 17.6895 40.3076 15.027C40.8826 11.1476 39.8722 7.59331 37.601 5.51823C36.1101 4.15567 33.3789 2.77646 28.8489 3.96817C25.1608 4.93487 21.7561 3.10147 19.0208 1.6264C16.9179 0.493028 15.2546 -0.402842 13.9732 0.184681C13.2298 0.526362 12.7164 1.34306 12.4043 2.68062C11.5828 6.2141 10.7902 8.65586 9.9072 10.3684C9.17204 11.7935 8.38759 12.706 7.29101 13.4103C4.56393 15.1645 2.55969 17.1187 1.33579 19.2146C0.255639 21.0856 -0.187922 23.0731 0.0585008 24.9607C0.276174 26.6149 1.01955 28.1775 2.20237 29.4692C3.35235 30.7276 4.85964 31.6693 6.55995 32.2027C7.90707 32.6235 8.98312 33.361 9.8456 34.4527C10.667 35.4945 11.3036 36.8737 11.7882 38.6654C12.2194 40.2655 12.9095 41.6073 13.8377 42.6656C14.7617 43.7198 15.8748 44.4282 17.1438 44.7699C17.7106 44.924 18.2938 44.999 18.8934 44.999C19.8093 44.999 20.7622 44.8198 21.7314 44.4573C23.4194 43.8323 25.095 42.6865 26.7174 41.053C28.2944 39.4655 29.7443 38.4612 31.2762 37.8987C32.6314 37.3987 33.8882 37.3112 35.2148 37.2154C36.7263 37.107 38.291 36.9945 40.1433 36.2778C42.3858 35.4069 43.8191 34.1069 44.4023 32.4152C44.9074 30.9484 44.7965 29.2109 44.0655 27.0941H44.0573ZM40.8415 26.9857C40.5663 30.015 39.1453 32.5026 36.6235 34.3819C35.5147 35.2027 34.4345 35.7444 33.3338 36.2154C34.0936 35.6278 34.8082 34.9777 35.4695 34.257C37.026 32.561 38.2089 30.6068 38.9851 28.4442C39.7366 26.3565 40.0776 24.169 39.9996 21.9398C39.9832 21.4522 39.942 20.9689 39.8845 20.4897C39.9626 20.6481 40.0324 20.798 40.1064 20.9564C40.7594 23.1315 41.0098 25.1523 40.8456 26.9857H40.8415ZM23.6576 39.0363C23.4605 39.0446 23.2633 39.0488 23.0662 39.0488C18.9427 39.0488 15.0328 37.4903 12.0018 34.6236C8.82294 31.6193 6.9912 27.5441 6.83513 23.1398C6.67906 18.7354 8.22742 14.5353 11.1845 11.3143C14.1457 8.08917 18.1623 6.23076 22.5035 6.07243C22.7007 6.06409 22.8978 6.05993 23.0949 6.05993C27.2184 6.05993 31.1283 7.61832 34.1593 10.4851C37.3382 13.4893 39.1699 17.5645 39.326 21.9689C39.4821 26.3733 37.9337 30.5734 34.9766 33.7944C32.0154 37.0195 27.9987 38.8779 23.6576 39.0363ZM34.6152 9.98509C32.9436 8.40586 31.0175 7.20581 28.8859 6.41827C27.6989 5.98075 26.475 5.68075 25.2347 5.5224C29.699 5.06822 33.4282 7.04746 35.6296 11.0351C35.3052 10.6726 34.9726 10.3226 34.6152 9.98509ZM16.1581 6.87662C14.0882 7.81416 12.2523 9.15172 10.6958 10.8476C10.6465 10.9018 10.6013 10.9601 10.552 11.0143C10.7409 10.5893 10.9299 10.1351 11.127 9.64758C11.3241 9.26422 11.5254 8.8767 11.7389 8.46836C13.3284 5.47657 16.0513 5.58491 19.4971 5.7224C19.5587 5.7224 19.6245 5.72658 19.6861 5.73074C18.4745 5.98075 17.2958 6.35993 16.1581 6.87662ZM6.16157 23.1565C6.23961 25.3857 6.73245 27.5441 7.62779 29.5692C8.1576 30.7692 8.81883 31.8943 9.59917 32.9318C7.48404 31.3109 6.03425 29.0942 5.48801 26.6066C4.92946 24.0606 5.31141 21.3397 6.5846 18.6729C6.25193 20.1355 6.10407 21.6356 6.15747 23.1565H6.16157ZM17.267 38.6821C19.1317 39.3738 21.0784 39.7196 23.062 39.7196C23.2674 39.7196 23.4728 39.7196 23.674 39.7071C24.6925 39.6697 25.6947 39.5404 26.6762 39.3237C25.013 40.2988 23.2674 40.8113 21.5547 40.8113C21.1975 40.8113 20.8442 40.7905 20.4952 40.7447C18.4375 40.4905 16.6099 39.5071 15.2093 37.9112C15.119 37.807 15.0287 37.7071 14.9342 37.6071C15.6817 38.0237 16.4579 38.3821 17.267 38.6821ZM37.5188 13.3019C37.2027 12.6727 36.8782 12.0185 36.5619 11.3685C35.4531 9.08922 33.8349 7.28497 31.8841 6.15993C30.7382 5.50157 29.4978 5.08072 28.1754 4.88488C30.4548 4.65153 32.4878 5.13488 34.1059 6.3141C35.145 7.07246 36.0034 8.09334 36.6523 9.34756C37.2807 10.5601 37.6832 11.9352 37.8557 13.4311C37.8844 13.6894 37.9213 13.9395 37.9583 14.1894C37.8105 13.8936 37.6626 13.5977 37.5188 13.3019ZM19.5177 5.04322C17.7886 4.97238 16.1581 4.90987 14.7371 5.27239C13.739 5.52656 12.9218 5.97242 12.2523 6.63495C12.3674 6.3141 12.4783 5.98909 12.5973 5.6474C13.1682 3.989 14.0019 3.40981 15.2422 3.40981C16.1787 3.40981 17.3451 3.74316 18.8031 4.18901C19.8463 4.50986 21.0044 4.8682 22.2448 5.09321C21.3207 5.10989 20.413 5.07655 19.5219 5.04322H19.5177ZM6.67495 17.0812C4.78982 20.2938 4.15323 23.6398 4.83911 26.7566C5.20873 28.44 5.96443 30.0067 7.04459 31.3651C4.94999 30.0651 3.57003 28.0691 3.21681 25.7857C2.88415 23.619 3.33593 20.2105 7.20065 16.1395C7.02816 16.4645 6.85567 16.7812 6.67906 17.0812H6.67495ZM14.7125 38.3655C16.2238 40.0864 18.1952 41.1447 20.4172 41.4197C20.7949 41.4655 21.177 41.4906 21.563 41.4906C22.8978 41.4906 24.2449 41.1989 25.5633 40.6447C23.3167 42.2155 20.9634 42.8198 18.8318 42.3489C16.6921 41.8739 14.9301 40.3613 13.8664 38.0904C13.6117 37.5445 13.2873 36.9945 12.9095 36.4529C13.5009 37.0278 14.1005 37.6654 14.7165 38.3696L14.7125 38.3655ZM34.993 36.1819C35.6625 35.8361 36.332 35.4361 37.0179 34.9236C39.7039 32.9277 41.2152 30.2776 41.5068 27.0441C41.5848 26.1691 41.5684 25.2523 41.4699 24.3066C41.975 25.8483 42.242 27.2317 42.2584 28.465C42.2749 29.8359 41.9873 31.0526 41.4 32.086C40.743 33.2485 39.6874 34.2194 38.2623 34.9777C37.0999 35.5986 36.0485 35.9236 34.993 36.1778V36.1819ZM37.1575 6.02242C39.2602 7.94333 40.1926 11.2726 39.6504 14.927C39.5149 15.8353 39.4698 16.6645 39.5026 17.4562C39.3835 17.1813 39.2644 16.9104 39.137 16.6396C38.866 15.6186 38.6648 14.5436 38.5252 13.356C38.3444 11.7769 37.9132 10.3226 37.2478 9.03505C36.5496 7.68499 35.6255 6.58494 34.5002 5.76825C33.4324 4.98905 32.2002 4.4932 30.8531 4.27652C34.0074 3.90566 35.9992 4.96404 37.1575 6.02242ZM14.2566 0.801373C14.4414 0.718037 14.6468 0.680535 14.8685 0.680535C15.8459 0.680535 17.1972 1.40973 18.7127 2.22643C20.4007 3.13897 22.3392 4.17651 24.4584 4.65153C22.5035 4.61819 20.6677 4.05567 18.9961 3.53898C17.3984 3.0473 16.0226 2.62228 14.8316 2.74729C14.006 2.83479 13.353 3.17647 12.8356 3.79733C12.9135 3.48481 12.9875 3.16814 13.0656 2.83896C13.3243 1.71808 13.7144 1.05138 14.2607 0.80554L14.2566 0.801373ZM2.69523 29.0067C1.60685 27.815 0.925088 26.3858 0.723843 24.8691C0.489741 23.1106 0.892231 21.3231 1.91899 19.5605C3.08539 17.5562 5.01571 15.6812 7.65654 13.9852C8.00153 13.7602 8.32188 13.5144 8.6217 13.2394C8.58062 13.3227 8.54366 13.4019 8.50259 13.4852C8.05903 14.1811 7.61136 14.7478 7.12673 15.2312C2.67879 19.6897 2.18595 23.4856 2.55147 25.8857C2.8554 27.8817 3.88217 29.6734 5.44695 31.0276C4.39555 30.5234 3.45503 29.8359 2.69111 28.9984L2.69523 29.0067ZM21.4973 43.8198C20.0228 44.3657 18.6141 44.4657 17.3122 44.1115C16.1745 43.8032 15.1724 43.1614 14.3346 42.2114C13.4762 41.2363 12.8356 39.9822 12.433 38.4863C12.1209 37.332 11.7389 36.332 11.2831 35.4653C12.0675 36.3445 12.7657 37.332 13.2585 38.3821C14.4126 40.8489 16.3389 42.4906 18.688 43.0115C19.2097 43.1281 19.7436 43.1864 20.2857 43.1864C21.7108 43.1864 23.1812 42.7865 24.6309 42.0114C23.596 42.8239 22.5486 43.4322 21.5014 43.8198H21.4973ZM43.7657 32.1901C43.24 33.7069 41.975 34.8361 39.8968 35.6444C38.7223 36.0987 37.6626 36.2986 36.6482 36.4112C37.2684 36.2029 37.905 35.9403 38.5744 35.582C41.4986 34.0235 42.9648 31.6276 42.9279 28.4567C42.9156 27.3232 42.7061 26.0816 42.3077 24.719C42.7389 25.5774 43.1291 26.4565 43.4289 27.3191C44.1107 29.2818 44.2215 30.8734 43.7657 32.1901Z" fill="url(#paint0_linear_9814_5481)"></path>
  </g>
  <defs>
    <linearGradient id="paint0_linear_9814_5481" x1="8.93629" y1="34.7133" x2="41.6728" y2="9.19712" gradientUnits="userSpaceOnUse">
      <stop stop-color="#6A00C0"></stop>
      <stop offset="1" stop-color="#00E19F"></stop>
    </linearGradient>
    <clipPath id="clip0_9814_5481">
      <rect width="180" height="45" fill="white"></rect>
    </clipPath>
  </defs>
</svg>
