<?xml version="1.0" encoding="UTF-8"?>
<svg xmlns="http://www.w3.org/2000/svg" width="161" height="42" viewBox="0 0 161 42" fill="none">
  <g clip-path="url(#clip0_9814_5460)">
    <path d="M68.6134 42.0001C67.7501 42.0001 66.8917 42.0001 66.0284 42.0001C62.1656 41.7918 58.532 40.8197 55.313 38.553C51.2502 35.6962 48.9871 31.7035 48.2506 26.7883C47.6849 23.0237 48.0507 19.3534 49.6163 15.8667C51.9574 10.6489 55.9909 7.42005 61.3267 5.81802C66.2089 4.34991 71.1106 4.65742 75.9928 5.8577C76.8609 6.07098 77.7047 6.38345 78.568 6.61656C78.8996 6.70584 78.9825 6.87943 78.9777 7.20678C78.963 8.93281 78.9582 10.6539 78.9777 12.3799C78.9825 12.8709 78.8606 12.8461 78.4997 12.6329C75.349 10.7779 71.9592 9.80078 68.3061 9.85534C61.7218 9.95454 55.8983 14.1307 54.9813 21.382C54.2936 26.7982 55.8007 31.4704 60.2635 34.848C62.1705 36.2913 64.3799 36.9708 66.7356 37.1643C69.3694 37.3825 71.9007 37.0204 74.2955 35.8301C74.593 35.6813 74.7149 35.5126 74.7198 35.1654C74.7393 32.7897 74.7734 30.409 74.8417 28.0332C74.8564 27.5719 74.7052 27.5174 74.3247 27.5174C71.7495 27.5322 69.1743 27.5223 66.604 27.5223C66.4089 27.5223 66.2186 27.5223 66.0333 27.5223C65.9358 27.309 66.0967 27.1999 66.1699 27.0809C66.9746 25.7269 67.7989 24.3827 68.5988 23.0237C68.7695 22.7311 68.9597 22.6269 69.2962 22.6269C73.081 22.6369 76.8609 22.6369 80.6457 22.6269C81.0066 22.6269 81.1432 22.6914 81.1334 23.113C81.0261 28.1225 80.9335 33.1319 80.8603 38.1463C80.8554 38.6026 80.6847 38.801 80.3092 38.9845C76.6073 40.785 72.7103 41.7868 68.6134 41.9902V42.0001Z" fill="#762285"></path>
    <path d="M19.746 28.4297C25.6524 28.4297 31.5588 28.4297 37.4701 28.4297C38.4748 28.4297 38.8699 29.0844 38.4407 30.002C38.4065 30.0714 38.3773 30.1458 38.3382 30.2152C35.8362 35.061 32.0758 38.4932 27.0375 40.4127C18.8632 43.5225 9.78162 41.1765 3.97275 34.4956C2.79732 33.1415 1.8121 31.6437 1.02198 30.0218C0.563512 29.0794 0.973206 28.4297 2.02183 28.4297C7.92824 28.4297 13.8347 28.4297 19.746 28.4297Z" fill="#F8AF0A"></path>
    <path d="M124.458 17.4931C125.443 17.0566 126.394 16.6053 127.414 16.3474C129.97 15.6976 132.535 15.4447 135.061 16.4069C138.188 17.5973 139.656 20.0326 139.739 23.3259C139.822 26.6936 139.768 30.0663 139.773 33.4341C139.773 35.8545 139.763 38.2699 139.783 40.6903C139.783 41.097 139.695 41.2359 139.271 41.226C137.69 41.2012 136.11 41.1962 134.53 41.226C134.032 41.2359 133.959 41.0474 133.959 40.611C133.974 36.5687 133.974 32.5215 133.959 28.4792C133.959 26.9763 133.998 25.4636 133.706 23.9756C133.276 21.8131 131.891 20.5236 129.735 20.345C127.999 20.2012 126.37 20.598 124.878 21.5403C124.546 21.7487 124.414 21.9867 124.419 22.3984C124.434 28.4445 124.419 34.4905 124.439 40.5415C124.439 41.0673 124.331 41.2458 123.78 41.2309C122.2 41.1913 120.62 41.2062 119.039 41.226C118.659 41.226 118.547 41.1218 118.547 40.725C118.557 32.7744 118.557 24.8238 118.547 16.8731C118.547 16.4615 118.688 16.392 119.049 16.397C120.61 16.4119 122.171 16.4416 123.731 16.3871C124.346 16.3672 124.531 16.5607 124.434 17.136C124.419 17.2302 124.439 17.3294 124.448 17.4931H124.458Z" fill="#762285"></path>
    <path d="M96.3699 21.6591C97.321 20.0124 98.2769 18.3608 99.2231 16.7091C99.3256 16.5256 99.4914 16.481 99.6572 16.4463C102.432 15.866 105.217 15.4593 108.066 15.9255C111.694 16.5207 114.045 19.0899 114.265 22.8048C114.479 26.3908 114.314 29.9767 114.357 33.5677C114.387 35.626 114.294 37.6893 114.479 39.7476C114.504 40.0055 114.513 40.2734 114.601 40.5065C114.801 41.0471 114.665 41.2009 114.089 41.181C112.567 41.1364 111.046 41.1513 109.524 41.1513C109.285 41.1513 109.07 41.181 108.997 40.8438C108.919 40.4718 108.68 40.7495 108.544 40.7942C106.481 41.4241 104.378 41.8506 102.213 41.7365C99.5353 41.5977 97.1405 40.8041 95.5603 38.4085C93.1314 34.7332 94.497 29.5403 98.4574 27.4621C100.945 26.1527 103.632 25.7956 106.398 25.9097C107.041 25.9345 107.68 25.994 108.319 26.0436C108.544 26.0634 108.7 26.0436 108.69 25.7509C108.651 24.5606 108.607 23.3752 108.114 22.2642C107.456 20.7911 106.212 20.2455 104.739 20.0818C102.189 19.7991 99.7938 20.4439 97.438 21.3416C97.1113 21.4656 96.7796 21.5896 96.4528 21.7136C96.4431 21.7136 96.4236 21.6938 96.3699 21.6591ZM108.69 33.2552C108.69 32.3227 108.67 31.3952 108.7 30.4628C108.71 30.066 108.568 29.9767 108.207 29.9371C107.056 29.818 105.91 29.8924 104.769 29.9867C103.652 30.0809 102.579 30.3636 101.686 31.1076C100.486 32.1095 100.091 33.4238 100.399 34.9366C100.696 36.3997 101.676 37.2032 103.081 37.481C104.978 37.8579 106.739 37.3421 108.461 36.5932C108.719 36.4791 108.69 36.2609 108.69 36.0426C108.69 35.1102 108.69 34.1827 108.69 33.2502V33.2552Z" fill="#762285"></path>
    <path d="M157.059 36.9557C156.016 38.3891 154.972 39.8175 153.933 41.2559C153.835 41.3948 153.713 41.4692 153.552 41.5039C151.914 41.8263 150.265 41.9552 148.626 41.5188C146.295 40.8988 144.622 38.8901 144.588 36.4399C144.534 32.4968 144.598 28.5488 144.612 24.6057C144.612 23.3955 144.603 22.1853 144.632 20.98C144.642 20.6328 144.461 20.6428 144.237 20.6428C143.476 20.6428 142.715 20.6229 141.954 20.6477C141.584 20.6626 141.491 20.5287 141.501 20.1666C141.52 19.0556 141.525 17.9446 141.501 16.8336C141.491 16.4517 141.623 16.3674 141.969 16.3773C142.73 16.4021 143.491 16.3674 144.251 16.3922C144.637 16.4071 144.759 16.2831 144.749 15.8912C144.725 14.6612 144.749 13.4311 144.734 12.2011C144.729 11.8539 144.817 11.6754 145.173 11.5662C146.778 11.0851 148.378 10.5892 149.968 10.0584C150.407 9.91461 150.504 9.99893 150.499 10.4453C150.48 12.211 150.504 13.9767 150.485 15.7375C150.48 16.1938 150.587 16.3525 151.065 16.3426C152.509 16.3128 153.952 16.3426 155.396 16.3227C155.811 16.3178 155.981 16.3971 155.962 16.8683C155.923 17.9793 155.938 19.0903 155.962 20.2013C155.967 20.5634 155.864 20.6775 155.503 20.6725C153.982 20.6527 152.46 20.6725 150.938 20.6576C150.548 20.6527 150.407 20.737 150.407 21.1735C150.392 25.1761 150.348 29.1787 150.324 33.1862C150.324 33.6227 150.348 34.0592 150.402 34.4907C150.646 36.4696 151.958 37.5509 154.006 37.4567C155.04 37.4071 156.045 37.1938 157.079 36.9557H157.059Z" fill="#762285"></path>
    <path d="M20.1249 26.5308C12.2822 26.5308 5.6686 20.7873 4.49804 13.0102C4.12249 10.5105 4.31758 8.04048 5.07844 5.62503C5.35157 4.75706 5.88807 4.62314 6.53188 5.27784C12.7651 11.6116 18.9983 17.9503 25.2315 24.284C25.8997 24.9635 25.768 25.4991 24.8559 25.7868C23.2854 26.2778 21.6857 26.5903 20.1249 26.5358V26.5308Z" fill="#EE2727"></path>
    <path d="M85.3457 28.7471C85.3457 24.804 85.3554 20.861 85.3359 16.9179C85.3359 16.4517 85.4481 16.3177 85.9115 16.3277C87.4917 16.3574 89.0671 16.3475 90.6473 16.3277C91.018 16.3277 91.1546 16.4169 91.1546 16.8187C91.1448 24.7842 91.1448 32.7497 91.1546 40.7152C91.1546 41.0922 91.0326 41.1815 90.6815 41.1765C89.0622 41.1616 87.4478 41.1517 85.8285 41.1765C85.3847 41.1864 85.3359 41.0128 85.3359 40.6309C85.3506 36.668 85.3457 32.7051 85.3457 28.7422V28.7471Z" fill="#762285"></path>
    <path d="M25.6599 10.8132C25.6599 13.9825 25.6599 17.1519 25.6599 20.3212C25.6599 20.4799 25.6648 20.6386 25.6599 20.7974C25.6257 21.4818 25.2941 21.6852 24.6991 21.3677C22.7237 20.3212 21.1533 18.8283 19.9827 16.894C16.4954 11.1306 18.6756 3.22957 24.6015 0.189182C25.3429 -0.192726 25.655 -0.00921199 25.655 0.829003C25.6599 4.15706 25.655 7.48512 25.655 10.8132H25.6599Z" fill="#71207F"></path>
    <path d="M26.7109 19.9788C26.7353 15.3959 30.0665 11.6016 34.5244 11.0213C35.8071 10.8526 37.0411 10.9915 38.2604 11.3586C38.8749 11.5421 38.9481 11.8198 38.5091 12.2662C34.9926 15.8323 31.4761 19.3935 27.9547 22.9497C27.5596 23.3515 27.306 23.2771 27.1353 22.7166C26.8621 21.8288 26.7109 20.9162 26.7109 19.9788Z" fill="#7DCA2B"></path>
    <path d="M91.3454 8.18347C91.2235 10.1277 89.8774 11.452 88.1264 11.3528C86.3657 11.2586 85.0586 9.76567 85.1708 7.9702C85.2732 6.26401 86.7559 4.94469 88.4581 5.03893C90.1895 5.13317 91.4479 6.50705 91.3454 8.18347Z" fill="#762285"></path>
    <path d="M160.833 18.501C160.833 19.3888 160.155 20.0832 159.287 20.0832C158.429 20.0832 157.727 19.3739 157.727 18.501C157.727 17.6182 158.414 16.9238 159.282 16.9287C160.165 16.9337 160.833 17.6132 160.833 18.501ZM158.726 19.4979C158.848 19.6467 159.034 19.6715 159.195 19.7063C159.687 19.8054 160.263 19.4731 160.468 18.9821C160.692 18.4564 160.516 17.8463 160.053 17.519C159.585 17.1916 159.141 17.2214 158.722 17.6033C157.98 18.0249 157.98 18.8978 158.722 19.493L158.726 19.4979Z" fill="#762285"></path>
    <path d="M158.727 17.6026C159.146 17.2157 159.59 17.1909 160.058 17.5183C160.521 17.8456 160.692 18.4557 160.473 18.9814C160.268 19.4675 159.692 19.8047 159.2 19.7055C159.034 19.6708 158.853 19.646 158.731 19.4972C158.731 19.4576 158.731 19.4179 158.731 19.3782C159.385 19.4675 158.873 18.7929 159.185 18.659C159.556 18.7433 159.434 19.4526 160.024 19.3137C159.873 18.9715 159.565 18.7037 159.985 18.2969C160.214 18.0738 159.985 17.6819 159.6 17.6274C159.312 17.5827 159.014 17.6026 158.727 17.5927V17.6026Z" fill="#F1EBF2"></path>
    <path d="M158.728 19.3743C158.728 19.414 158.728 19.4537 158.728 19.4934C157.987 18.8982 157.987 18.0253 158.728 17.6037L158.723 17.5938C158.723 18.1889 158.723 18.7841 158.728 19.3793V19.3743Z" fill="#EAE0EB"></path>
    <path d="M158.731 19.3734C158.731 18.7783 158.731 18.1831 158.727 17.5879C159.019 17.5978 159.312 17.5829 159.6 17.6226C159.99 17.6821 160.219 18.069 159.985 18.2922C159.565 18.6989 159.873 18.9667 160.024 19.309C159.434 19.4429 159.556 18.7386 159.185 18.6543C158.873 18.7882 159.38 19.4627 158.731 19.3734ZM159.409 18.312C159.463 18.3021 159.634 18.3418 159.658 18.1484C159.683 17.9053 159.483 17.9351 159.336 17.9152C159.214 17.9004 159.107 17.9202 159.092 18.0888C159.078 18.2773 159.17 18.3368 159.409 18.312Z" fill="#762285"></path>
    <path d="M159.405 18.3126C159.162 18.3374 159.069 18.2779 159.088 18.0894C159.103 17.9257 159.21 17.9009 159.332 17.9158C159.474 17.9356 159.679 17.9059 159.654 18.1489C159.635 18.3423 159.459 18.2977 159.405 18.3126Z" fill="#FDFDFD"></path>
  </g>
  <defs>
    <clipPath id="clip0_9814_5460">
      <rect width="160" height="42" fill="white" transform="translate(0.835938)"></rect>
    </clipPath>
  </defs>
</svg>
