<?xml version="1.0" encoding="UTF-8"?>
<svg xmlns="http://www.w3.org/2000/svg" width="48" height="49" viewBox="0 0 48 49" fill="none">
  <path d="M39.7697 19.3814C39.7697 28.0955 32.7053 35.1598 23.9912 35.1598C15.2771 35.1598 8.21289 28.0955 8.21289 19.3814C8.21289 10.6673 15.2771 3.60309 23.9912 3.60309C32.7053 3.60309 39.7697 10.6673 39.7697 19.3814Z" stroke="#D4FF27" stroke-width="2" stroke-linecap="round" stroke-linejoin="round"></path>
  <path d="M24.6368 10.8146L26.8102 15.1868C26.8588 15.2973 26.9359 15.393 27.0335 15.4641C27.1312 15.5351 27.246 15.579 27.3662 15.5911L32.1932 16.324C32.3312 16.342 32.4613 16.3989 32.5681 16.488C32.675 16.5772 32.7543 16.6949 32.7967 16.8274C32.8391 16.96 32.8429 17.1019 32.8076 17.2365C32.7724 17.3711 32.6995 17.4929 32.5976 17.5877L29.0342 20.9742C28.981 21.0756 28.9533 21.1883 28.9533 21.3027C28.9533 21.4172 28.981 21.5299 29.0342 21.6313L29.7165 26.4331C29.7457 26.5718 29.7339 26.7161 29.6826 26.8483C29.6314 26.9806 29.5429 27.0951 29.4278 27.178C29.3128 27.2609 29.1762 27.3087 29.0345 27.3156C28.8929 27.3224 28.7523 27.288 28.6298 27.2165L24.3335 24.942C24.2223 24.8917 24.1017 24.8658 23.9797 24.8658C23.8576 24.8658 23.737 24.8917 23.6258 24.942L19.3295 27.2165C19.207 27.288 19.0664 27.3224 18.9248 27.3156C18.7832 27.3087 18.6465 27.2609 18.5315 27.178C18.4164 27.0951 18.3279 26.9806 18.2767 26.8483C18.2255 26.7161 18.2137 26.5718 18.2428 26.4331L19.0515 21.6313C19.0863 21.5198 19.0929 21.4015 19.0709 21.2868C19.0489 21.1722 18.9988 21.0648 18.9251 20.9742L15.3617 17.5624C15.2672 17.4667 15.2009 17.3467 15.17 17.2158C15.1391 17.0848 15.1448 16.9479 15.1866 16.82C15.2283 16.6921 15.3045 16.5782 15.4067 16.4907C15.5089 16.4032 15.6333 16.3456 15.7661 16.324L20.5931 15.6164C20.7133 15.6042 20.8281 15.5604 20.9258 15.4894C21.0235 15.4183 21.1005 15.3226 21.1491 15.2121L23.3226 10.8399C23.3807 10.7161 23.4724 10.6111 23.5871 10.5367C23.7018 10.4623 23.8351 10.4214 23.9718 10.4188C24.1085 10.4162 24.2433 10.4518 24.3608 10.5218C24.4783 10.5918 24.5739 10.6932 24.6368 10.8146Z" stroke="#D4FF27" stroke-width="2" stroke-linecap="round" stroke-linejoin="round"></path>
  <path d="M10.3233 27.1208L3.30664 39.274L10.8883 37.2425L12.9198 44.8242L19.0078 34.2796" stroke="#D4FF27" stroke-width="2" stroke-linecap="round" stroke-linejoin="round"></path>
  <path d="M37.6762 27.1208L44.6928 39.274L37.1111 37.2425L35.0797 44.8242L28.9917 34.2796" stroke="#D4FF27" stroke-width="2" stroke-linecap="round" stroke-linejoin="round"></path>
</svg>
