<?xml version="1.0" encoding="UTF-8"?>
<svg xmlns="http://www.w3.org/2000/svg" width="224" height="42" viewBox="0 0 224 42" fill="none">
  <g clip-path="url(#clip0_9814_5351)">
    <path d="M36.6064 20.61L40.771 16.4271C41.1894 16.0063 41.4244 15.436 41.4244 14.8414C41.4244 14.2467 41.1894 13.6764 40.771 13.2557L28.4049 0.83499C27.986 0.414755 27.4182 0.178711 26.8262 0.178711C26.2341 0.178711 25.6663 0.414755 25.2474 0.83499L21.0829 5.01791L16.9184 0.83499C16.5003 0.415024 15.9332 0.17909 15.3418 0.17909C14.7505 0.17909 14.1834 0.415024 13.7653 0.83499L1.39924 13.2557C1.19102 13.4634 1.02577 13.7104 0.913008 13.9826C0.800242 14.2547 0.742188 14.5466 0.742188 14.8414C0.742188 15.1361 0.800242 15.428 0.913008 15.7001C1.02577 15.9723 1.19102 16.2193 1.39924 16.4271L5.55937 20.61L1.39924 24.7929C1.19116 25.0003 1.026 25.2469 0.913291 25.5187C0.800584 25.7905 0.742558 26.082 0.742558 26.3764C0.742558 26.6708 0.800584 26.9623 0.913291 27.2341C1.026 27.5059 1.19116 27.7526 1.39924 27.9599L13.7785 40.3806C13.9849 40.5896 14.2305 40.7555 14.5011 40.8687C14.7717 40.9819 15.0619 41.0402 15.355 41.0402C15.6481 41.0402 15.9384 40.9819 16.209 40.8687C16.4795 40.7555 16.7251 40.5896 16.9316 40.3806L21.0961 36.2021L25.2606 40.3806C25.4674 40.5897 25.7134 40.7557 25.9844 40.869C26.2553 40.9822 26.5459 41.0405 26.8394 41.0405C27.1328 41.0405 27.4234 40.9822 27.6944 40.869C27.9653 40.7557 28.2113 40.5897 28.4181 40.3806L40.7842 27.9599C41.2023 27.5399 41.4372 26.9703 41.4372 26.3764C41.4372 25.7825 41.2023 25.2129 40.7842 24.7929L36.6064 20.61Z" fill="#9FCC3B"></path>
    <path d="M16.3683 31.464C16.0977 31.1934 15.901 30.8575 15.797 30.4885C15.693 30.1195 15.6853 29.7299 15.7746 29.357L16.8564 24.8605L12.3753 25.9427C12.0015 26.0352 11.6101 26.0289 11.2395 25.9244C10.8688 25.8199 10.5314 25.6207 10.26 25.3464L5.559 20.6113L1.39887 24.7942C1.19079 25.0016 1.02563 25.2483 0.91292 25.5201C0.800213 25.7918 0.742188 26.0833 0.742188 26.3777C0.742188 26.6722 0.800213 26.9637 0.91292 27.2354C1.02563 27.5072 1.19079 27.7539 1.39887 27.9613L13.7781 40.3819C13.9846 40.5909 14.2302 40.7568 14.5007 40.87C14.7713 40.9832 15.0615 41.0415 15.3547 41.0415C15.6478 41.0415 15.938 40.9832 16.2086 40.87C16.4792 40.7568 16.7248 40.5909 16.9312 40.3819L21.0957 36.2034L16.3683 31.464Z" fill="#00A651"></path>
    <path d="M23.9894 19.3428C23.8927 18.9412 23.6875 18.5741 23.3966 18.2819C23.1057 17.9897 22.7402 17.7836 22.3403 17.6864L12.371 15.2703C11.9964 15.1789 11.6046 15.1866 11.2339 15.2927C10.8632 15.3987 10.5261 15.5995 10.2557 15.8755L5.55469 20.6105L10.2557 25.3456C10.5253 25.617 10.8598 25.8144 11.227 25.9188C11.5943 26.0232 11.9822 26.0311 12.3534 25.9419L22.3227 23.5346C22.7237 23.4417 23.0913 23.2396 23.3854 22.9505C23.6794 22.6614 23.8884 22.2965 23.9894 21.8959L24.2929 20.6282L23.9894 19.3428Z" fill="#109447"></path>
    <path d="M19.8185 17.6876C19.4194 17.7855 19.0548 17.9918 18.7647 18.284C18.4746 18.5762 18.2702 18.9429 18.1738 19.344L15.7727 29.3574C15.6834 29.7302 15.6911 30.1199 15.795 30.4888C15.899 30.8578 16.0958 31.1937 16.3664 31.4643L21.0806 36.2037L25.7992 31.4643C26.0683 31.1928 26.2638 30.8567 26.3669 30.4879C26.4701 30.1191 26.4775 29.7299 26.3885 29.3574L23.9918 19.344C23.8955 18.9421 23.6905 18.5748 23.3995 18.2825C23.1085 17.9902 22.7428 17.7843 22.3427 17.6876L21.0806 17.3828L19.8185 17.6876Z" fill="#109447"></path>
    <path d="M18.1706 21.8963C18.2683 22.2975 18.4737 22.6641 18.7645 22.9562C19.0553 23.2482 19.4203 23.4546 19.8197 23.5527L29.7891 25.9599C30.161 26.0492 30.5495 26.0412 30.9174 25.9368C31.2854 25.8324 31.6206 25.6351 31.8911 25.3636L36.6054 20.6286L31.8867 15.8759C31.6171 15.6029 31.2823 15.4039 30.9143 15.298C30.5463 15.192 30.1573 15.1826 29.7847 15.2708L19.8153 17.6869C19.4162 17.7848 19.0517 17.9911 18.7616 18.2833C18.4715 18.5754 18.267 18.9421 18.1706 19.3432L17.8672 20.6109L18.1706 21.8963Z" fill="#65BC46"></path>
    <path d="M22.3422 23.5347C22.7399 23.4389 23.1039 23.2356 23.3946 22.9467C23.6853 22.6578 23.8917 22.2944 23.9913 21.896L26.388 11.8826C26.4765 11.5094 26.4689 11.1197 26.3658 10.7502C26.2626 10.3808 26.0675 10.0439 25.7987 9.77127L21.0801 5.01855L16.3658 9.7536C16.0956 10.0253 15.8991 10.362 15.7952 10.7316C15.6913 11.1012 15.6833 11.4914 15.7722 11.8649L18.1733 21.896C18.2709 22.2972 18.4764 22.6638 18.7671 22.9559C19.0579 23.2479 19.4229 23.4543 19.8224 23.5524L21.0845 23.8571L22.3422 23.5347Z" fill="#65BC46"></path>
    <path d="M18.1706 21.8967C18.2683 22.298 18.4737 22.6646 18.7645 22.9566C19.0553 23.2487 19.4203 23.455 19.8197 23.5531L21.0818 23.8579L22.3439 23.5531C22.743 23.4552 23.1076 23.2489 23.3977 22.9567C23.6878 22.6646 23.8922 22.2978 23.9887 21.8967L25.3079 16.3799L19.8153 17.705C19.4184 17.8015 19.0554 18.0052 18.7655 18.294C18.4756 18.5829 18.2699 18.9459 18.1706 19.3437L17.8672 20.6114L18.1706 21.8967Z" fill="#3CAE49"></path>
    <path d="M22.3476 23.5355C22.7453 23.4398 23.1092 23.2364 23.4 22.9475C23.6907 22.6586 23.8971 22.2952 23.9967 21.8968L24.3001 20.6291L23.9967 19.3615C23.9004 18.9596 23.6954 18.5923 23.4044 18.3C23.1134 18.0077 22.7477 17.8018 22.3476 17.7051L16.8594 16.3623L18.1787 21.8968C18.2763 22.2981 18.4817 22.6647 18.7725 22.9567C19.0633 23.2488 19.4283 23.4551 19.8278 23.5532L21.0899 23.858L22.3476 23.5355Z" fill="#168241"></path>
    <path d="M19.8153 17.6865C19.4162 17.7844 19.0517 17.9908 18.7616 18.2829C18.4715 18.5751 18.267 18.9418 18.1706 19.3429L17.8672 20.6106L18.1706 21.8959C18.2683 22.2972 18.4737 22.6638 18.7645 22.9558C19.0553 23.2479 19.4203 23.4542 19.8197 23.5523L25.3123 24.8774L23.993 19.3606C23.8967 18.9587 23.6918 18.5914 23.4008 18.2991C23.1098 18.0068 22.7441 17.8009 22.3439 17.7042L21.0818 17.3994L19.8153 17.6865Z" fill="#168241"></path>
    <path d="M23.9967 19.344C23.9004 18.9421 23.6954 18.5748 23.4044 18.2825C23.1134 17.9902 22.7477 17.7843 22.3476 17.6876L21.0855 17.3828L19.8234 17.6876C19.4243 17.7855 19.0597 17.9918 18.7696 18.284C18.4795 18.5762 18.2751 18.9429 18.1787 19.344L16.8594 24.8608L22.352 23.5357C22.7489 23.4392 23.1119 23.2355 23.4018 22.9467C23.6917 22.6579 23.8974 22.2949 23.9967 21.897L24.3001 20.6293L23.9967 19.344Z" fill="#168241"></path>
    <path d="M23.9887 19.344C23.8919 18.9423 23.6868 18.5752 23.3958 18.283C23.1049 17.9908 22.7394 17.7848 22.3396 17.6876L21.0774 17.3828L19.8153 17.6876C19.4167 17.7864 19.0526 17.993 18.7627 18.2851C18.4727 18.5771 18.2679 18.9433 18.1706 19.344L17.8672 20.6117L18.1706 21.897C18.2683 22.2982 18.4737 22.6648 18.7645 22.9569C19.0553 23.249 19.4203 23.4553 19.8197 23.5534L21.0818 23.8582L22.3439 23.5534C22.743 23.4555 23.1076 23.2491 23.3977 22.957C23.6878 22.6648 23.8922 22.2981 23.9887 21.897L24.2921 20.6293L23.9887 19.344Z" fill="#0B763C"></path>
    <path d="M221.527 16.3576H221.078V16.1279H222.226V16.3576H221.777V17.5458H221.527V16.3576Z" fill="#65BC46"></path>
    <path d="M222.414 16.1279H222.678L223.109 16.7993L223.54 16.1279H223.804V17.5458H223.557V16.5299L223.109 17.1969H223.1L222.66 16.5343V17.5458H222.414V16.1279Z" fill="#65BC46"></path>
    <path d="M54.1484 12.7714C54.1484 11.9675 54.8125 11.4463 55.6788 11.4463C56.5451 11.4463 57.2136 11.9587 57.2136 12.7714V12.9039C57.2136 13.7078 56.5451 14.229 55.6788 14.229C54.8125 14.229 54.1484 13.6946 54.1484 12.9039V12.7714Z" fill="#65BC46"></path>
    <path d="M54.3491 17.1662C54.3444 16.9892 54.3751 16.8131 54.4393 16.6482C54.5035 16.4833 54.5999 16.3331 54.7229 16.2063C54.8459 16.0794 54.9929 15.9787 55.1553 15.9099C55.3177 15.8411 55.4922 15.8057 55.6684 15.8057C55.847 15.804 56.0241 15.8379 56.1895 15.9056C56.3548 15.9733 56.5051 16.0734 56.6316 16.2C56.7581 16.3266 56.8582 16.4773 56.9261 16.6431C56.9941 16.809 57.0284 16.9868 57.0273 17.1662V26.4949C57.0273 26.8534 56.8855 27.1972 56.6331 27.4507C56.3808 27.7041 56.0385 27.8465 55.6816 27.8465C55.3247 27.8465 54.9824 27.7041 54.7301 27.4507C54.4777 27.1972 54.3359 26.8534 54.3359 26.4949L54.3491 17.1662Z" fill="#231F20"></path>
    <path d="M59.688 17.1655C59.6833 16.9886 59.7139 16.8125 59.7781 16.6476C59.8423 16.4827 59.9387 16.3324 60.0617 16.2056C60.1847 16.0788 60.3317 15.978 60.4941 15.9092C60.6565 15.8404 60.831 15.805 61.0072 15.8051C61.1858 15.8033 61.3629 15.8373 61.5283 15.905C61.6937 15.9727 61.844 16.0727 61.9705 16.1994C62.0969 16.326 62.197 16.4766 62.265 16.6425C62.3329 16.8084 62.3673 16.9862 62.3661 17.1655V17.7486C62.7501 17.1178 63.2911 16.5983 63.9357 16.2412C64.5804 15.8842 65.3064 15.7019 66.0425 15.7123C68.6811 15.7123 70.2202 17.4791 70.2202 20.2177V26.4943C70.2202 26.8457 70.0812 27.1828 69.8338 27.4313C69.5864 27.6798 69.2508 27.8194 68.9009 27.8194C68.7248 27.8241 68.5494 27.7933 68.3853 27.7289C68.2211 27.6644 68.0715 27.5675 67.9452 27.444C67.819 27.3205 67.7186 27.1728 67.6502 27.0097C67.5817 26.8466 67.5464 26.6713 67.5465 26.4943V21.0128C67.5465 19.1841 66.6318 18.1329 65.0354 18.1329C63.4391 18.1329 62.3969 19.2283 62.3969 21.0569V26.4943C62.3969 26.8528 62.2551 27.1965 62.0028 27.45C61.7504 27.7035 61.4081 27.8459 61.0512 27.8459C60.6943 27.8459 60.3521 27.7035 60.0997 27.45C59.8473 27.1965 59.7056 26.8528 59.7056 26.4943L59.688 17.1655Z" fill="#231F20"></path>
    <path d="M77.0582 27.9433H76.9263C76.1919 27.9433 75.7037 27.4751 75.3915 26.7595L71.482 17.7709C71.3949 17.5569 71.343 17.3302 71.3281 17.0995C71.3362 16.7534 71.4787 16.4243 71.7253 16.1824C71.9718 15.9406 72.3028 15.8052 72.6474 15.8053C72.9437 15.8019 73.2329 15.8959 73.4711 16.0729C73.7092 16.25 73.8833 16.5003 73.9667 16.7859L76.9878 24.5952L80.0662 16.7417C80.1492 16.4698 80.3172 16.2319 80.5453 16.0632C80.7734 15.8946 81.0495 15.8042 81.3327 15.8053C81.5048 15.8 81.6762 15.8295 81.8366 15.8923C81.9971 15.955 82.1432 16.0497 82.2664 16.1705C82.3896 16.2913 82.4872 16.4359 82.5535 16.5955C82.6197 16.7551 82.6532 16.9266 82.6519 17.0995C82.6458 17.3229 82.5934 17.5425 82.498 17.7444L78.5886 26.7551C78.2807 27.4486 77.7926 27.9389 77.0582 27.9389" fill="#231F20"></path>
    <path d="M83.9688 12.7714C83.9688 11.9675 84.6372 11.4463 85.5035 11.4463C86.3698 11.4463 87.0339 11.9587 87.0339 12.7714V12.9039C87.0339 13.7078 86.3698 14.229 85.5035 14.229C84.6372 14.229 83.9688 13.6946 83.9688 12.9039V12.7714Z" fill="#65BC46"></path>
    <path d="M84.1694 17.1661C84.1647 16.9892 84.1954 16.813 84.2596 16.6482C84.3238 16.4833 84.4202 16.333 84.5432 16.2062C84.6662 16.0794 84.8132 15.9786 84.9756 15.9098C85.138 15.841 85.3125 15.8056 85.4887 15.8057C85.6669 15.8045 85.8436 15.8389 86.0084 15.9069C86.1733 15.9748 86.3231 16.075 86.4491 16.2015C86.5751 16.3281 86.6748 16.4785 86.7425 16.6441C86.8101 16.8097 86.8443 16.9872 86.8432 17.1661V26.4949C86.8235 26.8394 86.6735 27.1634 86.4237 27.4003C86.1739 27.6373 85.8433 27.7693 85.4997 27.7693C85.1561 27.7693 84.8256 27.6373 84.5758 27.4003C84.326 27.1634 84.1759 26.8394 84.1562 26.4949L84.1694 17.1661Z" fill="#231F20"></path>
    <path d="M89.9401 24.4622V18.2784H89.5003C89.1936 18.2784 88.8994 18.156 88.6825 17.9381C88.4656 17.7203 88.3437 17.4248 88.3438 17.1167C88.3437 16.8086 88.4656 16.5131 88.6825 16.2953C88.8994 16.0774 89.1936 15.955 89.5003 15.955H89.9401V13.9453C89.9597 13.6007 90.1098 13.2768 90.3596 13.0398C90.6094 12.8029 90.94 12.6709 91.2835 12.6709C91.6271 12.6709 91.9577 12.8029 92.2075 13.0398C92.4573 13.2768 92.6074 13.6007 92.627 13.9453V15.9506H94.7379C95.0446 15.9506 95.3388 16.073 95.5557 16.2908C95.7726 16.5087 95.8944 16.8042 95.8944 17.1123C95.8944 17.4204 95.7726 17.7159 95.5557 17.9337C95.3388 18.1516 95.0446 18.274 94.7379 18.274H92.627V24.0382C92.627 25.085 93.1591 25.509 94.0694 25.509C94.2932 25.4987 94.5164 25.4766 94.7379 25.4428C95.0346 25.4427 95.3194 25.5599 95.5309 25.769C95.7423 25.9781 95.8634 26.2623 95.868 26.5603C95.8645 26.7851 95.7956 27.004 95.6698 27.19C95.544 27.376 95.3668 27.521 95.16 27.6071C94.5691 27.8203 93.9453 27.9265 93.3174 27.9207C91.3385 27.9207 89.9401 27.0373 89.9401 24.4622Z" fill="#231F20"></path>
    <path d="M96.7998 24.3298V24.2856C96.7998 21.7414 98.7787 20.4914 101.637 20.4914C102.714 20.4779 103.785 20.6435 104.808 20.9817V20.6902C104.808 19.0161 103.788 18.1239 101.897 18.1239C101.009 18.1138 100.127 18.2727 99.2977 18.5921C99.1553 18.6369 99.0071 18.6608 98.8579 18.6628C98.7106 18.6639 98.5646 18.636 98.4281 18.5804C98.2916 18.5249 98.1673 18.4429 98.0624 18.3391C97.9574 18.2354 97.8739 18.1118 97.8164 17.9756C97.759 17.8394 97.7289 17.6932 97.7277 17.5453C97.731 17.3147 97.8021 17.0902 97.932 16.9C98.0618 16.7099 98.2447 16.5625 98.4577 16.4763C99.6609 16.0036 100.943 15.7682 102.235 15.7829C103.994 15.7829 105.314 16.2511 106.123 17.108C106.932 17.9649 107.389 19.2061 107.389 20.7432V26.5383C107.391 26.7113 107.357 26.8827 107.291 27.0423C107.225 27.2019 107.127 27.3465 107.004 27.4673C106.881 27.5882 106.734 27.6828 106.574 27.7455C106.413 27.8083 106.242 27.8379 106.07 27.8325C105.909 27.8464 105.746 27.8277 105.592 27.7777C105.438 27.7276 105.295 27.6472 105.172 27.5411C105.049 27.435 104.949 27.3053 104.876 27.1596C104.804 27.014 104.761 26.8553 104.751 26.6929V26.2512C104.286 26.8106 103.7 27.2561 103.038 27.5538C102.375 27.8516 101.654 27.9937 100.929 27.9694C98.7304 27.9694 96.7734 26.6973 96.7734 24.3342L96.7998 24.3298ZM104.817 23.4862V22.6778C103.97 22.3613 103.073 22.2027 102.169 22.2096C100.437 22.2096 99.412 22.9429 99.412 24.1708V24.215C99.412 25.3546 100.415 25.9818 101.703 25.9818C103.462 25.9818 104.834 24.9526 104.834 23.4597" fill="#231F20"></path>
    <path d="M110.206 24.4622V18.2784H109.766C109.459 18.2784 109.165 18.156 108.948 17.9381C108.731 17.7203 108.609 17.4248 108.609 17.1167C108.609 16.8086 108.731 16.5131 108.948 16.2953C109.165 16.0774 109.459 15.955 109.766 15.955H110.206V13.9453C110.225 13.6007 110.375 13.2768 110.625 13.0398C110.875 12.8029 111.206 12.6709 111.549 12.6709C111.893 12.6709 112.223 12.8029 112.473 13.0398C112.723 13.2768 112.873 13.6007 112.893 13.9453V15.9506H115.003C115.31 15.9506 115.604 16.073 115.821 16.2908C116.038 16.5087 116.16 16.8042 116.16 17.1123C116.16 17.4204 116.038 17.7159 115.821 17.9337C115.604 18.1516 115.31 18.274 115.003 18.274H112.893V24.0382C112.893 25.085 113.429 25.509 114.339 25.509C114.562 25.4985 114.783 25.4764 115.003 25.4428C115.301 25.4427 115.586 25.5597 115.798 25.7687C116.01 25.9777 116.132 26.2619 116.138 26.5603C116.134 26.7855 116.064 27.0045 115.937 27.1904C115.811 27.3764 115.633 27.5212 115.426 27.6071C114.835 27.8209 114.211 27.9271 113.583 27.9207C111.604 27.9207 110.206 27.0373 110.206 24.4622Z" fill="#231F20"></path>
    <path d="M117.562 12.7714C117.562 11.9675 118.231 11.4463 119.093 11.4463C119.955 11.4463 120.628 11.9587 120.628 12.7714V12.9039C120.628 13.7078 119.959 14.229 119.093 14.229C118.227 14.229 117.562 13.6946 117.562 12.9039V12.7714Z" fill="#65BC46"></path>
    <path d="M117.748 17.1662C117.743 16.9892 117.774 16.8131 117.838 16.6482C117.902 16.4833 117.998 16.3331 118.121 16.2063C118.244 16.0794 118.391 15.9787 118.554 15.9099C118.716 15.8411 118.891 15.8057 119.067 15.8057C119.245 15.804 119.423 15.8379 119.588 15.9056C119.753 15.9733 119.904 16.0734 120.03 16.2C120.157 16.3266 120.257 16.4773 120.325 16.6431C120.393 16.809 120.427 16.9868 120.426 17.1662V26.4949C120.426 26.8534 120.284 27.1972 120.032 27.4507C119.779 27.7041 119.437 27.8465 119.08 27.8465C118.723 27.8465 118.381 27.7041 118.129 27.4507C117.876 27.1972 117.734 26.8534 117.734 26.4949L117.748 17.1662Z" fill="#231F20"></path>
    <path d="M122.398 21.8961V21.852C122.393 20.1861 123.046 18.5862 124.215 17.4041C125.383 16.2221 126.971 15.5547 128.63 15.5489C130.288 15.543 131.881 16.1991 133.058 17.3729C134.235 18.5467 134.899 20.142 134.905 21.8078V21.852C134.903 22.6719 134.737 23.483 134.418 24.2377C134.099 24.9924 133.633 25.6756 133.048 26.2471C132.462 26.8185 131.769 27.2668 131.009 27.5657C130.249 27.8645 129.437 28.0078 128.621 27.9872C127.811 28.0084 127.006 27.8666 126.252 27.57C125.498 27.2734 124.81 26.8281 124.23 26.2604C123.65 25.6926 123.189 25.014 122.875 24.2644C122.56 23.5148 122.398 22.7096 122.398 21.8961ZM132.218 21.8961V21.852C132.218 19.776 130.732 18.0577 128.621 18.0577C126.51 18.0577 125.103 19.7539 125.103 21.8078V21.852C125.085 22.3374 125.164 22.8216 125.335 23.2759C125.506 23.7303 125.766 24.1455 126.1 24.4972C126.434 24.8488 126.834 25.1297 127.278 25.3233C127.721 25.5168 128.199 25.6191 128.683 25.6241C130.881 25.6241 132.236 23.928 132.236 21.8961" fill="#231F20"></path>
    <path d="M136.852 17.1652C136.847 16.9883 136.878 16.8121 136.942 16.6473C137.006 16.4824 137.103 16.3321 137.226 16.2053C137.349 16.0785 137.496 15.9777 137.658 15.9089C137.821 15.8401 137.995 15.8047 138.171 15.8048C138.352 15.8 138.531 15.8318 138.699 15.8981C138.867 15.9645 139.02 16.0641 139.149 16.191C139.278 16.3179 139.38 16.4696 139.449 16.637C139.518 16.8043 139.553 16.984 139.552 17.1652V17.7483C139.935 17.1216 140.473 16.6049 141.113 16.2482C141.753 15.8914 142.474 15.7067 143.207 15.712C145.845 15.712 147.384 17.4788 147.384 20.2174V26.494C147.384 26.8454 147.245 27.1825 146.998 27.431C146.75 27.6795 146.415 27.8191 146.065 27.8191C145.889 27.8238 145.713 27.793 145.549 27.7285C145.385 27.6641 145.236 27.5672 145.109 27.4437C144.983 27.3202 144.883 27.1725 144.814 27.0094C144.746 26.8463 144.71 26.671 144.711 26.494V21.0124C144.711 19.1838 143.8 18.1326 142.2 18.1326C140.599 18.1326 139.561 19.228 139.561 21.0566V26.494C139.541 26.8385 139.391 27.1625 139.141 27.3994C138.892 27.6363 138.561 27.7683 138.217 27.7683C137.874 27.7683 137.543 27.6363 137.294 27.3994C137.044 27.1625 136.894 26.8385 136.874 26.494L136.852 17.1652Z" fill="#231F20"></path>
    <path d="M152.141 12.664C152.141 12.3126 152.28 11.9756 152.527 11.727C152.774 11.4785 153.11 11.3389 153.46 11.3389C153.814 11.3354 154.155 11.4727 154.409 11.721C154.663 11.9693 154.809 12.3083 154.814 12.664V17.748C155.199 17.1181 155.741 16.5994 156.385 16.2424C157.029 15.8855 157.755 15.7027 158.491 15.7118C161.129 15.7118 162.668 17.4786 162.668 20.2171V26.4893C162.668 26.8408 162.529 27.1778 162.282 27.4263C162.035 27.6748 161.699 27.8144 161.349 27.8144C161.173 27.8191 160.998 27.7884 160.834 27.7239C160.669 27.6594 160.52 27.5625 160.393 27.439C160.267 27.3155 160.167 27.1678 160.098 27.0047C160.03 26.8416 159.995 26.6663 159.995 26.4893V21.0122C159.995 19.1836 159.084 18.1323 157.484 18.1323C155.883 18.1323 154.845 19.2277 154.845 21.0564V26.4893C154.826 26.8339 154.675 27.1578 154.426 27.3947C154.176 27.6317 153.845 27.7637 153.502 27.7637C153.158 27.7637 152.828 27.6317 152.578 27.3947C152.328 27.1578 152.178 26.8339 152.158 26.4893L152.141 12.664Z" fill="#65BC46"></path>
    <path d="M164.508 21.8966V21.8524C164.505 21.0282 164.664 20.2114 164.975 19.4488C165.286 18.6862 165.744 17.9926 166.323 17.4077C166.901 16.8228 167.588 16.3581 168.345 16.04C169.102 15.7219 169.914 15.5567 170.735 15.5537C172.392 15.5479 173.984 16.2036 175.16 17.3765C176.336 18.5494 177 20.1436 177.006 21.8083V21.8524C177.004 22.6725 176.838 23.4839 176.52 24.2389C176.201 24.9939 175.735 25.6773 175.15 26.2489C174.564 26.8205 173.871 27.2688 173.11 27.5674C172.35 27.866 171.538 28.0089 170.722 27.9877C169.913 28.0077 169.108 27.865 168.355 27.5678C167.602 27.2707 166.916 26.8252 166.337 26.2576C165.758 25.69 165.297 25.0117 164.983 24.2628C164.669 23.5138 164.508 22.7093 164.508 21.8966ZM174.319 21.8966V21.8524C174.319 19.7808 172.833 18.0626 170.722 18.0626C168.611 18.0626 167.204 19.7588 167.204 21.8083V21.8524C167.185 22.3373 167.263 22.821 167.433 23.2751C167.604 23.7291 167.863 24.1442 168.196 24.4958C168.529 24.8475 168.929 25.1286 169.371 25.3224C169.814 25.5163 170.291 25.619 170.774 25.6246C172.947 25.6246 174.323 23.9284 174.323 21.8966" fill="#65BC46"></path>
    <path d="M179.016 17.1698C179.011 16.9929 179.042 16.8168 179.106 16.6519C179.17 16.487 179.267 16.3367 179.39 16.2099C179.513 16.0831 179.66 15.9823 179.822 15.9135C179.985 15.8447 180.159 15.8093 180.335 15.8094C180.514 15.8082 180.69 15.8426 180.855 15.9106C181.02 15.9785 181.17 16.0787 181.296 16.2052C181.422 16.3318 181.521 16.4823 181.589 16.6478C181.657 16.8134 181.691 16.9909 181.69 17.1698V17.7264C182.446 16.6795 183.449 15.699 185.265 15.699C185.989 15.6627 186.707 15.8395 187.332 16.2075C187.957 16.5755 188.461 17.1187 188.783 17.7706C189.222 17.1243 189.813 16.597 190.503 16.2356C191.194 15.8742 191.962 15.6898 192.741 15.699C195.296 15.699 196.848 17.3289 196.848 20.2043V26.4898C196.848 26.8412 196.709 27.1782 196.462 27.4267C196.215 27.6753 195.879 27.8149 195.529 27.8149C195.353 27.8196 195.178 27.7888 195.013 27.7243C194.849 27.6598 194.7 27.563 194.573 27.4395C194.447 27.3159 194.347 27.1683 194.278 27.0051C194.21 26.842 194.175 26.6668 194.175 26.4898V21.0126C194.175 19.1354 193.295 18.1328 191.8 18.1328C190.305 18.1328 189.289 19.1619 189.289 21.0568V26.4898C189.289 26.8471 189.148 27.1897 188.896 27.4424C188.645 27.695 188.303 27.8369 187.948 27.8369C187.592 27.8369 187.251 27.695 186.999 27.4424C186.748 27.1897 186.606 26.8471 186.606 26.4898V21.0126C186.606 19.184 185.727 18.1548 184.227 18.1548C182.728 18.1548 181.721 19.2723 181.721 21.0789V26.4898C181.701 26.8343 181.551 27.1582 181.301 27.3952C181.051 27.6321 180.721 27.7641 180.377 27.7641C180.034 27.7641 179.703 27.6321 179.453 27.3952C179.203 27.1582 179.053 26.8343 179.034 26.4898L179.016 17.1698Z" fill="#65BC46"></path>
    <path d="M204.782 27.9874C201.382 27.9874 198.766 25.5094 198.766 21.8742V21.83C198.766 18.4643 201.14 15.6992 204.483 15.6992C208.212 15.6992 210.054 18.7911 210.054 21.4988C210.057 21.6663 210.027 21.8327 209.965 21.9883C209.903 22.1439 209.811 22.2855 209.694 22.4048C209.576 22.5241 209.437 22.6187 209.283 22.6831C209.129 22.7475 208.963 22.7803 208.797 22.7797H201.448C201.524 23.6172 201.916 24.3938 202.544 24.9499C203.173 25.506 203.989 25.7995 204.826 25.77C205.843 25.7752 206.828 25.4113 207.6 24.7453C207.789 24.5778 208.035 24.4892 208.286 24.4979C208.429 24.4967 208.57 24.5243 208.702 24.5792C208.834 24.6341 208.953 24.7151 209.053 24.8174C209.152 24.9196 209.231 25.0411 209.283 25.1744C209.335 25.3077 209.359 25.4502 209.355 25.5933C209.349 25.9036 209.221 26.1988 208.999 26.4149C207.847 27.4639 206.336 28.0243 204.782 27.9785V27.9874ZM207.446 21.0129C207.266 19.2726 206.246 17.921 204.469 17.921C202.825 17.921 201.672 19.1931 201.426 21.0129H207.446Z" fill="#65BC46"></path>
    <path d="M211.589 26.5384C211.427 26.4426 211.294 26.3045 211.205 26.1388C211.115 25.9731 211.071 25.786 211.079 25.5975C211.077 25.4538 211.104 25.3111 211.158 25.1779C211.212 25.0448 211.292 24.9238 211.393 24.8221C211.494 24.7205 211.615 24.6402 211.747 24.586C211.88 24.5318 212.022 24.5048 212.165 24.5065C212.368 24.5062 212.567 24.5612 212.741 24.6655C213.733 25.3661 214.907 25.7607 216.119 25.8007C217.271 25.8007 217.939 25.3104 217.939 24.5286V24.4845C217.939 23.5701 216.695 23.2565 215.301 22.8369C213.586 22.3378 211.668 21.6311 211.668 19.3784V19.3342C211.668 17.1257 213.511 15.7432 215.842 15.7432C217.129 15.7626 218.392 16.0912 219.527 16.7017C219.719 16.7948 219.881 16.9402 219.996 17.1213C220.11 17.3024 220.171 17.512 220.173 17.7264C220.172 17.8721 220.142 18.0162 220.084 18.15C220.027 18.2837 219.943 18.4045 219.838 18.505C219.733 18.6056 219.609 18.6839 219.473 18.7353C219.337 18.7867 219.192 18.8101 219.047 18.8042C218.861 18.8078 218.677 18.7605 218.515 18.6672C217.67 18.1947 216.729 17.9213 215.762 17.8678C214.72 17.8678 214.122 18.358 214.122 19.025V19.0692C214.122 19.9526 215.384 20.2971 216.761 20.7432C218.471 21.2777 220.402 22.0683 220.402 24.1753V24.2238C220.402 26.6974 218.493 27.9253 216.053 27.9253C214.459 27.9137 212.905 27.4246 211.589 26.5207" fill="#65BC46"></path>
  </g>
  <defs>
    <clipPath id="clip0_9814_5351">
      <rect width="223.06" height="40.8574" fill="white" transform="translate(0.742188 0.182617)"></rect>
    </clipPath>
  </defs>
</svg>
