<?xml version="1.0" encoding="UTF-8"?>
<svg xmlns="http://www.w3.org/2000/svg" width="48" height="49" viewBox="0 0 48 49" fill="none">
  <path d="M25.1259 44.5358C24.3944 44.8179 23.5841 44.8179 22.8526 44.5358C17.1449 42.3442 12.2362 38.4733 8.77495 33.4335C5.31364 28.3937 3.46261 22.4226 3.46631 16.3087V6.83663C3.46631 5.99926 3.79896 5.19614 4.39108 4.60403C4.98322 4.01191 5.78631 3.67926 6.62368 3.67926H41.3548C42.1921 3.67926 42.9953 4.01191 43.5874 4.60403C44.1796 5.19614 44.5123 5.99926 44.5123 6.83663V16.3087C44.5158 22.4226 42.6648 28.3937 39.2037 33.4335C35.7422 38.4733 30.8336 42.3442 25.1259 44.5358Z" stroke="#D4FF27" stroke-width="2" stroke-linecap="round" stroke-linejoin="round"></path>
  <path d="M33.5511 14.6624L20.8169 28.9885L14.4497 24.2131" stroke="#D4FF27" stroke-width="2" stroke-linecap="round" stroke-linejoin="round"></path>
</svg>
