<?xml version="1.0" encoding="UTF-8"?>
<svg xmlns="http://www.w3.org/2000/svg" width="48" height="49" viewBox="0 0 48 49" fill="none">
  <path d="M23.9993 22.4076L23.9991 35.0478C23.9991 39.8372 20.1164 43.7198 15.3269 43.7198C10.5374 43.7198 6.65467 39.8372 6.65467 35.0478C6.65467 34.8023 6.66486 34.5594 6.68485 34.3191C4.87998 32.3802 3.74121 28.5874 3.74121 25.4229C3.74121 21.1107 5.8556 16.9181 8.88862 15.2701C8.85952 15.0003 8.84459 14.7263 8.84459 14.4487C8.84459 10.2639 12.2371 6.87137 16.4219 6.87137C18.2854 6.87137 19.9917 7.54406 21.3114 8.6598" stroke="#D4FF27" stroke-width="2" stroke-linecap="round" stroke-linejoin="round"></path>
  <path d="M12.8931 20.4202C11.7805 20.1666 9.25931 18.5131 8.87891 15.2897" stroke="#D4FF27" stroke-width="2" stroke-linecap="round" stroke-linejoin="round"></path>
  <path d="M9.00363 29.7727C7.87168 30.6665 6.96917 32.692 6.67676 34.3146" stroke="#D4FF27" stroke-width="2" stroke-linecap="round" stroke-linejoin="round"></path>
  <path d="M24 35.0478C24 39.8372 27.8827 43.7198 32.6722 43.7198C37.4616 43.7198 41.3443 39.8372 41.3443 35.0478C41.3443 34.8023 41.3341 34.5594 41.3141 34.3191C43.1192 32.3801 44.2579 28.5874 44.2579 25.4229C44.2579 24.0411 44.0408 22.6716 43.6457 21.3941" stroke="#D4FF27" stroke-width="2" stroke-linecap="round" stroke-linejoin="round"></path>
  <path d="M38.9956 29.7727C40.1274 30.6665 41.0299 32.692 41.3225 34.3146" stroke="#D4FF27" stroke-width="2" stroke-linecap="round" stroke-linejoin="round"></path>
  <path d="M24.2046 15.6382C23.0874 15.4439 23.0874 13.84 24.2046 13.6457C28.2521 12.9415 31.4713 9.85867 32.3498 5.84546L32.4171 5.53783C32.6588 4.43367 34.2311 4.42679 34.4823 5.52882L34.5641 5.88729C35.4753 9.88159 38.6951 12.9384 42.7316 13.6406C43.8544 13.836 43.8544 15.4479 42.7316 15.6433C38.6951 16.3455 35.4753 19.4023 34.5641 23.3966L34.4823 23.7551C34.2311 24.8571 32.6588 24.8502 32.4171 23.7461L32.3498 23.4384C31.4713 19.4252 28.2521 16.3424 24.2046 15.6382Z" stroke="#D4FF27" stroke-width="2" stroke-linecap="round" stroke-linejoin="round"></path>
</svg>
