<?xml version="1.0" encoding="UTF-8"?>
<svg xmlns="http://www.w3.org/2000/svg" width="41" height="41" viewBox="0 0 41 41" fill="none">
  <path d="M36.1165 7.23633H4.28435C3.55183 7.23633 2.95801 7.83016 2.95801 8.56267V29.7841C2.95801 30.5165 3.55183 31.1104 4.28435 31.1104H36.1165C36.8489 31.1104 37.4428 30.5165 37.4428 29.7841V8.56267C37.4428 7.83016 36.8489 7.23633 36.1165 7.23633Z" stroke="#D4FF27" stroke-width="2" stroke-linecap="round" stroke-linejoin="round"></path>
  <path d="M17.5477 31.1104L14.895 37.742" stroke="#D4FF27" stroke-width="2" stroke-linecap="round" stroke-linejoin="round"></path>
  <path d="M22.853 31.1104L25.5057 37.742" stroke="#D4FF27" stroke-width="2" stroke-linecap="round" stroke-linejoin="round"></path>
  <path d="M12.2422 37.7422H28.1583" stroke="#D4FF27" stroke-width="2" stroke-linecap="round" stroke-linejoin="round"></path>
  <path d="M21.5269 7.23633V31.1104" stroke="#D4FF27" stroke-width="2" stroke-linecap="round" stroke-linejoin="round"></path>
  <path d="M9.58984 15.1943H14.8952" stroke="#D4FF27" stroke-width="2" stroke-linecap="round" stroke-linejoin="round"></path>
  <path d="M9.58984 23.1523H12.2425" stroke="#D4FF27" stroke-width="2" stroke-linecap="round" stroke-linejoin="round"></path>
  <path d="M21.5269 20.4999L24.7366 17.8472C25.6879 17.0601 26.884 16.6294 28.1188 16.6294C29.3536 16.6294 30.5497 17.0601 31.5009 17.8472L37.4429 23.1526" stroke="#D4FF27" stroke-width="2" stroke-linecap="round" stroke-linejoin="round"></path>
</svg>
