<?xml version="1.0" encoding="UTF-8"?>
<svg xmlns="http://www.w3.org/2000/svg" width="144" height="30" viewBox="0 0 144 30" fill="none">
  <path d="M14.1279 0H17.9248C21.773 0.235946 25.9925 0.500064 29.1651 3.20112C30.9387 4.64145 31.7999 7.05022 31.8351 9.42729C28.877 9.43082 25.9252 9.43434 22.9703 9.42729C22.727 8.82862 22.5317 8.11726 21.917 7.86371C20.3259 7.00444 18.4979 7.02557 16.7627 6.95514C14.9219 6.97275 13.0106 6.8354 11.237 7.50099C10.3438 7.79328 9.70671 8.84271 9.98843 9.86397C10.3246 10.6246 11.189 10.5859 11.8421 10.7197C16.7787 11.1951 21.7954 10.9486 26.6584 12.146C28.6529 12.6495 30.737 13.6286 31.8255 15.6464C32.8499 17.6643 32.8499 20.14 32.3601 22.3374C31.8479 24.792 30.0103 26.669 27.9453 27.5916C24.8719 28.9721 21.504 29.1447 18.2322 29.2996H14.6818C10.9585 29.0954 6.97588 29.0038 3.7008 26.7958C1.72551 25.4893 0.656226 23.0241 0.460938 20.552V19.5026C3.40306 19.5026 6.34839 19.5061 9.29052 19.499C9.51142 20.1928 9.75793 20.9535 10.4174 21.2774C12.1526 22.2881 14.1887 22.267 16.1032 22.348C18.2097 22.3304 20.3931 22.436 22.4164 21.6789C23.3865 21.3937 24.0748 20.2034 23.665 19.1328C23.2328 18.2982 22.25 18.2559 21.4816 18.1327C15.8471 17.5657 9.86678 18.2489 4.5812 15.6147C0.147196 13.5264 -0.227372 5.74371 3.77763 2.94757C6.8126 0.69023 10.5839 0.345116 14.1279 0Z" fill="#2127C3"></path>
  <path d="M37.5838 0.690042C40.0905 0.690042 42.6036 0.68652 45.1136 0.690042C45.1168 2.78187 45.1136 4.87017 45.1136 6.96199C47.8892 6.96551 50.6649 6.95847 53.4373 6.96551C53.4341 9.3778 53.4469 11.7866 53.4277 14.1953C50.6585 14.1989 47.886 14.1848 45.1168 14.2024C45.1648 16.0829 45.0079 17.9705 45.1968 19.8404C45.3281 20.9779 46.423 21.5414 47.361 21.5414C49.3843 21.6188 51.414 21.5414 53.4373 21.5695C53.4405 24.01 53.4341 26.454 53.4405 28.8909C50.985 28.8768 48.5327 28.9261 46.0772 28.8628C43.785 28.7853 41.3391 28.3204 39.5559 26.6125C38.2337 25.3834 37.571 23.4677 37.5806 21.5907C37.5646 19.1256 37.587 16.6604 37.5742 14.1953C36.2552 14.1953 34.9362 14.1918 33.6172 14.1953C33.6268 11.7866 33.6204 9.37428 33.6236 6.96199C34.9426 6.96199 36.2616 6.96199 37.5806 6.95847C37.5806 4.87016 37.5806 2.77834 37.5838 0.690042Z" fill="#2127C3"></path>
  <path d="M107.44 0.683594C110.091 0.694159 112.739 0.687117 115.39 0.690638C115.386 10.0757 115.399 19.4607 115.383 28.8457C112.736 28.8493 110.088 28.8493 107.444 28.8493C107.434 27.3948 107.431 25.9404 107.476 24.4895C106.051 27.6625 102.805 29.05 99.7698 29.3071H98.1979C95.5535 29.1697 92.8803 28.1555 90.985 26.0672C86.9544 21.6194 87.1369 13.4036 91.4684 9.27275C94.2921 6.58226 98.3355 6.04697 101.886 6.87807C104.233 7.44152 106.403 9.06145 107.466 11.4773C107.412 7.88172 107.456 4.28266 107.44 0.683594ZM99.0879 14.0058C97.2502 14.3544 95.7904 16.2701 96.1169 18.362C96.1618 20.2671 97.7305 21.5913 99.328 21.88C101.319 22.2604 103.538 22.3062 105.363 21.225C107.543 19.9115 107.533 15.925 105.36 14.6115C103.455 13.4916 101.146 13.5374 99.0879 14.0058Z" fill="#2127C3"></path>
  <path d="M119.943 10.1632C122.513 7.46217 126.218 6.66277 129.659 6.5536C133.232 6.43739 137.09 7.03606 139.945 9.59274C142.394 11.7127 143.489 15.1956 143.646 18.527V19.5095C137.387 19.5201 131.122 19.4884 124.863 19.5271C125.427 21.6823 127.402 22.9043 129.323 23.1368C131.407 23.341 133.754 23.2389 135.354 21.545C137.999 21.5098 140.643 21.5274 143.284 21.538C142.763 23.82 141.54 25.947 139.654 27.1373C136.853 28.9474 133.52 29.1199 130.36 29.3101H130.341C126.925 29.1516 123.208 28.7713 120.455 26.2992C118.534 24.6687 117.506 22.0451 117.321 19.4321C117.033 16.1394 117.705 12.5227 119.943 10.1632ZM124.931 15.1428C128.516 15.1604 132.108 15.178 135.697 15.1322C133.52 10.8922 127.156 11.0542 124.931 15.1428Z" fill="#2127C3"></path>
  <path d="M55.6016 6.96171C58.2107 6.96171 60.8199 6.95818 63.4259 6.96523C63.4195 8.57459 63.4515 10.1804 63.3971 11.7863C64.1302 9.10283 66.4705 7.14483 69.0092 7.01453C71.4327 6.89831 73.8658 6.9934 76.2925 6.96523C76.2893 9.35991 76.2861 11.7616 76.2925 14.1563C73.1135 14.1528 69.928 14.1387 66.7458 14.1563C64.9626 14.1669 63.4099 15.9805 63.4451 17.9279C63.4067 21.5798 63.4387 25.2352 63.4323 28.8906H55.6112C55.5984 21.5798 55.6048 14.2725 55.6016 6.96171Z" fill="#2127C3"></path>
  <path d="M78.2987 6.96182C80.9207 6.96182 83.5427 6.9583 86.1647 6.96534C86.1647 14.2726 86.1711 21.5799 86.1615 28.8907C83.5427 28.8943 80.9239 28.8907 78.3051 28.8907C78.2891 21.5799 78.3019 14.2726 78.2987 6.96182Z" fill="#2127C3"></path>
  <path d="M78.2988 0H86.1647C86.1679 1.57063 86.1647 3.14126 86.1615 4.71541C83.5428 4.71893 80.924 4.71541 78.3052 4.71541C78.2956 3.14478 78.2956 1.57415 78.2988 0Z" fill="#F86808"></path>
</svg>
