<?xml version="1.0" encoding="UTF-8"?>
<svg xmlns="http://www.w3.org/2000/svg" width="172" height="46" viewBox="0 0 172 46" fill="none">
  <g clip-path="url(#clip0_9814_5260)">
    <path d="M26.1417 31.4194C25.7117 31.0723 25.1957 30.8119 24.5937 30.6383C23.9917 30.4647 23.3897 30.3779 22.8737 30.3779C22.4437 30.3779 22.0137 30.4647 21.5837 30.5515C21.1537 30.6383 20.7237 30.8119 20.3797 30.9855C20.0357 31.1591 19.6917 31.4194 19.3477 31.7666C19.0037 32.1138 18.8317 32.4609 18.6597 32.8081C18.6597 32.2006 18.4877 31.7666 18.1437 31.4194C17.8857 31.0723 17.4557 30.8119 17.0257 30.6383C16.5957 30.4647 16.0797 30.3779 15.5637 30.3779C15.0477 30.3779 14.5317 30.4647 13.9297 30.5515V32.8081C14.2737 32.8081 14.6177 32.8081 14.7897 32.8949C15.0477 32.9817 15.1337 33.0685 15.2197 33.2421C15.3057 33.4157 15.3917 33.5893 15.3917 33.8496C15.3917 34.11 15.3917 34.3704 15.3917 34.7176V45.2194H18.6597V36.8006C18.6597 36.193 18.7457 35.6723 19.0037 35.2383C19.1757 34.8043 19.4337 34.4572 19.7777 34.1968C20.1217 33.9364 20.5517 33.6761 20.9817 33.5893C21.4117 33.5025 21.9277 33.3289 22.3577 33.3289C23.2177 33.3289 23.9917 33.5025 24.6797 33.8496L26.1417 31.4194Z" fill="#00A6CA"></path>
    <path d="M40.5108 42.962C40.2528 42.8752 40.1668 42.7016 40.0808 42.528C39.9948 42.3544 39.9088 42.0941 39.9088 41.8337C39.9088 41.5733 39.9088 41.3129 39.9088 40.9658V31.7658C38.9628 31.3318 38.0168 30.9846 36.9848 30.811C36.0388 30.5507 35.0068 30.4639 33.9748 30.4639C32.7708 30.4639 31.7388 30.6375 30.7068 30.9846C29.7608 31.3318 28.9008 31.8525 28.1268 32.5469C27.3528 33.2412 26.8368 34.0223 26.4068 35.0639C25.9768 36.0186 25.7188 37.1469 25.7188 38.362C25.7188 39.4035 25.8047 40.3582 26.1488 41.2261C26.4068 42.0941 26.8368 42.8752 27.3528 43.5695C27.8688 44.2639 28.5568 44.7846 29.4168 45.1318C30.2768 45.479 31.2228 45.6525 32.2548 45.6525C33.2868 45.6525 34.3188 45.3922 35.2648 44.7846C36.2108 44.2639 36.8988 43.4827 37.2428 42.4412C37.2428 43.2223 37.3288 43.8299 37.5868 44.2639C37.8448 44.6978 38.1028 45.045 38.5328 45.2186C38.9628 45.479 39.3927 45.5657 39.9088 45.5657C40.4248 45.5657 40.9408 45.5657 41.4568 45.3922V42.962C41.0268 43.0488 40.6828 43.0488 40.5108 42.962ZM36.7268 37.928C36.7268 39.3167 36.3828 40.3582 35.6948 41.2261C35.0928 42.0941 34.1468 42.528 32.9428 42.528C31.5668 42.528 30.6208 42.0941 29.9328 41.3129C29.2448 40.5318 28.9868 39.4903 28.9868 38.1016C28.9868 37.3205 29.1588 36.6261 29.4168 35.9318C29.6748 35.3242 29.9328 34.7167 30.3628 34.2827C30.7928 33.8488 31.2228 33.5016 31.8248 33.2412C32.3408 32.9808 33.0288 32.894 33.7168 32.894C34.1468 32.894 34.6628 32.8941 35.1788 32.9808C35.6947 33.0676 36.2108 33.2412 36.7268 33.4148V37.928Z" fill="#00A6CA"></path>
    <path d="M56.0726 32.2006C55.6426 31.6798 55.0406 31.2459 54.2666 30.8987C53.5786 30.5515 52.7186 30.3779 51.6866 30.3779C51.1706 30.3779 50.7406 30.3779 50.2246 30.4647C49.7086 30.5515 49.2785 30.7251 48.8485 30.8987C48.4185 31.0723 47.9886 31.3326 47.6446 31.6798C47.3006 32.027 46.9566 32.3742 46.7846 32.8949C46.7846 32.2006 46.6126 31.6798 46.3546 31.3327C46.0966 30.9855 45.7526 30.7251 45.3226 30.5515C44.8926 30.4647 44.3766 30.3779 43.8606 30.3779C43.3446 30.3779 42.7426 30.4647 42.2266 30.5515V32.8081C42.5706 32.8081 42.9146 32.8081 43.0866 32.8949C43.3446 32.9817 43.4306 33.0685 43.5166 33.2421C43.6026 33.4157 43.6885 33.5893 43.6885 33.8496C43.6885 34.11 43.6885 34.4572 43.6885 34.8911V45.2194H46.9566V36.9742C46.9566 36.3666 47.0426 35.8458 47.2146 35.4119C47.3866 34.8911 47.6445 34.544 47.9885 34.1968C48.3325 33.8496 48.6766 33.5893 49.1066 33.4157C49.5366 33.2421 50.0525 33.1553 50.5685 33.1553C51.5145 33.1553 52.3746 33.5024 52.9766 34.11C53.6646 34.7175 53.9226 35.6723 53.9226 36.8006V45.3062H57.1906V36.8006C57.1906 35.9326 57.1046 35.0647 56.8466 34.2836C56.9326 33.4157 56.5886 32.8081 56.0726 32.2006Z" fill="#00A6CA"></path>
    <path d="M70.6878 37.6674C70.1718 37.3202 69.4838 37.1467 68.7958 36.9731C68.1078 36.7995 67.3338 36.7127 66.5598 36.6259C65.4418 36.4523 64.5818 36.2787 63.9798 36.1051C63.3778 35.8448 63.1198 35.4976 63.1198 34.8901C63.1198 34.5429 63.2058 34.2825 63.3778 34.0221C63.5498 33.7618 63.7218 33.5882 64.0658 33.4146C64.3238 33.241 64.6678 33.0674 65.0118 32.9806C65.3558 32.8938 65.7858 32.807 66.1298 32.807C66.4738 32.807 66.9038 32.807 67.2478 32.8938C67.6778 32.9806 68.0218 33.0674 68.2798 33.241C68.6238 33.4146 68.7958 33.5882 69.0538 33.8485C69.2258 34.1089 69.3978 34.3693 69.3978 34.7165H72.2358C72.2358 34.0221 72.1498 33.3278 71.8058 32.807C71.4618 32.2863 71.0318 31.8523 70.5158 31.4184C69.9138 31.0712 69.3118 30.724 68.5378 30.5504C67.7638 30.3768 66.9898 30.29 66.1298 30.29C65.3558 30.29 64.5818 30.3768 63.8078 30.5504C63.0338 30.724 62.4318 30.9844 61.8298 31.4184C61.2278 31.7655 60.7978 32.2863 60.4538 32.807C60.1098 33.3278 59.9378 34.0221 59.9378 34.8033C59.9378 35.6712 60.1958 36.2787 60.5398 36.7995C60.9698 37.3202 61.3998 37.6674 62.0018 37.9278C62.6038 38.1882 63.2918 38.3617 64.0658 38.5353C64.8398 38.6221 65.5278 38.7957 66.3018 38.8825C67.2478 38.9693 68.0218 39.2297 68.6238 39.49C69.2258 39.7504 69.4838 40.1844 69.4838 40.8787C69.4838 41.3127 69.3978 41.6599 69.1398 42.007C68.8818 42.2674 68.6238 42.5278 68.3658 42.7014C68.0218 42.875 67.6778 42.9617 67.2478 43.0485C66.8178 43.1353 66.4738 43.1353 66.0438 43.1353C65.6138 43.1353 65.2698 43.0485 64.8398 43.0485C64.4958 42.9617 64.1518 42.7882 63.8078 42.6146C63.4638 42.441 63.2918 42.1806 63.0338 41.9202C62.8618 41.6598 62.6898 41.3127 62.6898 40.9655H59.5078C59.5938 41.8335 59.7658 42.6146 60.1958 43.2221C60.6258 43.8297 61.0558 44.2636 61.7438 44.6108C62.3458 44.958 63.0338 45.2183 63.8078 45.3919C64.5818 45.5655 65.3558 45.6523 66.1298 45.6523C66.9038 45.6523 67.6778 45.5655 68.4518 45.3919C69.2258 45.2183 69.9138 44.958 70.4298 44.524C70.9458 44.09 71.4618 43.6561 71.8058 43.1353C72.1498 42.5278 72.3218 41.8334 72.3218 41.0523C72.3218 40.1844 72.1498 39.49 71.8058 38.9693C71.6338 38.3617 71.2038 38.0146 70.6878 37.6674Z" fill="#00A6CA"></path>
    <path d="M107.158 32.2006C106.728 31.6798 106.126 31.2459 105.352 30.8987C104.664 30.5515 103.804 30.3779 102.772 30.3779C102.256 30.3779 101.826 30.3779 101.31 30.4647C100.794 30.5515 100.364 30.7251 99.9344 30.8987C99.5044 31.0723 99.0744 31.3326 98.7304 31.6798C98.3864 32.027 98.0424 32.3742 97.8704 32.8949C97.8704 32.2006 97.6984 31.6798 97.4404 31.3327C97.1824 30.9855 96.8384 30.7251 96.4084 30.5515C95.9784 30.4647 95.4624 30.3779 94.9464 30.3779C94.4304 30.3779 93.8284 30.4647 93.3984 30.5515V32.8081C93.7424 32.8081 94.0864 32.8081 94.2584 32.8949C94.5164 32.9817 94.6024 33.0685 94.6884 33.2421C94.7744 33.4157 94.8604 33.5893 94.8604 33.8496C94.8604 34.11 94.8604 34.4572 94.8604 34.8911V45.2194H98.1284V36.9742C98.1284 36.3666 98.2144 35.8458 98.3864 35.4119C98.5584 34.8911 98.8164 34.544 99.1604 34.1968C99.5044 33.8496 99.8484 33.5893 100.278 33.4157C100.708 33.2421 101.224 33.1553 101.74 33.1553C102.686 33.1553 103.546 33.5024 104.148 34.11C104.836 34.7175 105.094 35.6723 105.094 36.8006V45.3062H108.362V36.8006C108.362 35.9326 108.276 35.0647 108.018 34.2836C108.018 33.4157 107.674 32.8081 107.158 32.2006Z" fill="#00A6CA"></path>
    <path d="M112.923 24.3018C112.407 24.3018 111.977 24.4753 111.547 24.8225C111.117 25.1697 110.945 25.6036 110.945 26.298C110.945 26.9923 111.203 27.4263 111.547 27.7735C111.977 28.1206 112.407 28.2942 112.923 28.2074C113.439 28.2074 113.869 28.0338 114.213 27.6867C114.643 27.3395 114.815 26.9055 114.815 26.2112C114.815 25.5169 114.643 25.0829 114.213 24.7357C113.869 24.3886 113.439 24.3018 112.923 24.3018Z" fill="#00A6CA"></path>
    <path d="M114.557 30.7246H111.289V45.3058H114.557V30.7246Z" fill="#00A6CA"></path>
    <path d="M129.775 32.2865C129.087 31.679 128.227 31.245 127.281 30.8978C126.335 30.5507 125.389 30.4639 124.357 30.4639C123.411 30.4639 122.465 30.6375 121.605 30.8978C120.745 31.245 119.885 31.679 119.197 32.2865C118.509 32.8941 117.907 33.6752 117.477 34.6299C117.047 35.5846 116.789 36.6261 116.789 37.928C116.789 39.2299 117.047 40.3582 117.477 41.2261C117.907 42.1808 118.509 42.962 119.197 43.6563C119.885 44.2639 120.745 44.7846 121.605 45.045C122.551 45.3922 123.411 45.479 124.443 45.479C125.389 45.479 126.335 45.3054 127.281 45.045C128.227 44.7846 129.001 44.2639 129.689 43.6563C130.377 43.0488 130.979 42.2676 131.409 41.2261C131.839 40.2714 132.097 39.1431 132.097 37.928C132.097 36.6261 131.839 35.5846 131.409 34.6299C131.065 33.6752 130.463 32.8941 129.775 32.2865ZM128.485 40.011C128.227 40.6186 127.883 41.0525 127.539 41.4865C127.195 41.9205 126.679 42.1808 126.163 42.3544C125.647 42.528 125.131 42.7016 124.615 42.7016C124.099 42.7016 123.497 42.6148 122.981 42.4412C122.465 42.2676 121.949 41.9205 121.605 41.5733C121.175 41.1393 120.831 40.7054 120.573 40.0978C120.315 39.4903 120.229 38.7959 120.229 38.0148C120.229 37.2337 120.315 36.6261 120.573 36.0186C120.831 35.411 121.089 34.9771 121.519 34.6299C121.949 34.2827 122.379 33.9356 122.895 33.762C123.411 33.5884 123.927 33.5016 124.443 33.4148C124.959 33.4148 125.561 33.5016 126.077 33.6752C126.593 33.8488 127.109 34.1091 127.539 34.5431C127.969 34.8903 128.313 35.411 128.571 36.0186C128.829 36.6261 129.001 37.3205 129.001 38.1016C128.915 38.7091 128.743 39.4035 128.485 40.011Z" fill="#00A6CA"></path>
    <path d="M0 27.2525V24.1279H15.566V27.2525H9.46V45.3053H6.02V27.2525H0Z" fill="#00A6CA"></path>
    <path d="M74.9922 38.1883V24.1279H78.4322V38.1015C78.4322 40.8789 80.4962 42.4411 83.1622 42.4411C85.8282 42.4411 87.8062 40.8789 87.8062 38.1015V24.1279H91.2462V38.1883C91.2462 42.8751 87.5482 45.5657 83.1622 45.5657C78.6902 45.5657 74.9922 42.8751 74.9922 38.1883Z" fill="#00A6CA"></path>
    <path d="M148.355 41.8335V39.49V36.6259C148.355 35.758 148.269 34.89 148.011 34.1089C147.753 33.3278 147.409 32.7202 146.979 32.1127C146.549 31.5919 145.947 31.158 145.173 30.8108C144.485 30.4636 143.625 30.29 142.593 30.29C142.077 30.29 141.647 30.29 141.131 30.3768C140.615 30.4636 140.185 30.6372 139.755 30.8108C139.325 30.9844 138.895 31.2448 138.551 31.5919C138.207 31.9391 137.863 32.2863 137.691 32.807C137.691 32.1127 137.519 31.5919 137.261 31.2448C137.003 30.8976 136.659 30.6372 136.229 30.4636C135.799 30.3768 135.283 30.29 134.767 30.29C134.251 30.29 133.649 30.3768 133.219 30.4636V32.7202C133.563 32.7202 133.907 32.7202 134.079 32.807C134.337 32.8938 134.423 32.9806 134.509 33.1542C134.595 33.3278 134.681 33.5014 134.681 33.7617C134.681 34.0221 134.681 34.3693 134.681 34.8033V45.1316H137.949V36.8863C137.949 36.2787 138.035 35.758 138.207 35.324C138.379 34.8033 138.637 34.4561 138.981 34.1089C139.325 33.7617 139.669 33.5014 140.099 33.3278C140.529 33.1542 141.045 33.0674 141.561 33.0674C142.507 33.0674 143.367 33.4146 143.969 34.0221C144.657 34.6297 144.915 35.5844 144.915 36.7127V41.6599V42.007C144.915 45.5655 147.065 45.9127 149.903 45.3919V43.3089C148.613 43.3957 148.355 42.9618 148.355 41.8335Z" fill="#00A6CA"></path>
    <path d="M156.87 0.347656C151.28 0.347656 146.378 3.38541 143.798 7.98541C142.852 9.80805 142.68 11.3703 143.454 12.6722C144.314 14.2345 146.292 14.408 147.324 14.408H149.216L148.528 16.5779C148.098 17.8797 148.27 19.3552 148.958 20.3099C149.646 21.2646 150.678 21.7854 151.968 21.7854C152.828 21.7854 153.774 21.6118 154.634 21.2646C154.376 20.9175 154.204 20.5703 154.032 20.1364C153.946 19.7892 153.774 19.442 153.774 19.008C153.258 19.2684 152.656 19.3552 152.054 19.3552C151.71 19.3552 151.194 19.2684 150.936 18.8345C150.678 18.4873 150.592 17.9665 150.764 17.359L151.71 14.408H154.72L155.494 11.8911H152.57L153.86 7.81181H151.28L149.99 11.8911H147.238C146.378 11.8911 145.862 11.6307 145.604 11.1967C145.346 10.676 145.604 9.63447 146.292 8.41937V8.33257C148.614 4.94767 152.398 2.69106 156.784 2.69106C163.75 2.69106 169.426 8.41935 169.426 15.4495C169.426 22.4797 163.75 28.208 156.784 28.208C150.592 28.208 145.432 23.6948 144.314 17.7929L141.906 18.3137C143.282 25.3439 149.388 30.725 156.784 30.725C165.126 30.725 171.92 23.8684 171.92 15.4495C172.006 7.20426 165.212 0.347656 156.87 0.347656Z" fill="#00A6CA"></path>
    <path d="M166.508 19.7898C165.906 19.7898 165.132 19.703 164.616 19.3559C164.444 19.1823 164.186 19.0087 164.1 18.5747C164.1 18.4012 164.1 18.1408 164.186 17.8804L166.078 12.0653H163.498L161.864 17.0993C161.434 18.4012 160.058 19.4427 158.854 19.4427C158.51 19.4427 158.08 19.3559 157.908 19.0087C157.736 18.7483 157.564 18.4012 157.822 17.7936L159.714 11.9785H157.134L155.5 17.0125C155.07 18.2276 155.242 19.5295 155.93 20.4842C156.618 21.3521 157.564 21.8729 158.854 21.8729C160.058 21.8729 161.348 21.3521 162.38 20.4842C162.724 21.0049 163.154 21.3521 163.756 21.6125C164.616 21.8729 165.132 21.8729 165.734 21.8729C165.992 21.8729 166.336 21.7861 166.422 21.7861C166.508 21.6993 166.508 21.6125 166.594 21.5257C166.68 21.3521 166.766 21.1785 166.852 21.005C166.938 20.8314 167.024 20.6578 167.11 20.4842C167.196 20.3106 167.282 20.137 167.368 19.9634C167.454 19.8766 167.454 19.7031 167.54 19.6163C167.282 19.7899 166.938 19.7898 166.508 19.7898Z" fill="#00A6CA"></path>
    <path d="M151.703 43.57C151.703 40.9662 155.573 40.9662 155.573 43.57C155.573 46.1738 151.703 46.1738 151.703 43.57ZM155.229 43.57C155.229 41.3134 152.047 41.3134 152.047 43.57C152.047 45.8266 155.229 45.8266 155.229 43.57ZM154.455 44.4379L154.111 44.5247L153.595 43.8304H153.165V44.5247H152.907V42.6153H153.681C154.025 42.6153 154.369 42.8757 154.369 43.2228C154.369 43.4832 154.197 43.7436 153.939 43.7436L154.455 44.4379ZM153.251 43.57H153.681C153.939 43.57 154.111 43.3964 154.111 43.2228C154.111 42.9624 153.939 42.8757 153.681 42.8757H153.251V43.57Z" fill="#00A6CA"></path>
  </g>
  <defs>
    <clipPath id="clip0_9814_5260">
      <rect width="172" height="46" fill="white"></rect>
    </clipPath>
  </defs>
</svg>
