<?xml version="1.0" encoding="UTF-8"?>
<svg xmlns="http://www.w3.org/2000/svg" width="204" height="39" viewBox="0 0 204 39" fill="none">
  <g clip-path="url(#clip0_9814_5502)">
    <path fill-rule="evenodd" clip-rule="evenodd" d="M12.6562 0.541016L21.1357 14.5277L29.6152 0.541017L12.6562 0.541016Z" fill="#E4E82F"></path>
    <path fill-rule="evenodd" clip-rule="evenodd" d="M21.0513 14.5221L21.0545 14.5275L29.5337 0.541016H36.8934C40.3702 0.541016 42.5458 4.30178 40.8127 7.31583L29.1918 27.585L21.0156 14.5808L21.0513 14.5221Z" fill="#025D5B"></path>
    <path d="M21.1404 14.5275L12.6613 0.541016H5.32308C1.85947 0.541016 -0.307891 4.28747 1.41868 7.29005L12.4777 26.522L12.9952 27.4276L12.9992 27.429L13.3117 27.9724L13.3196 27.9587L13.3136 27.9693L18.0308 36.129C19.4219 38.5352 22.8607 38.5352 24.2519 36.129L29.1901 27.5849L21.329 14.8513L21.3286 14.8491L21.3113 14.8211L21.1404 14.5275Z" fill="url(#paint0_linear_9814_5502)"></path>
    <path d="M65.1386 27.0491C64.8643 27.0491 64.6128 26.9729 64.3842 26.8205C64.1556 26.6529 63.9879 26.4471 63.8812 26.2032L59.9034 16.6928C59.8272 16.51 59.7891 16.3499 59.7891 16.2127C59.7891 15.9232 59.8881 15.6792 60.0862 15.4811C60.2843 15.2678 60.5282 15.1611 60.8178 15.1611C61.0159 15.1611 61.1989 15.2221 61.3665 15.344C61.5494 15.4507 61.6789 15.5878 61.7551 15.7556L65.2529 24.6258L68.7508 15.7556C68.827 15.5878 68.9489 15.4507 69.1165 15.344C69.2995 15.2221 69.4899 15.1611 69.6881 15.1611C69.9777 15.1611 70.2215 15.2678 70.4196 15.4811C70.6178 15.6792 70.7169 15.9232 70.7169 16.2127C70.7169 16.3499 70.6788 16.51 70.6026 16.6928L66.6246 26.2032C66.518 26.4471 66.3503 26.6529 66.1216 26.8205C65.8931 26.9729 65.6416 27.0491 65.3672 27.0491H65.1386Z" fill="#015B5B"></path>
    <path d="M81.3213 27.1625C80.1477 27.1625 79.119 26.911 78.235 26.408C77.351 25.9051 76.6651 25.1964 76.1775 24.2819C75.705 23.3522 75.4688 22.293 75.4688 21.1042C75.4688 19.9153 75.705 18.8638 76.1775 17.9493C76.6651 17.0195 77.351 16.3032 78.235 15.8003C79.119 15.2973 80.1477 15.0459 81.3213 15.0459C82.4796 15.0459 83.5008 15.2973 84.3847 15.8003C85.2687 16.3032 85.9545 17.0195 86.4423 17.9493C86.93 18.8638 87.1739 19.9153 87.1739 21.1042C87.1739 22.293 86.93 23.3522 86.4423 24.2819C85.9545 25.1964 85.2687 25.9051 84.3847 26.408C83.5008 26.911 82.4796 27.1625 81.3213 27.1625ZM81.3213 25.265C81.9462 25.265 82.5405 25.1201 83.1045 24.8306C83.6836 24.5411 84.1561 24.0838 84.5219 23.4589C84.903 22.834 85.0934 22.0415 85.0934 21.0813C85.0934 20.1364 84.903 19.3515 84.5219 18.7266C84.1561 18.1017 83.6836 17.6521 83.1045 17.3778C82.5405 17.0881 81.9462 16.9433 81.3213 16.9433C80.6812 16.9433 80.0715 17.0881 79.4923 17.3778C78.9285 17.6521 78.4636 18.1017 78.0978 18.7266C77.732 19.3515 77.5492 20.1364 77.5492 21.0813C77.5492 22.0415 77.732 22.834 78.0978 23.4589C78.4636 24.0838 78.9285 24.5411 79.4923 24.8306C80.0715 25.1201 80.6812 25.265 81.3213 25.265Z" fill="#015B5B"></path>
    <path d="M94.31 27.0482C94.0204 27.0482 93.7765 26.9491 93.5784 26.751C93.3803 26.5528 93.2812 26.309 93.2812 26.0194V16.2118C93.2812 15.9222 93.3803 15.6783 93.5784 15.4802C93.7765 15.2669 94.0204 15.1602 94.31 15.1602C94.5996 15.1602 94.8434 15.2669 95.0415 15.4802C95.2549 15.6783 95.3617 15.9222 95.3617 16.2118V17.1949C96.4285 15.7622 97.6249 15.0459 98.9509 15.0459H99.0652C99.3548 15.0459 99.591 15.145 99.7739 15.3431C99.972 15.5412 100.071 15.7851 100.071 16.0746C100.071 16.3642 99.972 16.6005 99.7739 16.7833C99.5757 16.9662 99.3243 17.0576 99.0195 17.0576H98.9052C98.1737 17.0576 97.503 17.2406 96.8934 17.6063C96.2837 17.9569 95.7731 18.4446 95.3617 19.0695V26.0194C95.3617 26.309 95.2549 26.5528 95.0415 26.751C94.8434 26.9491 94.5996 27.0482 94.31 27.0482Z" fill="#015B5B"></path>
    <path d="M106.213 12.897C105.893 12.897 105.618 12.7826 105.39 12.554C105.161 12.3254 105.047 12.051 105.047 11.731V11.6396C105.047 11.3195 105.161 11.0452 105.39 10.8166C105.618 10.5879 105.893 10.4736 106.213 10.4736H106.35C106.67 10.4736 106.944 10.5879 107.173 10.8166C107.402 11.0452 107.516 11.3195 107.516 11.6396V11.731C107.516 12.051 107.402 12.3254 107.173 12.554C106.944 12.7826 106.67 12.897 106.35 12.897H106.213ZM106.259 27.0483C105.969 27.0483 105.725 26.9492 105.527 26.7511C105.329 26.5529 105.23 26.3091 105.23 26.0195V16.2119C105.23 15.9223 105.329 15.6784 105.527 15.4803C105.725 15.267 105.969 15.1603 106.259 15.1603C106.563 15.1603 106.815 15.2593 107.013 15.4574C107.211 15.6555 107.31 15.9071 107.31 16.2119V26.0195C107.31 26.3091 107.203 26.5529 106.99 26.7511C106.792 26.9492 106.548 27.0483 106.259 27.0483Z" fill="#015B5B"></path>
    <path d="M124.287 27.0484C123.997 27.0484 123.754 26.9494 123.555 26.7512C123.357 26.553 123.258 26.3092 123.258 26.0197V11.1825C123.258 10.8929 123.357 10.6491 123.555 10.4509C123.754 10.2376 123.997 10.1309 124.287 10.1309C124.576 10.1309 124.82 10.2376 125.018 10.4509C125.231 10.6491 125.338 10.8929 125.338 11.1825V17.1493C125.918 16.5093 126.542 15.9987 127.213 15.6176C127.884 15.2366 128.676 15.0461 129.591 15.0461C130.429 15.0461 131.153 15.2442 131.763 15.6405C132.388 16.0368 132.859 16.5779 133.18 17.2637C133.515 17.9496 133.683 18.704 133.683 19.527V26.0197C133.683 26.3092 133.576 26.553 133.363 26.7512C133.164 26.9494 132.921 27.0484 132.631 27.0484C132.341 27.0484 132.097 26.9494 131.9 26.7512C131.701 26.553 131.603 26.3092 131.603 26.0197V19.7556C131.603 17.8962 130.765 16.9664 129.087 16.9664C128.325 16.9664 127.639 17.1645 127.03 17.5609C126.436 17.9572 125.872 18.4905 125.338 19.1611V26.0197C125.338 26.3092 125.231 26.553 125.018 26.7512C124.82 26.9494 124.576 27.0484 124.287 27.0484Z" fill="#015B5B"></path>
    <path d="M145.609 27.1625C143.749 27.1625 142.294 26.6367 141.241 25.585C140.205 24.5182 139.688 23.0246 139.688 21.1042C139.688 20.022 139.885 19.0238 140.282 18.1093C140.678 17.1949 141.288 16.4557 142.11 15.8918C142.934 15.3278 143.947 15.0459 145.151 15.0459C146.279 15.0459 147.254 15.3126 148.078 15.846C148.9 16.3642 149.525 17.0653 149.952 17.9493C150.379 18.818 150.592 19.7706 150.592 20.807C150.592 21.0966 150.493 21.3404 150.295 21.5386C150.112 21.7367 149.861 21.8357 149.541 21.8357H141.79C141.913 22.9026 142.309 23.7333 142.979 24.3276C143.65 24.922 144.587 25.2193 145.791 25.2193C146.431 25.2193 146.988 25.1583 147.46 25.0363C147.947 24.9144 148.42 24.7392 148.877 24.5106C149 24.4496 149.137 24.419 149.289 24.419C149.533 24.419 149.746 24.503 149.929 24.6706C150.112 24.8382 150.203 25.0516 150.203 25.3107C150.203 25.646 150.006 25.928 149.609 26.1566C149.015 26.4918 148.428 26.7434 147.849 26.911C147.269 27.0786 146.523 27.1625 145.609 27.1625ZM148.535 20.144C148.488 19.3972 148.291 18.7723 147.941 18.2693C147.605 17.7663 147.185 17.4006 146.683 17.172C146.179 16.9281 145.669 16.8062 145.151 16.8062C144.632 16.8062 144.122 16.9281 143.62 17.172C143.116 17.4006 142.698 17.7663 142.362 18.2693C142.026 18.7723 141.836 19.3972 141.79 20.144H148.535Z" fill="#015B5B"></path>
    <path d="M159.524 27.1625C158.852 27.1625 158.228 27.0253 157.649 26.751C157.084 26.4766 156.635 26.0804 156.3 25.5622C155.965 25.0287 155.797 24.419 155.797 23.7333C155.797 22.6054 156.239 21.7062 157.123 21.0356C158.022 20.365 159.333 20.0296 161.055 20.0296H163.821V19.8468C163.821 18.8409 163.57 18.1169 163.067 17.6749C162.579 17.233 161.81 17.0119 160.758 17.0119C160.179 17.0119 159.661 17.0576 159.204 17.1491C158.762 17.2406 158.266 17.3778 157.717 17.5606C157.596 17.5911 157.496 17.6063 157.42 17.6063C157.192 17.6063 156.994 17.5225 156.826 17.3549C156.658 17.1873 156.574 16.9814 156.574 16.7376C156.574 16.3261 156.772 16.0365 157.168 15.8689C158.464 15.3202 159.782 15.0459 161.124 15.0459C162.175 15.0459 163.06 15.2592 163.775 15.6859C164.507 16.1127 165.041 16.669 165.376 17.3549C165.726 18.0255 165.902 18.7571 165.902 19.5496V26.0194C165.902 26.309 165.795 26.5528 165.582 26.751C165.384 26.9491 165.14 27.0482 164.851 27.0482C164.56 27.0482 164.316 26.9491 164.119 26.751C163.921 26.5528 163.821 26.309 163.821 26.0194V25.425C162.694 26.5833 161.261 27.1625 159.524 27.1625ZM160.301 25.3336C160.971 25.3336 161.619 25.1736 162.244 24.8535C162.869 24.5182 163.394 24.1066 163.821 23.6189V21.6986H161.329C159.028 21.6986 157.877 22.3006 157.877 23.5046C157.877 24.0533 158.061 24.4953 158.426 24.8306C158.807 25.166 159.432 25.3336 160.301 25.3336Z" fill="#015B5B"></path>
    <path d="M173.623 27.0484C173.333 27.0484 173.09 26.9494 172.891 26.7512C172.693 26.553 172.594 26.3092 172.594 26.0197V11.1825C172.594 10.8929 172.693 10.6491 172.891 10.4509C173.09 10.2376 173.333 10.1309 173.623 10.1309C173.928 10.1309 174.178 10.2299 174.377 10.4281C174.575 10.6262 174.674 10.8777 174.674 11.1825V26.0197C174.674 26.3092 174.567 26.553 174.354 26.7512C174.156 26.9494 173.912 27.0484 173.623 27.0484Z" fill="#015B5B"></path>
    <path d="M185.497 27.1624C183.272 27.1624 182.159 26.1565 182.159 24.1447V17.0576H180.536C180.414 17.0576 180.307 17.0195 180.215 16.9433C180.139 16.8518 180.102 16.7452 180.102 16.6233C180.102 16.4709 180.17 16.3412 180.307 16.2346L183.417 13.194C183.553 13.0569 183.683 12.9883 183.805 12.9883C183.927 12.9883 184.026 13.034 184.102 13.1254C184.194 13.2169 184.239 13.3235 184.239 13.4454V15.2744H186.823C187.082 15.2744 187.295 15.3582 187.463 15.5259C187.63 15.6935 187.714 15.9069 187.714 16.166C187.714 16.4098 187.63 16.6233 187.463 16.8061C187.295 16.9738 187.082 17.0576 186.823 17.0576H184.239V23.9618C184.239 24.5562 184.376 24.9372 184.651 25.1048C184.94 25.2573 185.298 25.3335 185.726 25.3335C186.03 25.3335 186.335 25.2878 186.64 25.1964C186.701 25.1811 186.761 25.1659 186.823 25.1505C186.899 25.1353 186.99 25.1277 187.097 25.1277C187.31 25.1277 187.501 25.2116 187.669 25.3792C187.836 25.5316 187.92 25.7221 187.92 25.9508C187.92 26.3013 187.745 26.568 187.394 26.7509C186.8 27.0252 186.167 27.1624 185.497 27.1624Z" fill="#015B5B"></path>
    <path d="M194.434 27.0484C194.145 27.0484 193.901 26.9494 193.703 26.7512C193.505 26.553 193.406 26.3092 193.406 26.0197V11.1825C193.406 10.8929 193.505 10.6491 193.703 10.4509C193.901 10.2376 194.145 10.1309 194.434 10.1309C194.725 10.1309 194.968 10.2376 195.166 10.4509C195.38 10.6491 195.487 10.8929 195.487 11.1825V17.1493C196.065 16.5093 196.69 15.9987 197.361 15.6176C198.032 15.2366 198.824 15.0461 199.738 15.0461C200.577 15.0461 201.301 15.2442 201.91 15.6405C202.535 16.0368 203.008 16.5779 203.328 17.2637C203.664 17.9496 203.83 18.704 203.83 19.527V26.0197C203.83 26.3092 203.724 26.553 203.51 26.7512C203.313 26.9494 203.068 27.0484 202.779 27.0484C202.49 27.0484 202.246 26.9494 202.047 26.7512C201.849 26.553 201.75 26.3092 201.75 26.0197V19.7556C201.75 17.8962 200.912 16.9664 199.236 16.9664C198.474 16.9664 197.788 17.1645 197.178 17.5609C196.583 17.9572 196.02 18.4905 195.487 19.1611V26.0197C195.487 26.3092 195.38 26.553 195.166 26.7512C194.968 26.9494 194.725 27.0484 194.434 27.0484Z" fill="#015B5B"></path>
  </g>
  <defs>
    <linearGradient id="paint0_linear_9814_5502" x1="9.09441" y1="0.541016" x2="15.0013" y2="37.9337" gradientUnits="userSpaceOnUse">
      <stop stop-color="#238E7B"></stop>
      <stop offset="1" stop-color="#01C599"></stop>
    </linearGradient>
    <clipPath id="clip0_9814_5502">
      <rect width="203.183" height="37.5447" fill="white" transform="translate(0.8125 0.541016)"></rect>
    </clipPath>
  </defs>
</svg>
